<svg xmlns="http://www.w3.org/2000/svg" width="964" height="365" viewBox="0 0 964 365" fill="none">
<path d="M56.4043 278.893C87.5555 278.893 112.809 253.982 112.809 223.252C112.809 192.522 87.5555 167.61 56.4043 167.61C25.2531 167.61 0 192.522 0 223.252C0 253.982 25.2531 278.893 56.4043 278.893Z" fill="#E3DC1C"/>
<path d="M670.639 191.832C645.322 207.06 614.948 211.558 586.198 204.337C557.448 197.117 532.677 178.769 517.335 153.33C501.993 127.892 497.337 97.4461 504.39 68.691C511.443 39.9359 529.629 15.2269 554.945 -0.000338458" fill="#E37428"/>
<path d="M669.51 332.049C647.173 351.927 617.893 362.184 588.109 360.563C558.326 358.942 530.479 345.576 510.696 323.406C490.912 301.236 480.812 272.077 482.617 242.344C484.422 212.611 497.985 184.74 520.321 164.862" fill="#E4DD1C"/>
<path d="M739.759 252.668C739.759 282.546 751.571 311.201 772.598 332.328C793.625 353.455 822.143 365.324 851.879 365.324C881.616 365.324 910.134 353.455 931.161 332.328C952.187 311.201 964 282.546 964 252.668" fill="#262324"/>
<path d="M40.8957 365.698C40.8957 335.819 52.7084 307.165 73.7351 286.037C94.7618 264.91 123.28 253.041 153.016 253.041C182.753 253.041 211.271 264.91 232.298 286.037C253.324 307.165 265.137 335.819 265.137 365.698" fill="#444A8B"/>
<path d="M167.837 239.979C184.287 215.023 209.93 197.574 239.126 191.473C268.321 185.371 298.676 191.116 323.514 207.444C348.352 223.772 365.638 249.345 371.569 278.538C377.5 307.73 371.591 338.151 355.141 363.108" fill="#E37428"/>
<path d="M679.603 307.744C710.754 307.744 736.007 282.832 736.007 252.102C736.007 221.372 710.754 196.461 679.603 196.461C648.452 196.461 623.199 221.372 623.199 252.102C623.199 282.832 648.452 307.744 679.603 307.744Z" fill="#E4DD1C"/>
<path d="M665.47 364.95C665.47 350.011 671.413 335.684 681.99 325.12C692.568 314.557 706.915 308.622 721.874 308.622C736.834 308.622 751.18 314.557 761.758 325.12C772.336 335.684 778.279 350.011 778.279 364.95" fill="#E37428"/>
<path d="M341.177 192.34C341.177 207.279 347.12 221.606 357.698 232.17C368.275 242.734 382.622 248.668 397.581 248.668C412.541 248.668 426.887 242.734 437.465 232.17C448.043 221.606 453.986 207.279 453.986 192.34" fill="#E4DD1C"/>
<path d="M166.461 247.294C151.502 247.294 137.155 241.432 126.578 230.997C116 220.563 110.057 206.41 110.057 191.653C110.057 176.896 116 162.743 126.578 152.309C137.155 141.874 151.502 136.012 166.461 136.012" fill="#444A8B"/>
<path d="M431.385 188.563C419.501 179.49 411.668 166.131 409.611 151.425C407.554 136.72 411.44 121.872 420.415 110.149C429.39 98.4252 442.718 90.7863 457.467 88.9124C472.217 87.0385 487.18 91.0831 499.064 100.156" fill="#E37428"/>
<path d="M293.027 189.592C293.027 174.653 298.97 160.325 309.548 149.762C320.125 139.198 334.472 133.264 349.431 133.264C364.391 133.264 378.737 139.198 389.315 149.762C399.893 160.325 405.836 174.653 405.836 189.592" fill="#444A8B"/>
<path d="M170.589 131.89C170.589 146.829 176.531 161.156 187.109 171.72C197.687 182.283 212.034 188.218 226.993 188.218C241.952 188.218 256.299 182.283 266.877 171.72C277.455 161.156 283.397 146.829 283.397 131.89" fill="#262324"/>
<path d="M776.591 244.546C807.362 244.546 832.307 219.327 832.307 188.218C832.307 157.109 807.362 131.89 776.591 131.89C745.819 131.89 720.874 157.109 720.874 188.218C720.874 219.327 745.819 244.546 776.591 244.546Z" fill="#444A8B"/>
<path d="M431.974 361.829C463.126 361.829 488.379 336.61 488.379 305.501C488.379 274.392 463.126 249.173 431.974 249.173C400.823 249.173 375.57 274.392 375.57 305.501C375.57 336.61 400.823 361.829 431.974 361.829Z" fill="#262324"/>
</svg>