<svg width="960" height="960" viewBox="0 0 960 960" fill="none" xmlns="http://www.w3.org/2000/svg">
<g clip-path="url(#clip0_1279_4658)">
<rect width="960" height="960" fill="#F3EADB"/>
<rect x="600" y="447" width="360" height="513" fill="#E4DD1C"/>
<rect x="365" width="232" height="106" fill="#2891B2"/>
<rect x="365" y="105" width="232" height="119" fill="#F38EA1"/>
<rect x="725" width="240" height="150" fill="#E4DD1C"/>
<rect x="589" width="136" height="224" fill="#E52323"/>
<rect x="357" y="224" width="368" height="266" fill="#00A86B"/>
<rect x="357" y="490" width="243" height="141" fill="#262324"/>
<rect x="-48" y="631" width="648" height="329" fill="#2891B2"/>
<rect x="-48" y="631" width="294" height="72" fill="#262324"/>
<rect x="861" y="150" width="99" height="297" fill="#E37428"/>
<path d="M356.5 105.5V224V490V630.5H295.5H147H89H68H-1V-4H356.5V105.5Z" fill="#E52323" stroke="#262324" stroke-width="2"/>
<path d="M357 0C357 197.166 197.166 357 0 357L0 0L357 0Z" fill="#E37428" stroke="#262324" stroke-width="2"/>
<path d="M234 0C234 129.235 129.235 234 0 234L0 0L234 0Z" fill="#E4DD1C" stroke="#262324" stroke-width="2"/>
<path d="M733.88 696.549C725.101 707.928 710.685 707.63 702.885 706.446C702.686 706.414 702.483 706.402 702.284 706.402H698.083C698.048 705.326 698 704.254 698 703.173C698 664.294 721.863 629.002 757.667 614.474V591H829.268V614.473C861.03 627.364 883.354 656.601 888 690.179L885.916 689.043C870.052 681.936 853.652 674.594 834.411 692.383C824.407 702.404 818.297 701.025 798.818 691.498C777.313 678.377 754.569 669.906 733.88 696.549Z" fill="#2891B2" stroke="#262324" stroke-width="2"/>
<path d="M887.865 698.533L881.461 695.018C864.734 687.504 853.567 683.494 839.049 696.973C824.784 711.34 813.28 706.73 794.194 697.325C772.092 683.801 755.38 679.671 739.431 700.288C731.161 711.069 717.635 715.679 701.309 713.268H698C703.549 760.908 743.872 798 792.664 798C845.23 798 888 754.95 888 702.031C888 700.86 887.908 699.7 887.865 698.533Z" fill="#F38EA1" stroke="#262324" stroke-width="2"/>
<rect x="713" y="939" width="160" height="21" fill="#444A8B" stroke="#262324" stroke-width="2"/>
<rect x="748" y="918" width="90" height="21" fill="#262324" stroke="#262324" stroke-width="2"/>
<path d="M728 855H858L838 918H748L728 855Z" fill="#E37428" stroke="#262324" stroke-width="2"/>
<path d="M781.686 819.302L793 807L804.314 819.302C806.551 821.735 808.075 824.834 808.693 828.209C809.31 831.584 808.993 835.082 807.782 838.261C806.571 841.439 804.52 844.157 801.889 846.068C799.258 847.98 796.164 849 793 849C789.836 849 786.742 847.98 784.111 846.068C781.48 844.157 779.429 841.439 778.218 838.261C777.007 835.082 776.69 831.584 777.307 828.209C777.925 824.834 779.449 821.735 781.686 819.302Z" fill="#E52323" stroke="#262324" stroke-width="2"/>
<circle cx="598" cy="1035" r="131" fill="#E52323" stroke="#262324" stroke-width="2"/>
<path d="M725 150H861V198.5V446V490H725V224V198.5V150Z" fill="#D9D9D9"/>
<path d="M725 150H861M725 150V198.5M725 150V121.5M861 150V198.5M861 150H962V116C953.833 112 934.4 107.5 922 121.5C923.333 111.167 921 89 901 83C876 75.5 858.5 93 856 103C855.167 89.5 845.4 62.5 813 62.5C780.6 62.5 772.167 93.1667 772 108.5C769.5 102.333 760.3 90.5 743.5 92.5C726.7 94.5 724.167 112.667 725 121.5M861 490H725M861 490L813.5 553.5M861 490V446M725 490L772 553.5M725 490V224M813.5 553.5H772M813.5 553.5V559.5M772 553.5V591.5H782.5M782.5 591.5H802.5M782.5 591.5V729M802.5 591.5H813.5V582.5M802.5 591.5V729M802.5 729V764.5H782.5V729M802.5 729H782.5M861 198.5H808V279H780V198.5H725M861 198.5V446M725 198.5V224M589.5 -4H725V121.5M589.5 -4H356.5V105.5M589.5 -4V105.5M589.5 224H725M589.5 224H356.5M589.5 224V105.5M356.5 224V105.5M356.5 224V490M589.5 105.5H356.5M356.5 630.5H593M356.5 630.5H295.5M356.5 630.5V490M861 446H962M147 630.5H89M68 630.5H-1M356.5 490H470M813.5 582.5H921C932.046 582.5 941 591.454 941 602.5V627.5M813.5 582.5V559.5M941 627.5H965M941 627.5H923.5V968.5H965V627.5M965 627.5V603.5C965 579.199 945.301 559.5 921 559.5H813.5" stroke="#262324" stroke-width="2"/>
<path d="M772 553.5H813.5V559.5V582.5V591.5H802.5H782.5H772V553.5Z" fill="#262324" stroke="#262324" stroke-width="2"/>
<path d="M965 627.5H941H923.5V968.5H965V627.5Z" fill="#E37428" stroke="#262324" stroke-width="2"/>
<path d="M921 582.5H813.5V559.5H921C945.301 559.5 965 579.199 965 603.5V627.5H941V602.5C941 591.454 932.046 582.5 921 582.5Z" fill="#E52323"/>
<path d="M813.5 553.5V559.5M802.5 591.5H813.5V582.5M813.5 582.5H921C932.046 582.5 941 591.454 941 602.5V627.5M813.5 582.5V559.5M941 627.5H965V603.5C965 579.199 945.301 559.5 921 559.5H813.5M941 627.5H923.5" stroke="#262324" stroke-width="2"/>
<path d="M725 490H861L813.5 553.5H772L725 490Z" fill="#262324"/>
<path d="M813.5 553.5L861 490H725L772 553.5H813.5ZM813.5 553.5V559.5" stroke="#262324" stroke-width="2"/>
<path d="M725 490H861V446V198.5H808V279H780V198.5H725V224V490Z" fill="#F38EA1" stroke="#262324" stroke-width="2"/>
<path d="M861 150H725V198.5H780V279H808V198.5H861V150Z" fill="#2891B2" stroke="#262324" stroke-width="2"/>
<path d="M861.002 150H725.002V121.5C724.168 112.667 726.702 94.5 743.502 92.5C760.302 90.5 769.502 102.333 772.002 108.5C772.168 93.1667 780.602 62.5 813.002 62.5C845.402 62.5 855.168 89.5 856.002 103C858.502 93 876.002 75.5 901.002 83C921.002 89 923.335 111.167 922.002 121.5C934.402 107.5 953.835 112 962.002 116V150H861.002Z" fill="white" stroke="#262324" stroke-width="2"/>
<path d="M506.081 362H357.152V330.731C356.239 321.04 359.013 301.109 377.41 298.914C395.808 296.72 405.882 309.703 408.62 316.469C408.802 299.646 418.037 266 453.518 266C488.998 266 499.693 295.623 500.606 310.434C503.343 299.463 522.507 280.263 549.884 288.491C571.785 295.074 574.34 319.394 572.88 330.731C586.459 315.371 607.74 320.309 616.683 324.697C623.789 328.267 638 340.724 638 362H616.683H506.081Z" fill="#E4DD1C" stroke="#262324" stroke-width="2"/>
<path d="M475 224C475 158.83 422.17 106 357 106V224H475Z" fill="#262324" stroke="#262324" stroke-width="2"/>
<path d="M427 224C427 262.66 395.66 294 357 294V224H427Z" fill="#F38EA1" stroke="#262324" stroke-width="2"/>
<path d="M357 294C318.34 294 287 262.66 287 224L357 224L357 294Z" fill="#E4DD1C" stroke="#262324" stroke-width="2"/>
<path d="M191 0C191 105.486 105.486 191 0 191L0 0L191 0Z" fill="#F38EA1" stroke="#262324" stroke-width="2"/>
<path d="M357 105C414.99 105 462 57.9899 462 0L357 -4.5897e-06L357 105Z" fill="#00A86B" stroke="#262324" stroke-width="2"/>
<circle cx="597.5" cy="499.5" r="127.5" fill="#E37428" stroke="#262324" stroke-width="2"/>
<circle cx="597.5" cy="499.5" r="52.5" fill="#E52323" stroke="#262324" stroke-width="2"/>
<circle cx="597.5" cy="499.5" r="35.5" fill="#E4DD1C" stroke="#262324" stroke-width="2"/>
<path d="M154 702.5H290H324.5L305.5 730L337.921 840L375.5 967.5H69L106.042 840L138 730L118.5 702.5H154Z" fill="#00A86B"/>
<path d="M305.5 730L324.5 702.5H290H154H118.5M305.5 730H138M305.5 730L337.921 840M138 730L118.5 702.5M138 730L106.042 840M118.5 702.5H-1M337.921 840L375.5 967.5H69L106.042 840M337.921 840H106.042" stroke="#262324" stroke-width="2"/>
<path d="M154 702.5H290H324.5L305.5 730H138L118.5 702.5H154Z" fill="#E37428" stroke="#262324" stroke-width="2"/>
<path d="M138.001 730H305.501L337.922 840H106.043L138.001 730Z" fill="#E37428" stroke="#262324" stroke-width="2"/>
<path d="M375.5 967.5H69L106.042 840H337.921L375.5 967.5Z" fill="#E4DD1C" stroke="#262324" stroke-width="2"/>
<path fill-rule="evenodd" clip-rule="evenodd" d="M591 627H605V690.957C620.144 660.662 653.166 653.903 672 655.136C672 712.3 631.32 727.795 605 728.931V786.687C622.061 749.009 662.308 740.686 685 742.158C685 809.595 635.817 827.132 605 827.968V849H591V827.999C560.704 827.852 510 811.022 510 742.158C533.331 740.627 575.431 749.689 591 791.344V728.989C565.14 728.533 523 713.709 523 655.136C542.412 653.848 577.102 661.281 591 695.158V627Z" fill="#00A86B"/>
<path d="M605 627H606V626H605V627ZM591 627V626H590V627H591ZM605 690.957H604L605.894 691.404L605 690.957ZM672 655.136H673V654.2L672.065 654.139L672 655.136ZM605 728.931L604.957 727.932L604 727.973V728.931H605ZM605 786.687H604L605.911 787.099L605 786.687ZM685 742.158H686V741.221L685.065 741.161L685 742.158ZM605 827.968L604.973 826.968L604 826.995V827.968H605ZM605 849V850H606V849H605ZM591 849H590V850H591V849ZM591 827.999H592V827.004L591.005 826.999L591 827.999ZM510 742.158L509.935 741.161L509 741.222V742.158H510ZM591 791.344L590.063 791.694L592 791.344H591ZM591 728.989H592V728.007L591.018 727.989L591 728.989ZM523 655.136L522.934 654.139L522 654.201V655.136H523ZM591 695.158L590.075 695.537L592 695.158H591ZM605 626H591V628H605V626ZM606 690.957V627H604V690.957H606ZM672.065 654.139C653.036 652.892 619.507 659.701 604.106 690.51L605.894 691.404C620.782 661.623 653.297 654.913 671.935 656.134L672.065 654.139ZM605.043 729.93C618.352 729.355 635.334 725.153 649.008 713.814C662.721 702.443 673 683.984 673 655.136H671C671 683.452 660.939 701.322 647.732 712.274C634.486 723.258 617.968 727.37 604.957 727.932L605.043 729.93ZM606 786.687V728.931H604V786.687H606ZM685.065 741.161C662.18 739.676 621.398 748.048 604.089 786.274L605.911 787.099C622.723 749.97 662.436 741.697 684.935 743.156L685.065 741.161ZM605.027 828.968C620.584 828.546 640.816 823.911 657.181 810.819C673.588 797.693 686 776.151 686 742.158H684C684 775.602 671.821 796.546 655.932 809.257C640.001 822.002 620.233 826.554 604.973 826.968L605.027 828.968ZM606 849V827.968H604V849H606ZM591 850H605V848H591V850ZM590 827.999V849H592V827.999H590ZM591.005 826.999C576.01 826.926 555.995 822.72 539.754 810.058C523.557 797.432 511 776.312 511 742.158H509C509 776.868 521.795 798.595 538.524 811.636C555.208 824.642 575.694 828.925 590.995 828.999L591.005 826.999ZM510.065 743.156C533.193 741.639 574.718 750.639 590.063 791.694L591.937 790.994C576.143 748.74 533.468 739.616 509.935 741.161L510.065 743.156ZM590 728.989V791.344H592V728.989H590ZM522 655.136C522 684.692 532.647 703.341 546.675 714.635C560.662 725.896 577.898 729.758 590.982 729.989L591.018 727.989C578.242 727.764 561.478 723.986 547.93 713.077C534.423 702.202 524 684.153 524 655.136H522ZM591.925 694.778C577.793 660.331 542.554 652.836 522.934 654.139L523.066 656.134C542.271 654.859 576.411 662.231 590.075 695.537L591.925 694.778ZM590 627V695.158H592V627H590Z" fill="#262324"/>
<rect x="587" y="849" width="22" height="55" fill="#2891B2" stroke="#262324" stroke-width="2"/>
<circle cx="222" cy="840" r="41" fill="#262324" stroke="#262324" stroke-width="2"/>
<circle cx="295" cy="926" r="59" fill="#2891B2" stroke="#262324" stroke-width="2"/>
<path d="M127.5 756.5C68.9578 756.5 21.5 803.958 21.5 862.5C21.5 901.158 42.194 934.982 73.1086 953.5L65 975.375C25.3416 953.369 -1.5 911.069 -1.5 862.5C-1.5 791.255 56.2553 733.5 127.5 733.5C130.695 733.5 133.863 733.616 137 733.844L130.5 756.542C129.503 756.514 128.503 756.5 127.5 756.5Z" fill="#E37428" stroke="#262324" stroke-width="2"/>
<path d="M115.392 439H0.117424V414.897C-0.588915 407.427 1.55835 392.063 15.7981 390.371C30.0379 388.68 37.8359 398.688 39.9549 403.903C40.0962 390.935 47.2443 365 74.7067 365C102.169 365 110.447 387.834 111.154 399.251C113.273 390.794 128.106 375.994 149.296 382.337C166.248 387.411 168.226 406.158 167.096 414.897C177.606 403.057 194.078 406.863 201 410.246C206.5 412.997 217.5 422.6 217.5 439H201H115.392Z" fill="#262324" stroke="#262324" stroke-width="2"/>
<path d="M366.5 693H73C64.7157 693 58 686.284 58 678V649.5C58 636.797 68.2975 626.5 81 626.5H98.75C101.649 626.5 104 624.149 104 621.25C104 618.351 101.649 616 98.75 616H75.75C60.148 616 47.5 628.648 47.5 644.25V676.5C47.5 690.583 58.9167 702 73 702H366.5C368.985 702 371 699.985 371 697.5C371 695.015 368.985 693 366.5 693Z" fill="#00A86B" stroke="#262324" stroke-width="2"/>
<path d="M73 495H98H103.5H154.5H222.5H287.5H351H371L339.409 564.5L281 693H257H231.5H214.5H206.75H199H181H163L118.227 594.5L88 528L77.0909 504L73 495Z" fill="#E4DD1C"/>
<path d="M281 693L339.409 564.5M281 693C279 666 287.5 647 297.5 596.5C305.5 556.1 294.167 512 287.5 495M281 693H257M181 693H199H206.75M181 693H163L118.227 594.5L88 528M181 693C172 685.5 161 667 141 614C125 571.6 99 539 88 528M351 495H371L339.409 564.5M351 495C351.152 509.333 349.045 543.3 339.409 564.5M351 495H287.5M287.5 495H222.5M257 693C254.333 686.333 250.6 660.1 257 608.5C263.4 556.9 236.667 511.333 222.5 495M257 693H231.5M222.5 495H154.5M154.5 495H103.5H98M154.5 495C174.167 511.167 214.4 556.9 218 610.5C221.6 664.1 228.5 687.833 231.5 693M231.5 693H214.5H206.75M98 495H73L77.0909 504L88 528M98 495C116.833 511.167 158 553.7 172 594.5C189.5 645.5 190.5 677 206.75 693" stroke="#262324" stroke-width="2"/>
</g>
<rect x="1" y="1" width="958" height="958" stroke="#262324" stroke-width="2"/>
<defs>
<clipPath id="clip0_1279_4658">
<rect width="960" height="960" fill="white"/>
</clipPath>
</defs>
</svg>
