<svg width="960" height="250" viewBox="0 0 960 250" fill="none" xmlns="http://www.w3.org/2000/svg">
<g clip-path="url(#clip0_331_1198)">
<path d="M416.226 208.323C416.225 185.306 397.641 166.647 374.716 166.647C351.79 166.647 333.206 185.306 333.206 208.323C333.206 231.341 351.79 250 374.716 250C397.641 250 416.226 231.341 416.226 208.323Z" fill="white" fill-opacity="0.1"/>
<path d="M166.04 83.2933C166.04 105.4 157.293 126.601 141.724 142.233C126.154 157.865 105.038 166.646 83.0198 166.646C61.0015 166.646 39.8851 157.865 24.3159 142.233C8.7467 126.601 -2.67717e-06 105.4 -3.64348e-06 83.2933" fill="white" fill-opacity="0.4"/>
<path d="M166.04 -0.0592495C166.04 22.0474 157.293 43.2486 141.724 58.8804C126.154 74.5121 105.038 83.2939 83.0198 83.2939C61.0015 83.2939 39.8851 74.5121 24.3159 58.8804C8.7467 43.2486 -2.67717e-06 22.0474 -3.64348e-06 -0.0592422" fill="white" fill-opacity="0.2"/>
<path d="M166.039 250C188.058 250 209.174 241.218 224.743 225.586C240.313 209.955 249.059 188.753 249.059 166.647C249.059 144.54 240.313 123.339 224.743 107.707C209.174 92.0755 188.058 83.2936 166.039 83.2936L166.039 250Z" fill="white" fill-opacity="0.6"/>
<path d="M498 250C475.982 250 454.865 241.218 439.296 225.586C423.727 209.955 414.98 188.753 414.98 166.647C414.98 144.54 423.727 123.339 439.296 107.707C454.865 92.0755 475.982 83.2936 498 83.2936" fill="white" fill-opacity="0.6"/>
<path d="M414.684 166.646C392.666 166.646 371.549 157.865 355.98 142.233C340.411 126.601 331.664 105.4 331.664 83.2933C331.664 61.1867 340.411 39.9854 355.98 24.3537C371.549 8.72194 392.666 -0.0598934 414.684 -0.0598944" fill="white" fill-opacity="0.4"/>
<path d="M166.02 208.323C166.02 185.306 147.435 166.647 124.51 166.647C101.585 166.647 83 185.306 83 208.323C83 231.341 101.585 250 124.51 250C147.435 250 166.02 231.341 166.02 208.323Z" fill="white" fill-opacity="0.4"/>
<path d="M249.059 83.2939C238.05 83.2939 227.492 78.903 219.707 71.0872C211.923 63.2713 207.549 52.6707 207.549 41.6174C207.549 30.564 211.923 19.9634 219.707 12.1475C227.492 4.33167 238.05 -0.0592436 249.059 -0.0592441" fill="white" fill-opacity="0.4"/>
<path d="M166.039 83.2939C177.049 83.2939 187.607 78.903 195.391 71.0872C203.176 63.2713 207.549 52.6707 207.549 41.6173C207.549 30.564 203.176 19.9634 195.391 12.1475C187.607 4.33167 177.049 -0.0592427 166.039 -0.0592422L166.039 83.2939Z" fill="white" fill-opacity="0.2"/>
<path d="M498 -0.0594099C498 10.9939 493.627 21.5945 485.842 29.4104C478.057 37.2263 467.499 41.6172 456.49 41.6172C445.481 41.6172 434.923 37.2263 427.138 29.4104C419.353 21.5945 414.98 10.9939 414.98 -0.0594063" fill="white" fill-opacity="0.1"/>
<path d="M498 83.2939C498 72.2406 493.627 61.64 485.842 53.8241C478.057 46.0083 467.499 41.6173 456.49 41.6173C445.481 41.6174 434.923 46.0083 427.138 53.8241C419.354 61.64 414.98 72.2406 414.98 83.2939" fill="white" fill-opacity="0.4"/>
<path d="M332.613 208.323C332.613 219.377 328.239 229.977 320.455 237.793C312.67 245.609 302.112 250 291.103 250C280.094 250 269.536 245.609 261.751 237.793C253.966 229.977 249.593 219.377 249.593 208.323" fill="white" fill-opacity="0.6"/>
<path d="M332.613 166.647C332.613 177.7 328.239 188.301 320.455 196.116C312.67 203.932 302.112 208.323 291.103 208.323C280.094 208.323 269.536 203.932 261.751 196.116C253.966 188.301 249.593 177.7 249.593 166.647" fill="white" fill-opacity="0.4"/>
<path d="M83.336 250C72.3269 250 61.7687 245.609 53.9841 237.793C46.1995 229.977 41.8262 219.377 41.8262 208.323C41.8262 197.27 46.1995 186.669 53.9841 178.854C61.7687 171.038 72.3269 166.647 83.336 166.647L83.336 250Z" fill="white" fill-opacity="0.2"/>
<path d="M0.33606 250C11.3452 250 21.9034 245.609 29.688 237.793C37.4726 229.977 41.8459 219.377 41.8459 208.323C41.8459 197.27 37.4726 186.669 29.688 178.854C21.9034 171.038 11.3452 166.647 0.336056 166.647" fill="white" fill-opacity="0.1"/>
<path d="M332.02 124.99C332.02 101.973 313.435 83.3138 290.51 83.3138C267.585 83.3138 249 101.973 249 124.99C249 148.008 267.585 166.667 290.51 166.667C313.435 166.667 332.02 148.008 332.02 124.99Z" fill="white" fill-opacity="0.2"/>
<path d="M332.02 41.6964C332.02 18.6791 313.435 0.0198565 290.51 0.0198575C267.585 0.0198585 249 18.6791 249 41.6965C249 64.7138 267.585 83.373 290.51 83.373C313.435 83.373 332.02 64.7138 332.02 41.6964Z" fill="white" fill-opacity="0.6"/>
</g>
<g clip-path="url(#clip1_331_1198)">
<path d="M914.226 208.323C914.225 185.306 895.641 166.647 872.716 166.647C849.79 166.647 831.206 185.306 831.206 208.323C831.206 231.341 849.79 250 872.716 250C895.641 250 914.226 231.341 914.226 208.323Z" fill="white" fill-opacity="0.1"/>
<path d="M664.04 83.2933C664.04 105.4 655.293 126.601 639.724 142.233C624.154 157.865 603.038 166.646 581.02 166.646C559.002 166.646 537.885 157.865 522.316 142.233C506.747 126.601 498 105.4 498 83.2933" fill="white" fill-opacity="0.4"/>
<path d="M664.039 -0.0592495C664.039 22.0474 655.293 43.2486 639.724 58.8804C624.154 74.5121 603.038 83.2939 581.02 83.2939C559.002 83.2939 537.885 74.5121 522.316 58.8804C506.747 43.2486 498 22.0474 498 -0.0592422" fill="white" fill-opacity="0.2"/>
<path d="M664.04 250C686.058 250 707.174 241.218 722.743 225.586C738.313 209.955 747.059 188.753 747.059 166.647C747.059 144.54 738.313 123.339 722.743 107.707C707.174 92.0755 686.058 83.2936 664.039 83.2936L664.04 250Z" fill="white" fill-opacity="0.6"/>
<path d="M996 250C973.982 250 952.865 241.218 937.296 225.586C921.727 209.955 912.98 188.753 912.98 166.647C912.98 144.54 921.727 123.339 937.296 107.707C952.865 92.0755 973.982 83.2936 996 83.2936" fill="white" fill-opacity="0.6"/>
<path d="M912.684 166.646C890.666 166.646 869.549 157.865 853.98 142.233C838.411 126.601 829.664 105.4 829.664 83.2933C829.664 61.1867 838.411 39.9854 853.98 24.3537C869.549 8.72194 890.666 -0.0598934 912.684 -0.0598944" fill="white" fill-opacity="0.4"/>
<path d="M664.02 208.323C664.02 185.306 645.435 166.647 622.51 166.647C599.585 166.647 581 185.306 581 208.323C581 231.341 599.585 250 622.51 250C645.435 250 664.02 231.341 664.02 208.323Z" fill="white" fill-opacity="0.4"/>
<path d="M747.059 83.2939C736.05 83.2939 725.492 78.903 717.707 71.0872C709.923 63.2713 705.549 52.6707 705.549 41.6174C705.549 30.564 709.923 19.9634 717.707 12.1475C725.492 4.33167 736.05 -0.0592436 747.059 -0.0592441" fill="white" fill-opacity="0.4"/>
<path d="M664.039 83.2939C675.049 83.2939 685.607 78.903 693.391 71.0872C701.176 63.2713 705.549 52.6707 705.549 41.6173C705.549 30.564 701.176 19.9634 693.391 12.1475C685.607 4.33167 675.049 -0.0592427 664.039 -0.0592422L664.039 83.2939Z" fill="white" fill-opacity="0.2"/>
<path d="M996 -0.0594099C996 10.9939 991.627 21.5945 983.842 29.4104C976.057 37.2263 965.499 41.6172 954.49 41.6172C943.481 41.6172 932.923 37.2263 925.138 29.4104C917.354 21.5945 912.98 10.9939 912.98 -0.0594063" fill="white" fill-opacity="0.1"/>
<path d="M996 83.2939C996 72.2406 991.627 61.64 983.842 53.8241C976.057 46.0083 965.499 41.6173 954.49 41.6173C943.481 41.6174 932.923 46.0083 925.138 53.8241C917.354 61.64 912.98 72.2406 912.98 83.2939" fill="white" fill-opacity="0.4"/>
<path d="M830.613 208.323C830.613 219.377 826.239 229.977 818.455 237.793C810.67 245.609 800.112 250 789.103 250C778.094 250 767.536 245.609 759.751 237.793C751.966 229.977 747.593 219.377 747.593 208.323" fill="white" fill-opacity="0.6"/>
<path d="M830.613 166.647C830.613 177.7 826.239 188.301 818.455 196.116C810.67 203.932 800.112 208.323 789.103 208.323C778.094 208.323 767.536 203.932 759.751 196.116C751.966 188.301 747.593 177.7 747.593 166.647" fill="white" fill-opacity="0.4"/>
<path d="M581.336 250C570.327 250 559.769 245.609 551.984 237.793C544.199 229.977 539.826 219.377 539.826 208.323C539.826 197.27 544.199 186.669 551.984 178.854C559.769 171.038 570.327 166.647 581.336 166.647L581.336 250Z" fill="white" fill-opacity="0.2"/>
<path d="M498.336 250C509.345 250 519.903 245.609 527.688 237.793C535.473 229.977 539.846 219.377 539.846 208.323C539.846 197.27 535.473 186.669 527.688 178.854C519.903 171.038 509.345 166.647 498.336 166.647" fill="white" fill-opacity="0.1"/>
<path d="M830.02 124.99C830.02 101.973 811.435 83.3138 788.51 83.3138C765.585 83.3138 747 101.973 747 124.99C747 148.008 765.585 166.667 788.51 166.667C811.435 166.667 830.02 148.008 830.02 124.99Z" fill="white" fill-opacity="0.2"/>
<path d="M830.02 41.6964C830.02 18.6791 811.435 0.0198565 788.51 0.0198575C765.585 0.0198585 747 18.6791 747 41.6965C747 64.7138 765.585 83.373 788.51 83.373C811.435 83.373 830.02 64.7138 830.02 41.6964Z" fill="white" fill-opacity="0.6"/>
</g>
<defs>
<clipPath id="clip0_331_1198">
<rect width="250" height="498" fill="white" transform="translate(0 250) rotate(-90)"/>
</clipPath>
<clipPath id="clip1_331_1198">
<rect width="250" height="498" fill="white" transform="translate(498 250) rotate(-90)"/>
</clipPath>
</defs>
</svg>
