<svg xmlns="http://www.w3.org/2000/svg" width="960" height="322" viewBox="0 0 960 322" fill="none">
<g clip-path="url(#clip0_367_1962)">
<path d="M374.521 268.322C374.521 238.676 350.584 214.643 321.057 214.643C291.529 214.643 267.592 238.676 267.592 268.323C267.592 297.969 291.529 322.002 321.057 322.002C350.584 322.002 374.521 297.969 374.521 268.322Z" fill="white" fill-opacity="0.1"/>
<path d="M52.2827 107.284C52.2827 135.757 41.017 163.064 20.9638 183.198C0.910644 203.332 -26.2873 214.643 -54.6467 214.643C-83.0062 214.643 -110.204 203.332 -130.257 183.198C-150.31 163.064 -161.576 135.757 -161.576 107.284" fill="white" fill-opacity="0.4"/>
<path d="M52.2827 -0.0757082C52.2827 28.3976 41.017 55.7048 20.9638 75.8385C0.910644 95.9722 -26.2873 107.283 -54.6467 107.283C-83.0062 107.283 -110.204 95.9722 -130.257 75.8385C-150.31 55.7048 -161.576 28.3977 -161.576 -0.0756989" fill="white" fill-opacity="0.2"/>
<path d="M52.2832 322.002C80.6427 322.002 107.841 310.691 127.894 290.557C147.947 270.424 159.213 243.116 159.213 214.643C159.213 186.17 147.947 158.863 127.894 138.729C107.841 118.595 80.6426 107.284 52.2832 107.284L52.2832 322.002Z" fill="white" fill-opacity="0.6"/>
<path d="M479.849 322.002C451.49 322.002 424.292 310.691 404.239 290.557C384.186 270.424 372.92 243.116 372.92 214.643C372.92 186.17 384.186 158.863 404.239 138.729C424.292 118.595 451.49 107.284 479.849 107.284" fill="white" fill-opacity="0.6"/>
<path d="M372.535 214.643C344.175 214.643 316.978 203.332 296.924 183.198C276.871 163.064 265.605 135.757 265.605 107.284C265.605 78.8103 276.871 51.5032 296.924 31.3695C316.978 11.2358 344.175 -0.0752293 372.535 -0.0752305" fill="white" fill-opacity="0.4"/>
<path d="M52.2556 268.322C52.2556 238.676 28.3186 214.643 -1.20911 214.643C-30.7369 214.643 -54.6738 238.676 -54.6738 268.323C-54.6738 297.969 -30.7369 322.002 -1.20911 322.002C28.3186 322.002 52.2556 297.969 52.2556 268.322Z" fill="white" fill-opacity="0.4"/>
<path d="M159.211 107.283C145.031 107.283 131.432 101.628 121.406 91.5609C111.379 81.494 105.746 67.8404 105.746 53.6038C105.746 39.3671 111.379 25.7135 121.406 15.6467C131.432 5.57979 145.031 -0.0757006 159.211 -0.0757012" fill="white" fill-opacity="0.4"/>
<path d="M52.2832 107.283C66.4629 107.283 80.0619 101.628 90.0885 91.5609C100.115 81.494 105.748 67.8404 105.748 53.6037C105.748 39.3671 100.115 25.7135 90.0885 15.6467C80.0619 5.57979 66.4629 -0.0756995 52.2832 -0.0756989L52.2832 107.283Z" fill="white" fill-opacity="0.2"/>
<path d="M479.849 -0.0739869C479.849 14.1627 474.216 27.8163 464.19 37.8831C454.163 47.95 440.564 53.6055 426.385 53.6055C412.205 53.6055 398.606 47.95 388.579 37.8831C378.553 27.8163 372.92 14.1627 372.92 -0.0739822" fill="white" fill-opacity="0.1"/>
<path d="M479.849 107.283C479.849 93.0465 474.216 79.3929 464.19 69.3261C454.163 59.2592 440.564 53.6037 426.385 53.6037C412.205 53.6038 398.606 59.2592 388.579 69.3261C378.553 79.3929 372.92 93.0465 372.92 107.283" fill="white" fill-opacity="0.4"/>
<path d="M266.83 268.322C266.83 282.559 261.197 296.213 251.17 306.28C241.144 316.346 227.545 322.002 213.365 322.002C199.185 322.002 185.586 316.346 175.56 306.28C165.533 296.213 159.9 282.559 159.9 268.323" fill="white" fill-opacity="0.6"/>
<path d="M266.83 214.642C266.83 228.879 261.197 242.532 251.17 252.599C241.144 262.666 227.545 268.321 213.365 268.321C199.185 268.321 185.586 262.666 175.56 252.599C165.533 242.532 159.9 228.879 159.9 214.642" fill="white" fill-opacity="0.4"/>
<path d="M266.064 160.989C266.064 131.342 242.127 107.309 212.599 107.309C183.072 107.309 159.135 131.342 159.135 160.989C159.135 190.635 183.072 214.668 212.599 214.668C242.127 214.668 266.064 190.635 266.064 160.989Z" fill="white" fill-opacity="0.2"/>
<path d="M266.064 53.7063C266.064 24.0599 242.127 0.0268366 212.599 0.0268379C183.072 0.0268392 159.135 24.06 159.135 53.7063C159.135 83.3526 183.072 107.386 212.599 107.386C242.127 107.386 266.064 83.3526 266.064 53.7063Z" fill="white" fill-opacity="0.6"/>
</g>
<g clip-path="url(#clip1_367_1962)">
<path d="M1015.95 268.322C1015.95 238.676 992.008 214.643 962.48 214.643C932.953 214.643 909.016 238.676 909.016 268.323C909.016 297.969 932.953 322.002 962.48 322.002C992.008 322.002 1015.95 297.969 1015.95 268.322Z" fill="white" fill-opacity="0.1"/>
<path d="M693.707 107.284C693.707 135.757 682.441 163.064 662.388 183.198C642.334 203.332 615.137 214.643 586.777 214.643C558.418 214.643 531.22 203.332 511.167 183.198C491.113 163.064 479.848 135.757 479.848 107.284" fill="white" fill-opacity="0.4"/>
<path d="M693.707 -0.0757082C693.707 28.3976 682.441 55.7048 662.388 75.8385C642.334 95.9722 615.137 107.283 586.777 107.283C558.418 107.283 531.22 95.9722 511.167 75.8385C491.113 55.7048 479.848 28.3977 479.848 -0.0756989" fill="white" fill-opacity="0.2"/>
<path d="M693.709 322.002C722.068 322.002 749.266 310.691 769.32 290.557C789.373 270.424 800.638 243.116 800.638 214.643C800.638 186.17 789.373 158.863 769.32 138.729C749.266 118.595 722.068 107.284 693.709 107.284L693.709 322.002Z" fill="white" fill-opacity="0.6"/>
<path d="M1013.96 214.643C985.599 214.643 958.401 203.332 938.348 183.198C918.295 163.064 907.029 135.757 907.029 107.284C907.029 78.8103 918.295 51.5032 938.348 31.3695C958.401 11.2358 985.599 -0.0752293 1013.96 -0.0752305" fill="white" fill-opacity="0.4"/>
<path d="M693.679 268.322C693.679 238.676 669.742 214.643 640.215 214.643C610.687 214.643 586.75 238.676 586.75 268.323C586.75 297.969 610.687 322.002 640.215 322.002C669.742 322.002 693.679 297.969 693.679 268.322Z" fill="white" fill-opacity="0.4"/>
<path d="M800.635 107.283C786.455 107.283 772.856 101.628 762.829 91.5609C752.803 81.494 747.17 67.8404 747.17 53.6038C747.17 39.3671 752.803 25.7135 762.829 15.6467C772.856 5.57979 786.455 -0.0757006 800.635 -0.0757012" fill="white" fill-opacity="0.4"/>
<path d="M693.709 107.283C707.889 107.283 721.488 101.628 731.514 91.5609C741.541 81.494 747.174 67.8404 747.174 53.6037C747.174 39.3671 741.541 25.7135 731.514 15.6467C721.488 5.57979 707.889 -0.0756995 693.709 -0.0756989L693.709 107.283Z" fill="white" fill-opacity="0.2"/>
<path d="M908.254 268.322C908.254 282.559 902.621 296.213 892.594 306.28C882.568 316.346 868.969 322.002 854.789 322.002C840.609 322.002 827.01 316.346 816.984 306.28C806.957 296.213 801.324 282.559 801.324 268.323" fill="white" fill-opacity="0.6"/>
<path d="M908.254 214.642C908.254 228.879 902.621 242.532 892.594 252.599C882.568 262.666 868.969 268.321 854.789 268.321C840.609 268.321 827.01 262.666 816.984 252.599C806.957 242.532 801.324 228.879 801.324 214.642" fill="white" fill-opacity="0.4"/>
<path d="M587.185 322.002C573.006 322.002 559.407 316.346 549.38 306.28C539.354 296.213 533.721 282.559 533.721 268.323C533.721 254.086 539.354 240.432 549.38 230.365C559.407 220.299 573.006 214.643 587.185 214.643L587.185 322.002Z" fill="white" fill-opacity="0.2"/>
<path d="M480.281 322.002C494.461 322.002 508.06 316.346 518.087 306.28C528.113 296.213 533.746 282.559 533.746 268.322C533.746 254.086 528.113 240.432 518.087 230.365C508.06 220.299 494.461 214.643 480.281 214.643" fill="white" fill-opacity="0.1"/>
<path d="M907.49 160.989C907.49 131.342 883.553 107.309 854.025 107.309C824.498 107.309 800.561 131.342 800.561 160.989C800.561 190.635 824.498 214.668 854.025 214.668C883.553 214.668 907.49 190.635 907.49 160.989Z" fill="white" fill-opacity="0.2"/>
<path d="M907.49 53.7063C907.49 24.0599 883.553 0.0268366 854.025 0.0268379C824.498 0.0268392 800.561 24.06 800.561 53.7063C800.561 83.3526 824.498 107.386 854.025 107.386C883.553 107.386 907.49 83.3526 907.49 53.7063Z" fill="white" fill-opacity="0.6"/>
</g>
<defs>
<clipPath id="clip0_367_1962">
<rect width="322" height="641.424" fill="white" transform="translate(-161.576 322) rotate(-90)"/>
</clipPath>
<clipPath id="clip1_367_1962">
<rect width="322" height="641.424" fill="white" transform="translate(479.848 322) rotate(-90)"/>
</clipPath>
</defs>
</svg>