<svg width="419" height="502" viewBox="0 0 419 502" fill="none" xmlns="http://www.w3.org/2000/svg">
<g clip-path="url(#clip0_927_2254)">
<rect x="1" y="1" width="417" height="500" fill="#E37428"/>
<rect x="-165.664" y="84.333" width="166.667" height="83.3333" fill="#444A8B" stroke="#151515" stroke-width="2"/>
<rect x="-165.664" y="1" width="166.667" height="83.3333" fill="#F38EA1" stroke="#151515" stroke-width="2"/>
<rect x="-165.664" y="334.333" width="166.667" height="166.667" rx="83.3333" fill="#C3222B" stroke="#151515" stroke-width="2"/>
<rect x="-82.332" y="334.333" width="166.667" height="166.667" rx="83.3333" fill="#C3222B" stroke="#151515" stroke-width="2"/>
<rect x="334.336" y="1" width="166.667" height="83.3333" fill="#00A86B" stroke="#151515" stroke-width="2"/>
<rect x="-165.664" y="1" width="166.667" height="83.3333" rx="41.6667" fill="#E37428" stroke="#151515" stroke-width="2"/>
<rect x="417.668" y="417.667" width="166.667" height="83.3333" rx="41.6667" fill="#262324" stroke="#151515" stroke-width="2"/>
<rect x="1" y="1" width="83.3333" height="166.667" fill="#F38EA1" stroke="#151515" stroke-width="2"/>
<rect x="334.336" y="84.333" width="83.3333" height="166.667" fill="#E37428" stroke="#151515" stroke-width="2"/>
<path d="M334.336 334.333H417.669V251H334.336V319.056" stroke="#151515" stroke-width="2"/>
<path d="M334.336 292.667C334.336 269.655 352.991 251 376.003 251H417.669V334.333H376.003C352.991 334.333 334.336 315.679 334.336 292.667Z" fill="#C3222B" stroke="#151515" stroke-width="2"/>
<path d="M1 1H84.3333C84.3333 24.0119 65.6785 42.6667 42.6667 42.6667C19.6548 42.6667 1 24.0119 1 1Z" fill="#C3222B" stroke="#151515" stroke-width="2"/>
<path d="M334.336 84.333H417.669C417.669 107.345 399.014 126 376.003 126C352.991 126 334.336 107.345 334.336 84.333Z" fill="#C3222B" stroke="#151515" stroke-width="2"/>
<path d="M84.3359 167.667L1.0026 167.667C1.0026 144.655 19.6574 126 42.6693 126C65.6811 126 84.3359 144.655 84.3359 167.667Z" fill="#C3222B" stroke="#151515" stroke-width="2"/>
<path d="M417.668 251L334.335 251C334.335 227.988 352.989 209.333 376.001 209.333C399.013 209.333 417.668 227.988 417.668 251Z" fill="#C3222B" stroke="#151515" stroke-width="2"/>
<path d="M84.3359 84.3333C84.3359 107.345 65.6811 126 42.6693 126C19.6574 126 1.0026 107.345 1.00261 84.3333C1.00261 61.3215 19.6574 42.6667 42.6693 42.6667C65.6811 42.6667 84.3359 61.3215 84.3359 84.3333Z" fill="#00A86B"/>
<path d="M1.00261 84.3333V84.3333C1.0026 107.345 19.6574 126 42.6693 126V126M1.00261 84.3333V84.3333C1.00261 61.3215 19.6574 42.6667 42.6693 42.6667V42.6667C65.6811 42.6667 84.3359 61.3215 84.3359 84.3333V84.3333M1.00261 84.3333C14.8915 84.6806 42.6693 93.5 42.6693 126M42.6693 126V126C65.6811 126 84.3359 107.345 84.3359 84.3333V84.3333M42.6693 126C42.2063 112.111 49.8915 84.3333 84.3359 84.3333" stroke="#151515" stroke-width="2"/>
<path d="M417.668 167.666C417.668 190.678 399.013 209.333 376.001 209.333C352.989 209.333 334.335 190.678 334.335 167.666C334.335 144.654 352.989 126 376.001 126C399.013 126 417.668 144.654 417.668 167.666Z" fill="#00A86B"/>
<path d="M334.335 167.666V167.666C334.335 190.678 352.989 209.333 376.001 209.333V209.333M334.335 167.666V167.666C334.335 144.654 352.989 126 376.001 126V126C399.013 126 417.668 144.654 417.668 167.666V167.666M334.335 167.666C348.224 168.014 376.001 176.833 376.001 209.333M376.001 209.333V209.333C399.013 209.333 417.668 190.678 417.668 167.666V167.666M376.001 209.333C375.538 195.444 383.224 167.666 417.668 167.666" stroke="#151515" stroke-width="2"/>
<rect x="84.3359" y="1" width="83.3333" height="166.667" fill="#C3222B" stroke="#151515" stroke-width="2"/>
<rect x="334.336" y="334.333" width="83.3333" height="166.667" fill="#E37428" stroke="#151515" stroke-width="2"/>
<rect x="84.3359" y="1" width="41.6667" height="41.6667" rx="20.8333" fill="#E4DD1C" stroke="#151515" stroke-width="2"/>
<rect x="334.336" y="334.333" width="41.6667" height="41.6667" rx="20.8333" fill="#E4DD1C" stroke="#151515" stroke-width="2"/>
<rect x="278.086" y="39.1943" width="19.4444" height="19.4444" rx="9.72222" fill="#444A8B" stroke="#151515" stroke-width="2"/>
<rect x="167.668" y="1" width="166.667" height="166.667" fill="#444A8B" stroke="#151515" stroke-width="2"/>
<rect x="194.059" y="254.473" width="113.889" height="63.8889" fill="#444A8B" stroke="#151515" stroke-width="2"/>
<path d="M167.668 167.667H334.335V319.056H355.168V334.334H334.335H167.668V319.056V167.667Z" fill="#444A8B"/>
<path d="M167.668 319.056V334.334H334.335H355.168V319.056H334.335M167.668 319.056V167.667H334.335V319.056M167.668 319.056H334.335" stroke="#151515" stroke-width="2"/>
<rect x="167.668" y="334.333" width="166.667" height="166.667" fill="#E4DD1C" stroke="#151515" stroke-width="2"/>
<path d="M251.001 501C204.978 501 167.668 463.691 167.668 417.667H334.335C344.115 417.667 352.043 425.595 352.043 435.375V440.41C352.043 452.971 341.861 463.153 329.3 463.153H320.837C305.965 485.94 280.242 501 251.001 501Z" fill="#F38EA1"/>
<path d="M334.335 417.667H167.668C167.668 463.691 204.978 501 251.001 501C280.242 501 305.965 485.94 320.837 463.153M334.335 417.667C334.335 434.45 329.373 450.074 320.837 463.153M334.335 417.667V417.667C344.115 417.667 352.043 425.595 352.043 435.375V440.41C352.043 452.971 341.861 463.153 329.3 463.153H320.837" stroke="#151515" stroke-width="2"/>
<rect x="-165.664" y="167.667" width="166.667" height="166.667" fill="#E4DD1C" stroke="#151515" stroke-width="2"/>
<path d="M-165.664 167.667C-73.6166 167.667 1.00261 242.286 1.00261 334.334H-82.3307H-165.664V167.667Z" fill="#E37428"/>
<path d="M-165.664 167.667V167.667C-73.6166 167.667 1.00261 242.286 1.00261 334.334V334.334H-82.3307M-165.664 167.667V334.334H-82.3307M-165.664 167.667C-92.3307 206.834 -79.5529 295.098 -82.3307 334.334" stroke="#151515" stroke-width="2"/>
<path d="M1 167.667H42.6667H84.3333V181.209V334.334H42.6667H1V167.667Z" fill="#E4DD1C"/>
<path d="M42.6667 334.334H84.3333V181.209V167.667H42.6667M42.6667 334.334H1V167.667H42.6667M42.6667 334.334V222.875V167.667" stroke="#151515" stroke-width="2"/>
<path d="M42.668 223.82C56.5569 224.857 84.3346 218.011 84.3346 182.327C70.4457 181.405 42.668 188.412 42.668 223.82Z" fill="#00A86B" stroke="#151515" stroke-width="2"/>
<path d="M42.6295 89.8483C48.8488 84.4934 57.5704 70.0665 42.7019 55.198C36.5306 60.6009 27.8763 75.095 42.6295 89.8483Z" fill="#E4DD1C" stroke="#151515" stroke-width="2"/>
<path d="M375.962 173.182C382.181 167.827 390.902 153.4 376.034 138.532C369.863 143.935 361.208 158.429 375.962 173.182Z" fill="#E4DD1C" stroke="#151515" stroke-width="2"/>
<path d="M42.668 271.737C56.5569 272.774 84.3346 265.928 84.3346 230.244C70.4457 229.322 42.668 236.329 42.668 271.737Z" fill="#00A86B" stroke="#151515" stroke-width="2"/>
<path d="M42.668 319.653C56.5569 320.69 84.3346 313.844 84.3346 278.16C70.4457 277.238 42.668 284.245 42.668 319.653Z" fill="#00A86B" stroke="#151515" stroke-width="2"/>
<path d="M42.668 223.82C28.7791 224.857 1.0013 218.011 1.0013 182.327C14.8902 181.405 42.668 188.412 42.668 223.82Z" fill="#00A86B" stroke="#151515" stroke-width="2"/>
<path d="M42.668 271.737C28.7791 272.774 1.0013 265.928 1.0013 230.244C14.8902 229.322 42.668 236.329 42.668 271.737Z" fill="#00A86B" stroke="#151515" stroke-width="2"/>
<path d="M42.668 319.653C28.7791 320.69 1.0013 313.844 1.0013 278.16C14.8902 277.238 42.668 284.245 42.668 319.653Z" fill="#00A86B" stroke="#151515" stroke-width="2"/>
<rect x="84.3359" y="167.667" width="83.3333" height="83.3333" fill="#C3222B" stroke="#151515" stroke-width="2"/>
<rect x="417.668" y="84.333" width="83.3333" height="83.3333" fill="#444A8B" stroke="#151515" stroke-width="2"/>
<path d="M376.003 1H334.336V42.6667L376.003 1Z" fill="#00A86B" stroke="#151515" stroke-width="2" stroke-linejoin="round"/>
<path d="M417.667 1H376V42.6667L417.667 1Z" fill="#00A86B" stroke="#151515" stroke-width="2" stroke-linejoin="round"/>
<path d="M376.003 42.667H334.336V84.3337L376.003 42.667Z" fill="#00A86B" stroke="#151515" stroke-width="2" stroke-linejoin="round"/>
<path d="M417.667 42.667H376V84.3337L417.667 42.667Z" fill="#00A86B" stroke="#151515" stroke-width="2" stroke-linejoin="round"/>
<path d="M417.667 84.333L501 84.333L501 0.999672L417.667 84.333Z" fill="#00A86B" stroke="#151515" stroke-width="2" stroke-linejoin="round"/>
<rect x="417.668" y="167.667" width="83.3333" height="83.3333" fill="#E37428" stroke="#151515" stroke-width="2"/>
<path d="M417.668 251H430.168H501.001H542.494H583.987H646.835V417.667H599.96H542.494H476.349H417.668V251Z" fill="#F38EA1"/>
<path d="M417.668 251V417.667H476.349M417.668 251H430.168M417.668 251C422.992 255.398 434.265 269.403 436.765 290.236C439.89 316.278 435.724 417.667 476.349 417.667M501.001 251H542.494M501.001 251L484.412 363.153M501.001 251H430.168M476.349 417.667H542.494M476.349 417.667L484.412 363.153M599.96 417.667H646.835V251H583.987M599.96 417.667H542.494M599.96 417.667L597.231 389.194M583.987 251H542.494M583.987 251L584.653 257.944M542.494 251V363.153M542.494 417.667V410.201M542.494 417.667L596.798 384.681M542.494 363.153H484.412M542.494 363.153L591.874 333.292M542.494 363.153V372.528M484.412 363.153C475.243 364.079 458.306 355.813 454.821 315.931C451.696 280.167 437.691 255.977 430.168 251M591.874 333.292L592.672 341.625M591.874 333.292L585.651 268.361M592.672 341.625L542.494 372.528M592.672 341.625L593.438 349.611M542.494 372.528V379.472M542.494 379.472L593.438 349.611M542.494 379.472V386.764M593.438 349.611L594.17 357.25M594.17 357.25L542.494 386.764M594.17 357.25L594.835 364.194M542.494 386.764V393.361M542.494 393.361L594.835 364.194M542.494 393.361V402.736M594.835 364.194L595.501 371.139M595.501 371.139L542.494 402.736M595.501 371.139L595.83 374.574M542.494 402.736V410.201M542.494 410.201L596.133 377.736M596.133 377.736L596.798 384.681M596.133 377.736L595.83 374.574M596.798 384.681L597.231 389.194M584.653 257.944V257.944C614.134 257.944 637.788 282.301 636.924 311.77L636.519 325.603C636.009 342.98 628.637 359.448 616.016 371.402L597.231 389.194M584.653 257.944L585.651 268.361M585.651 268.361V268.361C608.511 268.361 627.043 286.893 627.043 309.753V321.394C627.043 335.459 621.456 348.949 611.51 358.894L595.83 374.574" stroke="#151515" stroke-width="2"/>
<path d="M84.068 334.333H125.869H167.669V398.112V454.472V476.398H84.068V454.472V390.583V334.333Z" fill="#444A8B"/>
<path d="M167.669 476.398H84.068M167.669 476.398V501H59.3359L84.068 476.398M167.669 476.398V454.472M84.068 476.398V454.472M84.068 454.472H167.669M84.068 454.472V390.583M167.669 454.472V398.112M125.869 334.333H84.068V390.583M125.869 334.333H167.669V398.112M125.869 334.333V421.139M125.869 421.139H106.558M125.869 421.139H144.753M84.068 390.583L87.4909 394.006C90.2028 396.718 94.5998 396.718 97.3118 394.006L99.9116 391.406C102.624 388.694 107.021 388.694 109.733 391.406L113.106 394.78C115.818 397.492 120.215 397.492 122.927 394.78L126.3 391.406C129.012 388.694 133.409 388.694 136.121 391.406L138.721 394.006C141.433 396.718 145.83 396.718 148.542 394.006L151.142 391.406C153.854 388.694 158.251 388.694 160.963 391.406L167.669 398.112" stroke="#151515" stroke-width="2"/>
<path d="M84.3359 251H167.669V319.056V334.333H84.3359V319.056V251Z" fill="#F38EA1"/>
<path d="M84.3359 319.056V334.333H167.669V319.056M84.3359 319.056V251H167.669V319.056M84.3359 319.056H126.003M167.669 319.056H126.003M126.003 319.056V302.042" stroke="#151515" stroke-width="2"/>
<path d="M167.668 84.333H334.335C334.335 130.357 297.025 167.666 251.001 167.666C204.978 167.666 167.668 130.357 167.668 84.333Z" fill="#E4DD1C" stroke="#151515" stroke-width="2"/>
<path d="M232.945 84.333H269.056V74.6108C269.056 64.639 260.973 56.5552 251.001 56.5552C241.029 56.5552 232.945 64.639 232.945 74.6108V84.333Z" fill="#E4DD1C" stroke="#151515" stroke-width="2"/>
<path d="M269.059 73.5692H287.461V58.6387" stroke="#151515" stroke-width="2"/>
<path d="M126 21.833L167.667 21.833" stroke="#151515" stroke-width="2"/>
<path d="M376 355.167L417.667 355.167" stroke="#151515" stroke-width="2"/>
<path d="M84.3359 42.667H167.669" stroke="#151515" stroke-width="2"/>
<path d="M334.336 376H417.669" stroke="#151515" stroke-width="2"/>
<path d="M84.3359 63.5H167.669" stroke="#151515" stroke-width="2"/>
<path d="M334.336 396.833H417.669" stroke="#151515" stroke-width="2"/>
<path d="M84.3359 84.333H167.669" stroke="#151515" stroke-width="2"/>
<path d="M334.336 417.667H417.669" stroke="#151515" stroke-width="2"/>
<path d="M222.224 205.861C222.224 213.746 215.831 220.139 207.946 220.139C204.183 220.139 200.762 218.684 198.211 216.306C195.415 213.698 193.668 209.984 193.668 205.861C193.668 197.975 200.06 191.583 207.946 191.583C215.831 191.583 222.224 197.975 222.224 205.861Z" fill="#E37428" stroke="#151515" stroke-width="2"/>
<path d="M265.278 205.861C265.278 213.746 258.886 220.139 251 220.139C243.115 220.139 236.723 213.746 236.723 205.861C236.723 197.975 243.115 191.583 251 191.583C258.886 191.583 265.278 197.975 265.278 205.861Z" fill="#E37428" stroke="#151515" stroke-width="2"/>
<path d="M308.333 205.861C308.333 213.746 301.941 220.139 294.055 220.139C286.17 220.139 279.777 213.746 279.777 205.861C279.777 197.975 286.17 191.583 294.055 191.583C301.941 191.583 308.333 197.975 308.333 205.861Z" fill="#E37428" stroke="#151515" stroke-width="2"/>
<circle cx="216.277" cy="269.75" r="6.25" fill="#E37428" stroke="#151515" stroke-width="2"/>
<circle cx="233.641" cy="269.75" r="6.25" fill="#E37428" stroke="#151515" stroke-width="2"/>
<circle cx="251" cy="269.75" r="6.25" fill="#E37428" stroke="#151515" stroke-width="2"/>
<circle cx="268.363" cy="269.75" r="6.25" fill="#E37428" stroke="#151515" stroke-width="2"/>
<circle cx="285.723" cy="269.75" r="6.25" fill="#E37428" stroke="#151515" stroke-width="2"/>
<circle cx="225.309" cy="285.723" r="6.25" fill="#E37428" stroke="#151515" stroke-width="2"/>
<circle cx="242.668" cy="285.723" r="6.25" fill="#E37428" stroke="#151515" stroke-width="2"/>
<circle cx="260.027" cy="285.723" r="6.25" fill="#E37428" stroke="#151515" stroke-width="2"/>
<circle cx="277.391" cy="285.723" r="6.25" fill="#E37428" stroke="#151515" stroke-width="2"/>
<circle cx="216.277" cy="301.694" r="6.25" fill="#E37428" stroke="#151515" stroke-width="2"/>
<circle cx="233.641" cy="301.694" r="6.25" fill="#E37428" stroke="#151515" stroke-width="2"/>
<circle cx="251" cy="301.694" r="6.25" fill="#E37428" stroke="#151515" stroke-width="2"/>
<circle cx="108.641" cy="193.361" r="6.25" fill="#E4DD1C" stroke="#151515" stroke-width="2"/>
<circle cx="126" cy="193.361" r="6.25" fill="#E4DD1C" stroke="#151515" stroke-width="2"/>
<circle cx="143.363" cy="193.361" r="6.25" fill="#E4DD1C" stroke="#151515" stroke-width="2"/>
<circle cx="117.668" cy="209.333" r="6.25" fill="#E4DD1C" stroke="#151515" stroke-width="2"/>
<circle cx="135.027" cy="209.333" r="6.25" fill="#E4DD1C" stroke="#151515" stroke-width="2"/>
<circle cx="108.641" cy="225.306" r="6.25" fill="#E4DD1C" stroke="#151515" stroke-width="2"/>
<circle cx="126" cy="225.306" r="6.25" fill="#E4DD1C" stroke="#151515" stroke-width="2"/>
<circle cx="143.363" cy="225.306" r="6.25" fill="#E4DD1C" stroke="#151515" stroke-width="2"/>
<circle cx="268.363" cy="301.694" r="6.25" fill="#E37428" stroke="#151515" stroke-width="2"/>
<circle cx="285.723" cy="301.694" r="6.25" fill="#E37428" stroke="#151515" stroke-width="2"/>
<rect x="116.973" y="285.027" width="18.0556" height="18.0556" fill="#E4DD1C" stroke="#151515" stroke-width="2"/>
<path d="M197.181 334.333L191.279 340.236C189.923 341.591 189.246 342.269 188.775 342.93C186.372 346.305 186.372 350.833 188.775 354.208C189.246 354.87 189.923 355.547 191.279 356.902V356.902C192.634 358.258 193.311 358.935 193.782 359.597C196.186 362.972 196.186 367.5 193.782 370.875C193.311 371.536 192.634 372.214 191.279 373.569V373.569C189.923 374.924 189.246 375.602 188.775 376.263C186.372 379.639 186.372 384.166 188.775 387.542C189.246 388.203 189.923 388.881 191.279 390.236V390.236C192.634 391.591 193.311 392.269 193.782 392.93C196.186 396.305 196.186 400.833 193.782 404.208C193.311 404.87 192.634 405.547 191.279 406.902L185.376 412.805C184.034 414.148 184.034 416.324 185.376 417.666V417.666" stroke="#151515" stroke-width="2"/>
<path d="M221.138 334.333L215.236 340.236C213.88 341.591 213.203 342.269 212.732 342.93C210.329 346.305 210.329 350.833 212.732 354.208C213.203 354.87 213.88 355.547 215.236 356.902V356.902C216.591 358.258 217.269 358.935 217.739 359.597C220.143 362.972 220.143 367.5 217.739 370.875C217.269 371.536 216.591 372.214 215.236 373.569V373.569C213.88 374.924 213.203 375.602 212.732 376.263C210.329 379.639 210.329 384.166 212.732 387.542C213.203 388.203 213.88 388.881 215.236 390.236V390.236C216.591 391.591 217.269 392.269 217.739 392.93C220.143 396.305 220.143 400.833 217.739 404.208C217.269 404.87 216.591 405.547 215.236 406.902L209.333 412.805C207.991 414.148 207.991 416.324 209.333 417.666V417.666" stroke="#151515" stroke-width="2"/>
<path d="M245.099 334.333L239.197 340.236C237.841 341.591 237.164 342.269 236.693 342.93C234.29 346.305 234.29 350.833 236.693 354.208C237.164 354.87 237.841 355.547 239.197 356.902V356.902C240.552 358.258 241.229 358.935 241.7 359.597C244.104 362.972 244.104 367.5 241.7 370.875C241.229 371.536 240.552 372.214 239.197 373.569V373.569C237.841 374.924 237.164 375.602 236.693 376.263C234.29 379.639 234.29 384.166 236.693 387.542C237.164 388.203 237.841 388.881 239.197 390.236V390.236C240.552 391.591 241.229 392.269 241.7 392.93C244.104 396.305 244.104 400.833 241.7 404.208C241.229 404.87 240.552 405.547 239.197 406.902L233.294 412.805C231.951 414.148 231.951 416.324 233.294 417.666V417.666" stroke="#151515" stroke-width="2"/>
<path d="M269.056 334.333L263.154 340.236C261.798 341.591 261.121 342.269 260.65 342.93C258.247 346.305 258.247 350.833 260.65 354.208C261.121 354.87 261.798 355.547 263.154 356.902V356.902C264.509 358.258 265.186 358.935 265.657 359.597C268.061 362.972 268.061 367.5 265.657 370.875C265.186 371.536 264.509 372.214 263.154 373.569V373.569C261.798 374.924 261.121 375.602 260.65 376.263C258.247 379.639 258.247 384.166 260.65 387.542C261.121 388.203 261.798 388.881 263.154 390.236V390.236C264.509 391.591 265.186 392.269 265.657 392.93C268.061 396.305 268.061 400.833 265.657 404.208C265.186 404.87 264.509 405.547 263.154 406.902L257.251 412.805C255.909 414.148 255.909 416.324 257.251 417.666V417.666" stroke="#151515" stroke-width="2"/>
<path d="M293.013 334.333L287.111 340.236C285.755 341.591 285.078 342.269 284.607 342.93C282.204 346.305 282.204 350.833 284.607 354.208C285.078 354.87 285.755 355.547 287.111 356.902V356.902C288.466 358.258 289.144 358.935 289.614 359.597C292.018 362.972 292.018 367.5 289.614 370.875C289.144 371.536 288.466 372.214 287.111 373.569V373.569C285.755 374.924 285.078 375.602 284.607 376.263C282.204 379.639 282.204 384.166 284.607 387.542C285.078 388.203 285.755 388.881 287.111 390.236V390.236C288.466 391.591 289.144 392.269 289.614 392.93C292.018 396.305 292.018 400.833 289.614 404.208C289.144 404.87 288.466 405.547 287.111 406.902L281.208 412.805C279.866 414.148 279.866 416.324 281.208 417.666V417.666" stroke="#151515" stroke-width="2"/>
<path d="M316.974 334.333L311.072 340.236C309.716 341.591 309.039 342.269 308.568 342.93C306.165 346.305 306.165 350.833 308.568 354.208C309.039 354.87 309.716 355.547 311.072 356.902V356.902C312.427 358.258 313.104 358.935 313.575 359.597C315.979 362.972 315.979 367.5 313.575 370.875C313.104 371.536 312.427 372.214 311.072 373.569V373.569C309.716 374.924 309.039 375.602 308.568 376.263C306.165 379.639 306.165 384.166 308.568 387.542C309.039 388.203 309.716 388.881 311.072 390.236V390.236C312.427 391.591 313.104 392.269 313.575 392.93C315.979 396.305 315.979 400.833 313.575 404.208C313.104 404.87 312.427 405.547 311.072 406.902L305.169 412.805C303.826 414.148 303.826 416.324 305.169 417.666V417.666" stroke="#151515" stroke-width="2"/>
<g clip-path="url(#clip1_927_2254)">
<rect x="-394" y="1" width="812.5" height="500" fill="#E37428"/>
<rect x="418.5" y="501" width="143.056" height="83.3333" transform="rotate(-180 418.5 501)" fill="#F38EA1" stroke="black" stroke-width="2.08333"/>
<rect x="418.5" y="501" width="62.5" height="83.3333" transform="rotate(-180 418.5 501)" fill="#00A86B" stroke="black" stroke-width="2.08333"/>
<path d="M356 480.167L417.806 480.167" stroke="black" stroke-width="2.08333"/>
<path d="M356 459.333L417.806 459.333" stroke="black" stroke-width="2.08333"/>
<path d="M356 438.5L417.806 438.5" stroke="black" stroke-width="2.08333"/>
<rect x="106" y="1" width="166.667" height="83.3333" fill="#00A86B" stroke="black" stroke-width="2.08333"/>
<rect x="189.333" y="417.667" width="166.667" height="83.3333" rx="41.6667" fill="#262324" stroke="black" stroke-width="2.08333"/>
<rect x="106" y="84.333" width="83.3333" height="166.667" fill="#E37428" stroke="black" stroke-width="2.08333"/>
<rect x="272.667" y="1" width="145.833" height="83.3333" fill="#00A86B" stroke="black" stroke-width="2.08333"/>
<path d="M106 334.333H189.333V251H106V319.056" stroke="black" stroke-width="2.08333"/>
<path d="M106 292.667C106 269.655 124.655 251 147.667 251H189.333V334.333H147.667C124.655 334.333 106 315.679 106 292.667Z" fill="#C3222B" stroke="black" stroke-width="2.08333"/>
<path d="M106 84.333H189.333C189.333 107.345 170.679 126 147.667 126C124.655 126 106 107.345 106 84.333Z" fill="#C3222B" stroke="black" stroke-width="2.08333"/>
<path d="M189.333 251L106 251C106 227.988 124.655 209.333 147.667 209.333C170.678 209.333 189.333 227.988 189.333 251Z" fill="#C3222B" stroke="black" stroke-width="2.08333"/>
<path d="M189.333 167.666C189.333 190.678 170.678 209.333 147.667 209.333C124.655 209.333 106 190.678 106 167.666C106 144.654 124.655 126 147.667 126C170.678 126 189.333 144.654 189.333 167.666Z" fill="#00A86B"/>
<path d="M106 167.666V167.666C106 190.678 124.655 209.333 147.667 209.333V209.333M106 167.666V167.666C106 144.654 124.655 126 147.667 126V126C170.678 126 189.333 144.654 189.333 167.666V167.666M106 167.666C119.889 168.014 147.667 176.833 147.667 209.333M147.667 209.333V209.333C170.678 209.333 189.333 190.678 189.333 167.666V167.666M147.667 209.333C147.204 195.444 154.889 167.666 189.333 167.666" stroke="black" stroke-width="2.08333"/>
<rect x="106" y="334.333" width="83.3333" height="166.667" fill="#E37428" stroke="black" stroke-width="2.08333"/>
<rect x="106" y="334.333" width="41.6667" height="41.6667" rx="20.8333" fill="#E4DD1C" stroke="black" stroke-width="2.08333"/>
<rect x="49.75" y="39.1943" width="19.4444" height="19.4444" rx="9.72222" fill="#444A8B" stroke="black" stroke-width="2.08333"/>
<rect x="-60.6666" y="1" width="166.667" height="166.667" fill="#444A8B" stroke="black" stroke-width="2.08333"/>
<rect x="-34.2778" y="254.473" width="113.889" height="63.8889" fill="#444A8B" stroke="black" stroke-width="2.08333"/>
<path d="M-60.6666 167.667H106V319.056H126.833V334.334H106H-60.6666V319.056V167.667Z" fill="#444A8B"/>
<path d="M-60.6666 319.056V334.334H106H126.833V319.056H106M-60.6666 319.056V167.667H106V319.056M-60.6666 319.056H106" stroke="black" stroke-width="2.08333"/>
<rect x="-60.6666" y="334.333" width="166.667" height="166.667" fill="#E4DD1C" stroke="black" stroke-width="2.08333"/>
<path d="M22.6667 501C-23.357 501 -60.6666 463.691 -60.6666 417.667H106C115.78 417.667 123.708 425.595 123.708 435.375V440.41C123.708 452.971 113.526 463.153 100.965 463.153H92.5027C77.6306 485.94 51.9074 501 22.6667 501Z" fill="#F38EA1"/>
<path d="M106 417.667H-60.6666C-60.6666 463.691 -23.357 501 22.6667 501C51.9074 501 77.6306 485.94 92.5027 463.153M106 417.667C106 434.45 101.039 450.074 92.5027 463.153M106 417.667V417.667C115.78 417.667 123.708 425.595 123.708 435.375V440.41C123.708 452.971 113.526 463.153 100.965 463.153H92.5027" stroke="black" stroke-width="2.08333"/>
<path d="M272.667 84.333H314.333H356V97.8747V251H314.333H272.667V84.333Z" fill="#E4DD1C"/>
<path d="M314.333 84.333H272.667V251H314.333H356V97.8747V84.333H314.333ZM314.333 84.333V139.541V229.993" stroke="black" stroke-width="2.08333"/>
<path d="M314.333 140.487C328.222 141.524 356 134.678 356 98.9938C342.111 98.0717 314.333 105.079 314.333 140.487Z" fill="#00A86B" stroke="black" stroke-width="2.08333"/>
<path d="M147.626 173.182C153.846 167.827 162.567 153.4 147.699 138.532C141.528 143.935 132.873 158.429 147.626 173.182Z" fill="#E4DD1C" stroke="black" stroke-width="2.08333"/>
<path d="M314.333 188.403C328.222 189.44 356 182.594 356 146.91C342.111 145.988 314.333 152.995 314.333 188.403Z" fill="#00A86B" stroke="black" stroke-width="2.08333"/>
<path d="M333.052 233.292C344.79 228.527 356 217.496 356 194.827C343.007 193.964 317.858 200.042 314.669 229.819" stroke="black" stroke-width="2.08333"/>
<path d="M314.333 140.487C300.444 141.524 272.667 134.678 272.667 98.9938C286.555 98.0717 314.333 105.079 314.333 140.487Z" fill="#00A86B" stroke="black" stroke-width="2.08333"/>
<path d="M314.333 188.403C300.444 189.44 272.667 182.594 272.667 146.91C286.555 145.988 314.333 152.995 314.333 188.403Z" fill="#00A86B" stroke="black" stroke-width="2.08333"/>
<path d="M313.998 229.819C310.809 200.042 285.66 193.964 272.667 194.827C272.667 217.922 284.302 228.937 296.278 233.554" stroke="black" stroke-width="2.08333"/>
<rect x="189.333" y="84.333" width="83.3333" height="83.3333" fill="#444A8B" stroke="black" stroke-width="2.08333"/>
<path d="M147.667 1H106V42.6667L147.667 1Z" fill="#00A86B" stroke="black" stroke-width="2.08333" stroke-linejoin="round"/>
<path d="M189.333 1H147.667V42.6667L189.333 1Z" fill="#00A86B" stroke="black" stroke-width="2.08333" stroke-linejoin="round"/>
<path d="M147.667 42.667H106V84.3337L147.667 42.667Z" fill="#00A86B" stroke="black" stroke-width="2.08333" stroke-linejoin="round"/>
<path d="M189.333 42.667H147.667V84.3337L189.333 42.667Z" fill="#00A86B" stroke="black" stroke-width="2.08333" stroke-linejoin="round"/>
<path d="M189.333 84.333L272.667 84.333L272.667 0.999672L189.333 84.333Z" fill="#00A86B" stroke="black" stroke-width="2.08333" stroke-linejoin="round"/>
<rect x="189.333" y="167.667" width="83.3333" height="83.3333" fill="#E37428" stroke="black" stroke-width="2.08333"/>
<rect x="356" y="167.667" width="62.5" height="83.3333" fill="#444A8B" stroke="black" stroke-width="2.08333"/>
<rect x="356" y="239.194" width="62.5" height="11.8056" fill="#E3E3E3" stroke="black" stroke-width="2.08333"/>
<rect x="356" y="239.194" width="62.5" height="11.8056" fill="#00A86B" stroke="black" stroke-width="2.08333"/>
<rect x="369.889" y="227.389" width="34.7222" height="11.8056" fill="#E3E3E3" stroke="black" stroke-width="2.08333"/>
<rect x="369.889" y="227.389" width="34.7222" height="11.8056" fill="#00A86B" stroke="black" stroke-width="2.08333"/>
<path d="M362.25 208.639H412.25L409.472 227.389H365.028L362.25 208.639Z" fill="#00A86B" stroke="black" stroke-width="2.08333"/>
<path d="M356 84.333H418.5V167.666C383.982 167.666 356 139.684 356 105.166V84.333Z" fill="#262324" stroke="black" stroke-width="2.08333"/>
<path d="M387.25 84.333H418.5V126C401.241 126 387.25 112.009 387.25 94.7497V84.333Z" fill="#E37428" stroke="black" stroke-width="2.08333"/>
<path d="M401.139 84.333H418.5V107.25C408.912 107.25 401.139 99.4768 401.139 89.8886V84.333Z" fill="white" stroke="black" stroke-width="2.08333"/>
<path d="M189.333 251H201.833H272.667H314.16H355.653H418.5V417.667H371.625H314.16H248.014H189.333V251Z" fill="#F38EA1"/>
<path d="M189.333 251V417.667H248.014M189.333 251H201.833M189.333 251C194.657 255.398 205.93 269.403 208.43 290.236C211.555 316.278 207.389 417.667 248.014 417.667M272.667 251H314.16M272.667 251L256.077 363.153M272.667 251H201.833M248.014 417.667H314.16M248.014 417.667L256.077 363.153M371.625 417.667H418.5V251H355.653M371.625 417.667H314.16M371.625 417.667L368.896 389.194M355.653 251H314.16M355.653 251L356.318 257.944M314.16 251V363.153M314.16 417.667V410.201M314.16 417.667L368.464 384.681M314.16 363.153H256.077M314.16 363.153L363.539 333.292M314.16 363.153V372.528M256.077 363.153C246.908 364.079 229.971 355.813 226.486 315.931C223.361 280.167 209.356 255.977 201.833 251M363.539 333.292L364.338 341.625M363.539 333.292L357.316 268.361M364.338 341.625L314.16 372.528M364.338 341.625L365.103 349.611M314.16 372.528V379.472M314.16 379.472L365.103 349.611M314.16 379.472V386.764M365.103 349.611L365.835 357.25M365.835 357.25L314.16 386.764M365.835 357.25L366.5 364.194M314.16 386.764V393.361M314.16 393.361L366.5 364.194M314.16 393.361V402.736M366.5 364.194L367.166 371.139M367.166 371.139L314.16 402.736M367.166 371.139L367.495 374.574M314.16 402.736V410.201M314.16 410.201L367.798 377.736M367.798 377.736L368.464 384.681M367.798 377.736L367.495 374.574M368.464 384.681L368.896 389.194M356.318 257.944V257.944C385.799 257.944 409.453 282.301 408.589 311.77L408.184 325.603C407.675 342.98 400.303 359.448 387.681 371.402L368.896 389.194M356.318 257.944L357.316 268.361M357.316 268.361V268.361C380.177 268.361 398.708 286.893 398.708 309.753V321.394C398.708 335.459 393.121 348.949 383.175 358.894L367.495 374.574" stroke="black" stroke-width="2.08333"/>
<path d="M-60.6666 84.333H106C106 130.357 68.6904 167.666 22.6667 167.666C-23.357 167.666 -60.6666 130.357 -60.6666 84.333Z" fill="#E4DD1C" stroke="black" stroke-width="2.08333"/>
<path d="M4.61108 84.333H40.7222V74.6108C40.7222 64.639 32.6384 56.5552 22.6666 56.5552C12.6948 56.5552 4.61108 64.639 4.61108 74.6108V84.333Z" fill="#E4DD1C" stroke="black" stroke-width="2.08333"/>
<path d="M40.7222 73.5692H59.1249V58.6387" stroke="black" stroke-width="2.08333"/>
<path d="M147.667 355.167L189.333 355.167" stroke="black" stroke-width="2.08333"/>
<path d="M106 376H189.333" stroke="black" stroke-width="2.08333"/>
<path d="M106 396.833H189.333" stroke="black" stroke-width="2.08333"/>
<path d="M106 417.667H189.333" stroke="black" stroke-width="2.08333"/>
<path d="M36.9028 205.861C36.9028 213.723 30.5291 220.097 22.6667 220.097C14.8043 220.097 8.43058 213.723 8.43058 205.861C8.43058 197.998 14.8043 191.625 22.6667 191.625C30.5291 191.625 36.9028 197.998 36.9028 205.861Z" fill="#E37428" stroke="black" stroke-width="2.08333"/>
<path d="M79.9583 205.861C79.9583 213.723 73.5846 220.097 65.7222 220.097C57.8598 220.097 51.4861 213.723 51.4861 205.861C51.4861 197.998 57.8598 191.625 65.7222 191.625C73.5846 191.625 79.9583 197.998 79.9583 205.861Z" fill="#E37428" stroke="black" stroke-width="2.08333"/>
<circle cx="5.30554" cy="269.75" r="6.25" fill="#E37428" stroke="black" stroke-width="2.08333"/>
<circle cx="22.6666" cy="269.75" r="6.25" fill="#E37428" stroke="black" stroke-width="2.08333"/>
<circle cx="40.0278" cy="269.75" r="6.25" fill="#E37428" stroke="black" stroke-width="2.08333"/>
<circle cx="57.3889" cy="269.75" r="6.25" fill="#E37428" stroke="black" stroke-width="2.08333"/>
<circle cx="-3.02783" cy="285.723" r="6.25" fill="#E37428" stroke="black" stroke-width="2.08333"/>
<circle cx="14.3334" cy="285.723" r="6.25" fill="#E37428" stroke="black" stroke-width="2.08333"/>
<circle cx="31.6945" cy="285.723" r="6.25" fill="#E37428" stroke="black" stroke-width="2.08333"/>
<circle cx="49.0555" cy="285.723" r="6.25" fill="#E37428" stroke="black" stroke-width="2.08333"/>
<circle cx="5.30554" cy="301.694" r="6.25" fill="#E37428" stroke="black" stroke-width="2.08333"/>
<circle cx="22.6666" cy="301.694" r="6.25" fill="#E37428" stroke="black" stroke-width="2.08333"/>
<circle cx="213.639" cy="110.027" r="6.25" fill="#E37428" stroke="black" stroke-width="2.08333"/>
<circle cx="231" cy="110.027" r="6.25" fill="#E37428" stroke="black" stroke-width="2.08333"/>
<circle cx="248.361" cy="110.027" r="6.25" fill="#E37428" stroke="black" stroke-width="2.08333"/>
<circle cx="222.667" cy="126" r="6.25" fill="#E37428" stroke="black" stroke-width="2.08333"/>
<circle cx="240.028" cy="126" r="6.25" fill="#E37428" stroke="black" stroke-width="2.08333"/>
<circle cx="213.639" cy="141.973" r="6.25" fill="#E37428" stroke="black" stroke-width="2.08333"/>
<circle cx="231" cy="141.973" r="6.25" fill="#E37428" stroke="black" stroke-width="2.08333"/>
<circle cx="248.361" cy="141.973" r="6.25" fill="#E37428" stroke="black" stroke-width="2.08333"/>
<circle cx="40.0278" cy="301.694" r="6.25" fill="#E37428" stroke="black" stroke-width="2.08333"/>
<circle cx="57.3889" cy="301.694" r="6.25" fill="#E37428" stroke="black" stroke-width="2.08333"/>
<path d="M16.7639 334.333L10.8612 340.236C9.50594 341.591 8.82833 342.269 8.35736 342.93C5.95409 346.305 5.95409 350.833 8.35736 354.208C8.82833 354.87 9.50594 355.547 10.8612 356.902V356.902C12.2164 358.258 12.894 358.935 13.365 359.597C15.7682 362.972 15.7682 367.5 13.365 370.875C12.894 371.536 12.2164 372.214 10.8612 373.569V373.569C9.50594 374.924 8.82833 375.602 8.35736 376.263C5.95409 379.639 5.95409 384.166 8.35736 387.542C8.82833 388.203 9.50594 388.881 10.8612 390.236V390.236C12.2164 391.591 12.894 392.269 13.365 392.93C15.7682 396.305 15.7682 400.833 13.365 404.208C12.894 404.87 12.2164 405.547 10.8612 406.902L4.95839 412.805C3.61603 414.148 3.61603 416.324 4.95839 417.666V417.666" stroke="black" stroke-width="2.08333"/>
<path d="M40.7222 334.333L34.8194 340.236C33.4642 341.591 32.7866 342.269 32.3156 342.93C29.9123 346.305 29.9123 350.833 32.3156 354.208C32.7866 354.87 33.4642 355.547 34.8194 356.902V356.902C36.1746 358.258 36.8523 358.935 37.3232 359.597C39.7265 362.972 39.7265 367.5 37.3232 370.875C36.8523 371.536 36.1746 372.214 34.8194 373.569V373.569C33.4642 374.924 32.7866 375.602 32.3156 376.263C29.9123 379.639 29.9123 384.166 32.3156 387.542C32.7866 388.203 33.4642 388.881 34.8194 390.236V390.236C36.1746 391.591 36.8523 392.269 37.3232 392.93C39.7265 396.305 39.7265 400.833 37.3232 404.208C36.8523 404.87 36.1746 405.547 34.8194 406.902L28.9166 412.805C27.5743 414.148 27.5743 416.324 28.9166 417.666V417.666" stroke="black" stroke-width="2.08333"/>
<path d="M64.6806 334.333L58.7778 340.236C57.4226 341.591 56.745 342.269 56.274 342.93C53.8707 346.305 53.8707 350.833 56.274 354.208C56.745 354.87 57.4226 355.547 58.7778 356.902V356.902C60.133 358.258 60.8106 358.935 61.2816 359.597C63.6849 362.972 63.6849 367.5 61.2816 370.875C60.8106 371.536 60.133 372.214 58.7778 373.569V373.569C57.4226 374.924 56.745 375.602 56.274 376.263C53.8707 379.639 53.8707 384.166 56.274 387.542C56.745 388.203 57.4226 388.881 58.7778 390.236V390.236C60.133 391.591 60.8106 392.269 61.2816 392.93C63.6849 396.305 63.6849 400.833 61.2816 404.208C60.8106 404.87 60.133 405.547 58.7778 406.902L52.875 412.805C51.5327 414.148 51.5327 416.324 52.875 417.666V417.666" stroke="black" stroke-width="2.08333"/>
<path d="M88.6389 334.333L82.7362 340.236C81.3809 341.591 80.7033 342.269 80.2324 342.93C77.8291 346.305 77.8291 350.833 80.2324 354.208C80.7033 354.87 81.3809 355.547 82.7362 356.902V356.902C84.0914 358.258 84.769 358.935 85.24 359.597C87.6432 362.972 87.6432 367.5 85.24 370.875C84.769 371.536 84.0914 372.214 82.7362 373.569V373.569C81.3809 374.924 80.7033 375.602 80.2324 376.263C77.8291 379.639 77.8291 384.166 80.2324 387.542C80.7033 388.203 81.3809 388.881 82.7362 390.236V390.236C84.0914 391.591 84.769 392.269 85.24 392.93C87.6432 396.305 87.6432 400.833 85.24 404.208C84.769 404.87 84.0914 405.547 82.7362 406.902L76.8334 412.805C75.491 414.148 75.491 416.324 76.8334 417.666V417.666" stroke="black" stroke-width="2.08333"/>
<path d="M314.333 230.167C297.191 230.167 281.958 238.339 272.317 251H356.349C346.708 238.339 331.475 230.167 314.333 230.167Z" fill="#E4DD1C" stroke="black" stroke-width="2.08333"/>
<path d="M316.764 39.8891C316.764 47.7515 310.39 54.1252 302.528 54.1252C298.776 54.1252 295.365 52.6753 292.822 50.3034C290.033 47.7033 288.292 44.0003 288.292 39.8891C288.292 32.0267 294.665 25.653 302.528 25.653C310.39 25.653 316.764 32.0267 316.764 39.8891Z" fill="#E4DD1C" stroke="black" stroke-width="2.08333"/>
<path d="M359.819 39.8891C359.819 47.7515 353.446 54.1252 345.583 54.1252C337.721 54.1252 331.347 47.7515 331.347 39.8891C331.347 32.0267 337.721 25.653 345.583 25.653C353.446 25.653 359.819 32.0267 359.819 39.8891Z" fill="#E4DD1C" stroke="black" stroke-width="2.08333"/>
<path d="M402.875 39.8891C402.875 47.7515 396.501 54.1252 388.639 54.1252C380.776 54.1252 374.403 47.7515 374.403 39.8891C374.403 32.0267 380.776 25.653 388.639 25.653C396.501 25.653 402.875 32.0267 402.875 39.8891Z" fill="#E4DD1C" stroke="black" stroke-width="2.08333"/>
<path d="M387.237 223.904C389.227 222.19 392.018 217.574 387.26 212.816C385.285 214.545 382.516 219.183 387.237 223.904Z" fill="#262324" stroke="black" stroke-width="2.08333"/>
<path d="M398.348 223.904C400.338 222.19 403.129 217.574 398.371 212.816C396.396 214.545 393.627 219.183 398.348 223.904Z" fill="#262324" stroke="black" stroke-width="2.08333"/>
<path d="M376.126 223.904C378.116 222.19 380.906 217.574 376.149 212.816C374.174 214.545 371.405 219.183 376.126 223.904Z" fill="#262324" stroke="black" stroke-width="2.08333"/>
</g>
<rect x="-394" y="1" width="812.5" height="500" stroke="black" stroke-width="2.08333"/>
</g>
<rect x="1" y="1" width="417" height="500" stroke="#151515" stroke-width="2"/>
<defs>
<clipPath id="clip0_927_2254">
<rect x="1" y="1" width="417" height="500" fill="white"/>
</clipPath>
<clipPath id="clip1_927_2254">
<rect x="-394" y="1" width="812.5" height="500" fill="white"/>
</clipPath>
</defs>
</svg>
