<svg width="419" height="502" viewBox="0 0 419 502" fill="none" xmlns="http://www.w3.org/2000/svg">
<g clip-path="url(#clip0_367_2550)">
<rect x="1" y="1" width="417" height="500" fill="#E37428"/>
<rect x="-165.664" y="84.333" width="166.667" height="83.3333" fill="#444A8B" stroke="#151515" stroke-width="2"/>
<rect x="-165.664" y="1" width="166.667" height="83.3333" fill="#F38EA1" stroke="#151515" stroke-width="2"/>
<rect x="-165.664" y="334.333" width="166.667" height="166.667" rx="83.3333" fill="#C3222B" stroke="#151515" stroke-width="2"/>
<rect x="-82.332" y="334.333" width="166.667" height="166.667" rx="83.3333" fill="#C3222B" stroke="#151515" stroke-width="2"/>
<rect x="334.336" y="1" width="166.667" height="83.3333" fill="#00A86B" stroke="#151515" stroke-width="2"/>
<rect x="-165.664" y="1" width="166.667" height="83.3333" rx="41.6667" fill="#E37428" stroke="#151515" stroke-width="2"/>
<rect x="417.668" y="417.667" width="166.667" height="83.3333" rx="41.6667" fill="#262324" stroke="#151515" stroke-width="2"/>
<rect x="1" y="1" width="83.3333" height="166.667" fill="#F38EA1" stroke="#151515" stroke-width="2"/>
<rect x="334.336" y="84.333" width="83.3333" height="166.667" fill="#E37428" stroke="#151515" stroke-width="2"/>
<path d="M334.336 334.333H417.669V251H334.336V319.056" stroke="#151515" stroke-width="2"/>
<path d="M334.336 292.667C334.336 269.655 352.991 251 376.003 251H417.669V334.333H376.003C352.991 334.333 334.336 315.679 334.336 292.667Z" fill="#C3222B" stroke="#151515" stroke-width="2"/>
<path d="M1 1H84.3333C84.3333 24.0119 65.6785 42.6667 42.6667 42.6667C19.6548 42.6667 1 24.0119 1 1Z" fill="#C3222B" stroke="#151515" stroke-width="2"/>
<path d="M334.336 84.333H417.669C417.669 107.345 399.014 126 376.003 126C352.991 126 334.336 107.345 334.336 84.333Z" fill="#C3222B" stroke="#151515" stroke-width="2"/>
<path d="M84.3359 167.667L1.0026 167.667C1.0026 144.655 19.6574 126 42.6693 126C65.6811 126 84.3359 144.655 84.3359 167.667Z" fill="#C3222B" stroke="#151515" stroke-width="2"/>
<path d="M417.668 251L334.335 251C334.335 227.988 352.989 209.333 376.001 209.333C399.013 209.333 417.668 227.988 417.668 251Z" fill="#C3222B" stroke="#151515" stroke-width="2"/>
<path d="M84.3359 84.3333C84.3359 107.345 65.6811 126 42.6693 126C19.6574 126 1.0026 107.345 1.00261 84.3333C1.00261 61.3215 19.6574 42.6667 42.6693 42.6667C65.6811 42.6667 84.3359 61.3215 84.3359 84.3333Z" fill="#00A86B"/>
<path d="M1.00261 84.3333V84.3333C1.0026 107.345 19.6574 126 42.6693 126V126M1.00261 84.3333V84.3333C1.00261 61.3215 19.6574 42.6667 42.6693 42.6667V42.6667C65.6811 42.6667 84.3359 61.3215 84.3359 84.3333V84.3333M1.00261 84.3333C14.8915 84.6806 42.6693 93.5 42.6693 126M42.6693 126V126C65.6811 126 84.3359 107.345 84.3359 84.3333V84.3333M42.6693 126C42.2063 112.111 49.8915 84.3333 84.3359 84.3333" stroke="#151515" stroke-width="2"/>
<path d="M417.668 167.666C417.668 190.678 399.013 209.333 376.001 209.333C352.989 209.333 334.335 190.678 334.335 167.666C334.335 144.654 352.989 126 376.001 126C399.013 126 417.668 144.654 417.668 167.666Z" fill="#00A86B"/>
<path d="M334.335 167.666V167.666C334.335 190.678 352.989 209.333 376.001 209.333V209.333M334.335 167.666V167.666C334.335 144.654 352.989 126 376.001 126V126C399.013 126 417.668 144.654 417.668 167.666V167.666M334.335 167.666C348.224 168.014 376.001 176.833 376.001 209.333M376.001 209.333V209.333C399.013 209.333 417.668 190.678 417.668 167.666V167.666M376.001 209.333C375.538 195.444 383.224 167.666 417.668 167.666" stroke="#151515" stroke-width="2"/>
<rect x="84.3359" y="1" width="83.3333" height="166.667" fill="#C3222B" stroke="#151515" stroke-width="2"/>
<rect x="334.336" y="334.333" width="83.3333" height="166.667" fill="#E37428" stroke="#151515" stroke-width="2"/>
<rect x="84.3359" y="1" width="41.6667" height="41.6667" rx="20.8333" fill="#E4DD1C" stroke="#151515" stroke-width="2"/>
<rect x="334.336" y="334.333" width="41.6667" height="41.6667" rx="20.8333" fill="#E4DD1C" stroke="#151515" stroke-width="2"/>
<rect x="278.086" y="39.1943" width="19.4444" height="19.4444" rx="9.72222" fill="#444A8B" stroke="#151515" stroke-width="2"/>
<rect x="167.668" y="1" width="166.667" height="166.667" fill="#444A8B" stroke="#151515" stroke-width="2"/>
<rect x="194.059" y="254.473" width="113.889" height="63.8889" fill="#444A8B" stroke="#151515" stroke-width="2"/>
<path d="M167.668 167.667H334.335V319.056H355.168V334.334H334.335H167.668V319.056V167.667Z" fill="#444A8B"/>
<path d="M167.668 319.056V334.334H334.335H355.168V319.056H334.335M167.668 319.056V167.667H334.335V319.056M167.668 319.056H334.335" stroke="#151515" stroke-width="2"/>
<rect x="167.668" y="334.333" width="166.667" height="166.667" fill="#E4DD1C" stroke="#151515" stroke-width="2"/>
<path d="M251.001 501C204.978 501 167.668 463.691 167.668 417.667H334.335C344.115 417.667 352.043 425.595 352.043 435.375V440.41C352.043 452.971 341.861 463.153 329.3 463.153H320.837C305.965 485.94 280.242 501 251.001 501Z" fill="#F38EA1"/>
<path d="M334.335 417.667H167.668C167.668 463.691 204.978 501 251.001 501C280.242 501 305.965 485.94 320.837 463.153M334.335 417.667C334.335 434.45 329.373 450.074 320.837 463.153M334.335 417.667V417.667C344.115 417.667 352.043 425.595 352.043 435.375V440.41C352.043 452.971 341.861 463.153 329.3 463.153H320.837" stroke="#151515" stroke-width="2"/>
<rect x="-165.664" y="167.667" width="166.667" height="166.667" fill="#E4DD1C" stroke="#151515" stroke-width="2"/>
<path d="M-165.664 167.667C-73.6166 167.667 1.00261 242.286 1.00261 334.334H-82.3307H-165.664V167.667Z" fill="#E37428"/>
<path d="M-165.664 167.667V167.667C-73.6166 167.667 1.00261 242.286 1.00261 334.334V334.334H-82.3307M-165.664 167.667V334.334H-82.3307M-165.664 167.667C-92.3307 206.834 -79.5529 295.098 -82.3307 334.334" stroke="#151515" stroke-width="2"/>
<path d="M1 167.667H42.6667H84.3333V181.209V334.334H42.6667H1V167.667Z" fill="#E4DD1C"/>
<path d="M42.6667 334.334H84.3333V181.209V167.667H42.6667M42.6667 334.334H1V167.667H42.6667M42.6667 334.334V222.875V167.667" stroke="#151515" stroke-width="2"/>
<path d="M42.668 223.82C56.5569 224.857 84.3346 218.011 84.3346 182.327C70.4457 181.405 42.668 188.412 42.668 223.82Z" fill="#00A86B" stroke="#151515" stroke-width="2"/>
<path d="M42.6295 89.8483C48.8488 84.4934 57.5704 70.0665 42.7019 55.198C36.5306 60.6009 27.8763 75.095 42.6295 89.8483Z" fill="#E4DD1C" stroke="#151515" stroke-width="2"/>
<path d="M375.962 173.182C382.181 167.827 390.902 153.4 376.034 138.532C369.863 143.935 361.208 158.429 375.962 173.182Z" fill="#E4DD1C" stroke="#151515" stroke-width="2"/>
<path d="M42.668 271.737C56.5569 272.774 84.3346 265.928 84.3346 230.244C70.4457 229.322 42.668 236.329 42.668 271.737Z" fill="#00A86B" stroke="#151515" stroke-width="2"/>
<path d="M42.668 319.653C56.5569 320.69 84.3346 313.844 84.3346 278.16C70.4457 277.238 42.668 284.245 42.668 319.653Z" fill="#00A86B" stroke="#151515" stroke-width="2"/>
<path d="M42.668 223.82C28.7791 224.857 1.0013 218.011 1.0013 182.327C14.8902 181.405 42.668 188.412 42.668 223.82Z" fill="#00A86B" stroke="#151515" stroke-width="2"/>
<path d="M42.668 271.737C28.7791 272.774 1.0013 265.928 1.0013 230.244C14.8902 229.322 42.668 236.329 42.668 271.737Z" fill="#00A86B" stroke="#151515" stroke-width="2"/>
<path d="M42.668 319.653C28.7791 320.69 1.0013 313.844 1.0013 278.16C14.8902 277.238 42.668 284.245 42.668 319.653Z" fill="#00A86B" stroke="#151515" stroke-width="2"/>
<rect x="84.3359" y="167.667" width="83.3333" height="83.3333" fill="#C3222B" stroke="#151515" stroke-width="2"/>
<rect x="417.668" y="84.333" width="83.3333" height="83.3333" fill="#444A8B" stroke="#151515" stroke-width="2"/>
<path d="M376.003 1H334.336V42.6667L376.003 1Z" fill="#00A86B" stroke="#151515" stroke-width="2" stroke-linejoin="round"/>
<path d="M417.667 1H376V42.6667L417.667 1Z" fill="#00A86B" stroke="#151515" stroke-width="2" stroke-linejoin="round"/>
<path d="M376.003 42.667H334.336V84.3337L376.003 42.667Z" fill="#00A86B" stroke="#151515" stroke-width="2" stroke-linejoin="round"/>
<path d="M417.667 42.667H376V84.3337L417.667 42.667Z" fill="#00A86B" stroke="#151515" stroke-width="2" stroke-linejoin="round"/>
<path d="M417.667 84.333L501 84.333L501 0.999672L417.667 84.333Z" fill="#00A86B" stroke="#151515" stroke-width="2" stroke-linejoin="round"/>
<rect x="417.668" y="167.667" width="83.3333" height="83.3333" fill="#E37428" stroke="#151515" stroke-width="2"/>
<path d="M417.668 251H430.168H501.001H542.494H583.987H646.835V417.667H599.96H542.494H476.349H417.668V251Z" fill="#F38EA1"/>
<path d="M417.668 251V417.667H476.349M417.668 251H430.168M417.668 251C422.992 255.398 434.265 269.403 436.765 290.236C439.89 316.278 435.724 417.667 476.349 417.667M501.001 251H542.494M501.001 251L484.412 363.153M501.001 251H430.168M476.349 417.667H542.494M476.349 417.667L484.412 363.153M599.96 417.667H646.835V251H583.987M599.96 417.667H542.494M599.96 417.667L597.231 389.194M583.987 251H542.494M583.987 251L584.653 257.944M542.494 251V363.153M542.494 417.667V410.201M542.494 417.667L596.798 384.681M542.494 363.153H484.412M542.494 363.153L591.874 333.292M542.494 363.153V372.528M484.412 363.153C475.243 364.079 458.306 355.813 454.821 315.931C451.696 280.167 437.691 255.977 430.168 251M591.874 333.292L592.672 341.625M591.874 333.292L585.651 268.361M592.672 341.625L542.494 372.528M592.672 341.625L593.438 349.611M542.494 372.528V379.472M542.494 379.472L593.438 349.611M542.494 379.472V386.764M593.438 349.611L594.17 357.25M594.17 357.25L542.494 386.764M594.17 357.25L594.835 364.194M542.494 386.764V393.361M542.494 393.361L594.835 364.194M542.494 393.361V402.736M594.835 364.194L595.501 371.139M595.501 371.139L542.494 402.736M595.501 371.139L595.83 374.574M542.494 402.736V410.201M542.494 410.201L596.133 377.736M596.133 377.736L596.798 384.681M596.133 377.736L595.83 374.574M596.798 384.681L597.231 389.194M584.653 257.944V257.944C614.134 257.944 637.788 282.301 636.924 311.77L636.519 325.603C636.009 342.98 628.637 359.448 616.016 371.402L597.231 389.194M584.653 257.944L585.651 268.361M585.651 268.361V268.361C608.511 268.361 627.043 286.893 627.043 309.753V321.394C627.043 335.459 621.456 348.949 611.51 358.894L595.83 374.574" stroke="#151515" stroke-width="2"/>
<path d="M84.068 334.333H125.869H167.669V398.112V454.472V476.398H84.068V454.472V390.583V334.333Z" fill="#444A8B"/>
<path d="M167.669 476.398H84.068M167.669 476.398V501H59.3359L84.068 476.398M167.669 476.398V454.472M84.068 476.398V454.472M84.068 454.472H167.669M84.068 454.472V390.583M167.669 454.472V398.112M125.869 334.333H84.068V390.583M125.869 334.333H167.669V398.112M125.869 334.333V421.139M125.869 421.139H106.558M125.869 421.139H144.753M84.068 390.583L87.4909 394.006C90.2028 396.718 94.5998 396.718 97.3118 394.006L99.9116 391.406C102.624 388.694 107.021 388.694 109.733 391.406L113.106 394.78C115.818 397.492 120.215 397.492 122.927 394.78L126.3 391.406C129.012 388.694 133.409 388.694 136.121 391.406L138.721 394.006C141.433 396.718 145.83 396.718 148.542 394.006L151.142 391.406C153.854 388.694 158.251 388.694 160.963 391.406L167.669 398.112" stroke="#151515" stroke-width="2"/>
<path d="M84.3359 251H167.669V319.056V334.333H84.3359V319.056V251Z" fill="#F38EA1"/>
<path d="M84.3359 319.056V334.333H167.669V319.056M84.3359 319.056V251H167.669V319.056M84.3359 319.056H126.003M167.669 319.056H126.003M126.003 319.056V302.042" stroke="#151515" stroke-width="2"/>
<path d="M167.668 84.333H334.335C334.335 130.357 297.025 167.666 251.001 167.666C204.978 167.666 167.668 130.357 167.668 84.333Z" fill="#E4DD1C" stroke="#151515" stroke-width="2"/>
<path d="M232.945 84.333H269.056V74.6108C269.056 64.639 260.973 56.5552 251.001 56.5552C241.029 56.5552 232.945 64.639 232.945 74.6108V84.333Z" fill="#E4DD1C" stroke="#151515" stroke-width="2"/>
<path d="M269.059 73.5692H287.461V58.6387" stroke="#151515" stroke-width="2"/>
<path d="M126 21.833L167.667 21.833" stroke="#151515" stroke-width="2"/>
<path d="M376 355.167L417.667 355.167" stroke="#151515" stroke-width="2"/>
<path d="M84.3359 42.667H167.669" stroke="#151515" stroke-width="2"/>
<path d="M334.336 376H417.669" stroke="#151515" stroke-width="2"/>
<path d="M84.3359 63.5H167.669" stroke="#151515" stroke-width="2"/>
<path d="M334.336 396.833H417.669" stroke="#151515" stroke-width="2"/>
<path d="M84.3359 84.333H167.669" stroke="#151515" stroke-width="2"/>
<path d="M334.336 417.667H417.669" stroke="#151515" stroke-width="2"/>
<path d="M222.224 205.861C222.224 213.746 215.831 220.139 207.946 220.139C204.183 220.139 200.762 218.684 198.211 216.306C195.415 213.698 193.668 209.984 193.668 205.861C193.668 197.975 200.06 191.583 207.946 191.583C215.831 191.583 222.224 197.975 222.224 205.861Z" fill="#E37428" stroke="#151515" stroke-width="2"/>
<path d="M265.278 205.861C265.278 213.746 258.886 220.139 251 220.139C243.115 220.139 236.723 213.746 236.723 205.861C236.723 197.975 243.115 191.583 251 191.583C258.886 191.583 265.278 197.975 265.278 205.861Z" fill="#E37428" stroke="#151515" stroke-width="2"/>
<path d="M308.333 205.861C308.333 213.746 301.941 220.139 294.055 220.139C286.17 220.139 279.777 213.746 279.777 205.861C279.777 197.975 286.17 191.583 294.055 191.583C301.941 191.583 308.333 197.975 308.333 205.861Z" fill="#E37428" stroke="#151515" stroke-width="2"/>
<circle cx="216.277" cy="269.75" r="6.25" fill="#E37428" stroke="#151515" stroke-width="2"/>
<circle cx="233.641" cy="269.75" r="6.25" fill="#E37428" stroke="#151515" stroke-width="2"/>
<circle cx="251" cy="269.75" r="6.25" fill="#E37428" stroke="#151515" stroke-width="2"/>
<circle cx="268.363" cy="269.75" r="6.25" fill="#E37428" stroke="#151515" stroke-width="2"/>
<circle cx="285.723" cy="269.75" r="6.25" fill="#E37428" stroke="#151515" stroke-width="2"/>
<circle cx="225.309" cy="285.723" r="6.25" fill="#E37428" stroke="#151515" stroke-width="2"/>
<circle cx="242.668" cy="285.723" r="6.25" fill="#E37428" stroke="#151515" stroke-width="2"/>
<circle cx="260.027" cy="285.723" r="6.25" fill="#E37428" stroke="#151515" stroke-width="2"/>
<circle cx="277.391" cy="285.723" r="6.25" fill="#E37428" stroke="#151515" stroke-width="2"/>
<circle cx="216.277" cy="301.694" r="6.25" fill="#E37428" stroke="#151515" stroke-width="2"/>
<circle cx="233.641" cy="301.694" r="6.25" fill="#E37428" stroke="#151515" stroke-width="2"/>
<circle cx="251" cy="301.694" r="6.25" fill="#E37428" stroke="#151515" stroke-width="2"/>
<circle cx="108.641" cy="193.361" r="6.25" fill="#E4DD1C" stroke="#151515" stroke-width="2"/>
<circle cx="126" cy="193.361" r="6.25" fill="#E4DD1C" stroke="#151515" stroke-width="2"/>
<circle cx="143.363" cy="193.361" r="6.25" fill="#E4DD1C" stroke="#151515" stroke-width="2"/>
<circle cx="117.668" cy="209.333" r="6.25" fill="#E4DD1C" stroke="#151515" stroke-width="2"/>
<circle cx="135.027" cy="209.333" r="6.25" fill="#E4DD1C" stroke="#151515" stroke-width="2"/>
<circle cx="108.641" cy="225.306" r="6.25" fill="#E4DD1C" stroke="#151515" stroke-width="2"/>
<circle cx="126" cy="225.306" r="6.25" fill="#E4DD1C" stroke="#151515" stroke-width="2"/>
<circle cx="143.363" cy="225.306" r="6.25" fill="#E4DD1C" stroke="#151515" stroke-width="2"/>
<circle cx="268.363" cy="301.694" r="6.25" fill="#E37428" stroke="#151515" stroke-width="2"/>
<circle cx="285.723" cy="301.694" r="6.25" fill="#E37428" stroke="#151515" stroke-width="2"/>
<rect x="116.973" y="285.027" width="18.0556" height="18.0556" fill="#E4DD1C" stroke="#151515" stroke-width="2"/>
<path d="M197.181 334.333L191.279 340.236C189.923 341.591 189.246 342.269 188.775 342.93C186.372 346.305 186.372 350.833 188.775 354.208C189.246 354.87 189.923 355.547 191.279 356.902V356.902C192.634 358.258 193.311 358.935 193.782 359.597C196.186 362.972 196.186 367.5 193.782 370.875C193.311 371.536 192.634 372.214 191.279 373.569V373.569C189.923 374.924 189.246 375.602 188.775 376.263C186.372 379.639 186.372 384.166 188.775 387.542C189.246 388.203 189.923 388.881 191.279 390.236V390.236C192.634 391.591 193.311 392.269 193.782 392.93C196.186 396.305 196.186 400.833 193.782 404.208C193.311 404.87 192.634 405.547 191.279 406.902L185.376 412.805C184.034 414.148 184.034 416.324 185.376 417.666V417.666" stroke="#151515" stroke-width="2"/>
<path d="M221.138 334.333L215.236 340.236C213.88 341.591 213.203 342.269 212.732 342.93C210.329 346.305 210.329 350.833 212.732 354.208C213.203 354.87 213.88 355.547 215.236 356.902V356.902C216.591 358.258 217.269 358.935 217.739 359.597C220.143 362.972 220.143 367.5 217.739 370.875C217.269 371.536 216.591 372.214 215.236 373.569V373.569C213.88 374.924 213.203 375.602 212.732 376.263C210.329 379.639 210.329 384.166 212.732 387.542C213.203 388.203 213.88 388.881 215.236 390.236V390.236C216.591 391.591 217.269 392.269 217.739 392.93C220.143 396.305 220.143 400.833 217.739 404.208C217.269 404.87 216.591 405.547 215.236 406.902L209.333 412.805C207.991 414.148 207.991 416.324 209.333 417.666V417.666" stroke="#151515" stroke-width="2"/>
<path d="M245.099 334.333L239.197 340.236C237.841 341.591 237.164 342.269 236.693 342.93C234.29 346.305 234.29 350.833 236.693 354.208C237.164 354.87 237.841 355.547 239.197 356.902V356.902C240.552 358.258 241.229 358.935 241.7 359.597C244.104 362.972 244.104 367.5 241.7 370.875C241.229 371.536 240.552 372.214 239.197 373.569V373.569C237.841 374.924 237.164 375.602 236.693 376.263C234.29 379.639 234.29 384.166 236.693 387.542C237.164 388.203 237.841 388.881 239.197 390.236V390.236C240.552 391.591 241.229 392.269 241.7 392.93C244.104 396.305 244.104 400.833 241.7 404.208C241.229 404.87 240.552 405.547 239.197 406.902L233.294 412.805C231.951 414.148 231.951 416.324 233.294 417.666V417.666" stroke="#151515" stroke-width="2"/>
<path d="M269.056 334.333L263.154 340.236C261.798 341.591 261.121 342.269 260.65 342.93C258.247 346.305 258.247 350.833 260.65 354.208C261.121 354.87 261.798 355.547 263.154 356.902V356.902C264.509 358.258 265.186 358.935 265.657 359.597C268.061 362.972 268.061 367.5 265.657 370.875C265.186 371.536 264.509 372.214 263.154 373.569V373.569C261.798 374.924 261.121 375.602 260.65 376.263C258.247 379.639 258.247 384.166 260.65 387.542C261.121 388.203 261.798 388.881 263.154 390.236V390.236C264.509 391.591 265.186 392.269 265.657 392.93C268.061 396.305 268.061 400.833 265.657 404.208C265.186 404.87 264.509 405.547 263.154 406.902L257.251 412.805C255.909 414.148 255.909 416.324 257.251 417.666V417.666" stroke="#151515" stroke-width="2"/>
<path d="M293.013 334.333L287.111 340.236C285.755 341.591 285.078 342.269 284.607 342.93C282.204 346.305 282.204 350.833 284.607 354.208C285.078 354.87 285.755 355.547 287.111 356.902V356.902C288.466 358.258 289.144 358.935 289.614 359.597C292.018 362.972 292.018 367.5 289.614 370.875C289.144 371.536 288.466 372.214 287.111 373.569V373.569C285.755 374.924 285.078 375.602 284.607 376.263C282.204 379.639 282.204 384.166 284.607 387.542C285.078 388.203 285.755 388.881 287.111 390.236V390.236C288.466 391.591 289.144 392.269 289.614 392.93C292.018 396.305 292.018 400.833 289.614 404.208C289.144 404.87 288.466 405.547 287.111 406.902L281.208 412.805C279.866 414.148 279.866 416.324 281.208 417.666V417.666" stroke="#151515" stroke-width="2"/>
<path d="M316.974 334.333L311.072 340.236C309.716 341.591 309.039 342.269 308.568 342.93C306.165 346.305 306.165 350.833 308.568 354.208C309.039 354.87 309.716 355.547 311.072 356.902V356.902C312.427 358.258 313.104 358.935 313.575 359.597C315.979 362.972 315.979 367.5 313.575 370.875C313.104 371.536 312.427 372.214 311.072 373.569V373.569C309.716 374.924 309.039 375.602 308.568 376.263C306.165 379.639 306.165 384.166 308.568 387.542C309.039 388.203 309.716 388.881 311.072 390.236V390.236C312.427 391.591 313.104 392.269 313.575 392.93C315.979 396.305 315.979 400.833 313.575 404.208C313.104 404.87 312.427 405.547 311.072 406.902L305.169 412.805C303.826 414.148 303.826 416.324 305.169 417.666V417.666" stroke="#151515" stroke-width="2"/>
</g>
<rect x="1" y="1" width="417" height="500" stroke="#151515" stroke-width="2"/>
<defs>
<clipPath id="clip0_367_2550">
<rect x="1" y="1" width="417" height="500" fill="white"/>
</clipPath>
</defs>
</svg>
