<svg xmlns="http://www.w3.org/2000/svg" width="1174" height="724" viewBox="0 0 1174 724" fill="none">
<g clip-path="url(#clip0_923_2561)">
<rect x="2" y="2" width="1170" height="720" fill="#E37428"/>
<rect x="1172" y="722" width="206" height="120" transform="rotate(-180 1172 722)" fill="#F38EA1" stroke="black" stroke-width="3"/>
<rect x="1172" y="722" width="90" height="120" transform="rotate(-180 1172 722)" fill="#00A86B" stroke="black" stroke-width="3"/>
<path d="M1082 692L1171 692" stroke="black" stroke-width="3"/>
<path d="M1082 662L1171 662" stroke="black" stroke-width="3"/>
<path d="M1082 632L1171 632" stroke="black" stroke-width="3"/>
<rect x="722" y="2" width="240" height="120" fill="#00A86B" stroke="black" stroke-width="3"/>
<rect x="842" y="602" width="240" height="120" rx="60" fill="#262324" stroke="black" stroke-width="3"/>
<rect x="722" y="122" width="120" height="240" fill="#E37428" stroke="black" stroke-width="3"/>
<rect x="962" y="2" width="210" height="120" fill="#00A86B" stroke="black" stroke-width="3"/>
<path d="M722 482H842V362H722V460" stroke="black" stroke-width="3"/>
<path d="M722 422C722 388.863 748.863 362 782 362H842V482H782C748.863 482 722 455.137 722 422Z" fill="#C3222B" stroke="black" stroke-width="3"/>
<path d="M722 122H842C842 155.137 815.137 182 782 182C748.863 182 722 155.137 722 122Z" fill="#C3222B" stroke="black" stroke-width="3"/>
<path d="M842 362L722 362C722 328.863 748.863 302 782 302C815.137 302 842 328.863 842 362Z" fill="#C3222B" stroke="black" stroke-width="3"/>
<path d="M842 242C842 275.137 815.137 302 782 302C748.863 302 722 275.137 722 242C722 208.863 748.863 182 782 182C815.137 182 842 208.863 842 242Z" fill="#00A86B"/>
<path d="M722 242V242C722 275.137 748.863 302 782 302V302M722 242V242C722 208.863 748.863 182 782 182V182C815.137 182 842 208.863 842 242V242M722 242C742 242.5 782 255.2 782 302M782 302V302C815.137 302 842 275.137 842 242V242M782 302C781.333 282 792.4 242 842 242" stroke="black" stroke-width="3"/>
<rect x="722" y="482" width="120" height="240" fill="#E37428" stroke="black" stroke-width="3"/>
<rect x="722" y="482" width="60" height="60" rx="30" fill="#E4DD1C" stroke="black" stroke-width="3"/>
<rect x="520" y="367" width="164" height="92" fill="#444A8B" stroke="black" stroke-width="3"/>
<path d="M482 242H722V460H752V482H722H482V460V242Z" fill="#444A8B"/>
<path d="M482 460V482H722H752V460H722M482 460V242H722V460M482 460H722" stroke="black" stroke-width="3"/>
<rect x="482" y="482" width="240" height="240" fill="#E4DD1C" stroke="black" stroke-width="3"/>
<path d="M602 722C535.726 722 482 668.274 482 602H722C736.083 602 747.5 613.417 747.5 627.5V634.75C747.5 652.837 732.837 667.5 714.75 667.5H702.564C681.148 700.313 644.107 722 602 722Z" fill="#F38EA1"/>
<path d="M722 602H482C482 668.274 535.726 722 602 722C644.107 722 681.148 700.313 702.564 667.5M722 602C722 626.168 714.856 648.666 702.564 667.5M722 602V602C736.083 602 747.5 613.417 747.5 627.5V634.75C747.5 652.837 732.837 667.5 714.75 667.5H702.564" stroke="black" stroke-width="3"/>
<rect x="2" y="242" width="240" height="240" fill="#E4DD1C" stroke="black" stroke-width="3"/>
<path d="M2 242C134.548 242 242 349.452 242 482H122H2V242Z" fill="#E37428"/>
<path d="M2 242V242C134.548 242 242 349.452 242 482V482H122M2 242V482H122M2 242C107.6 298.4 126 425.5 122 482" stroke="black" stroke-width="3"/>
<path d="M2 242V482H122C126 425.5 107.6 298.4 2 242Z" fill="#444A8B" stroke="black" stroke-width="3"/>
<path d="M242 242H302H362V261.5V482H302H242V242Z" fill="#E4DD1C"/>
<path d="M302 482H362V261.5V242H302M302 482H242V242H302M302 482V321.5V242" stroke="black" stroke-width="3"/>
<path d="M962 122H1022H1082V141.5V362H1022H962V122Z" fill="#E4DD1C"/>
<path d="M1022 122H962V362H1022H1082V141.5V122H1022ZM1022 122V201.5V331.75" stroke="black" stroke-width="3"/>
<path d="M302 322.86C322 324.354 362 314.495 362 263.111C342 261.783 302 271.874 302 322.86Z" fill="#00A86B" stroke="black" stroke-width="3"/>
<path d="M1022 202.86C1042 204.354 1082 194.495 1082 143.111C1062 141.783 1022 151.874 1022 202.86Z" fill="#00A86B" stroke="black" stroke-width="3"/>
<path d="M781.942 249.942C790.898 242.231 803.457 221.456 782.046 200.046C773.16 207.826 760.697 228.697 781.942 249.942Z" fill="#E4DD1C" stroke="black" stroke-width="3"/>
<path d="M302 391.86C322 393.354 362 383.495 362 332.111C342 330.783 302 340.874 302 391.86Z" fill="#00A86B" stroke="black" stroke-width="3"/>
<path d="M1022 271.86C1042 273.354 1082 263.495 1082 212.111C1062 210.783 1022 220.874 1022 271.86Z" fill="#00A86B" stroke="black" stroke-width="3"/>
<path d="M302 460.86C322 462.354 362 452.495 362 401.111C342 399.783 302 409.874 302 460.86Z" fill="#00A86B" stroke="black" stroke-width="3"/>
<path d="M1048.95 336.5C1065.86 329.638 1082 313.754 1082 281.111C1063.29 279.868 1027.07 288.62 1022.48 331.5" stroke="black" stroke-width="3"/>
<path d="M302 322.86C282 324.354 242 314.495 242 263.111C262 261.783 302 271.874 302 322.86Z" fill="#00A86B" stroke="black" stroke-width="3"/>
<path d="M1022 202.86C1002 204.354 962 194.495 962 143.111C982 141.783 1022 151.874 1022 202.86Z" fill="#00A86B" stroke="black" stroke-width="3"/>
<path d="M302 391.86C282 393.354 242 383.495 242 332.111C262 330.783 302 340.874 302 391.86Z" fill="#00A86B" stroke="black" stroke-width="3"/>
<path d="M1022 271.86C1002 273.354 962 263.495 962 212.111C982 210.783 1022 220.874 1022 271.86Z" fill="#00A86B" stroke="black" stroke-width="3"/>
<path d="M302 460.86C282 462.354 242 452.495 242 401.111C262 399.783 302 409.874 302 460.86Z" fill="#00A86B" stroke="black" stroke-width="3"/>
<path d="M1021.52 331.5C1016.93 288.62 980.711 279.868 962 281.111C962 314.368 978.756 330.23 996 336.878" stroke="black" stroke-width="3"/>
<rect x="362" y="242" width="120" height="120" fill="#C3222B" stroke="black" stroke-width="3"/>
<rect x="842" y="122" width="120" height="120" fill="#444A8B" stroke="black" stroke-width="3"/>
<path d="M782 2H722V62L782 2Z" fill="#00A86B" stroke="black" stroke-width="3" stroke-linejoin="round"/>
<path d="M842 2H782V62L842 2Z" fill="#00A86B" stroke="black" stroke-width="3" stroke-linejoin="round"/>
<path d="M782 62H722V122L782 62Z" fill="#00A86B" stroke="black" stroke-width="3" stroke-linejoin="round"/>
<path d="M842 62H782V122L842 62Z" fill="#00A86B" stroke="black" stroke-width="3" stroke-linejoin="round"/>
<path d="M842 122L962 122L962 2L842 122Z" fill="#00A86B" stroke="black" stroke-width="3" stroke-linejoin="round"/>
<rect x="842" y="242" width="120" height="120" fill="#E37428" stroke="black" stroke-width="3"/>
<rect x="1082" y="242" width="90" height="120" fill="#444A8B" stroke="black" stroke-width="3"/>
<rect x="1082" y="345" width="90" height="17" fill="#E3E3E3" stroke="black" stroke-width="3"/>
<rect x="1082" y="345" width="90" height="17" fill="#00A86B" stroke="black" stroke-width="3"/>
<rect x="1102" y="328" width="50" height="17" fill="#E3E3E3" stroke="black" stroke-width="3"/>
<rect x="1102" y="328" width="50" height="17" fill="#00A86B" stroke="black" stroke-width="3"/>
<path d="M1091 301H1163L1159 328H1095L1091 301Z" fill="#00A86B" stroke="black" stroke-width="3"/>
<path d="M1082 122H1172V242C1122.29 242 1082 201.706 1082 152V122Z" fill="#262324" stroke="black" stroke-width="3"/>
<path d="M1127 122H1172V182C1147.15 182 1127 161.853 1127 137V122Z" fill="#E37428" stroke="black" stroke-width="3"/>
<path d="M1147 122H1172V155C1158.19 155 1147 143.807 1147 130V122Z" fill="white" stroke="black" stroke-width="3"/>
<path d="M842 362H860H962H1021.75H1081.5H1172V602H1104.5H1021.75H926.5H842V362Z" fill="#F38EA1"/>
<path d="M842 362V602H926.5M842 362H860M842 362C849.667 368.333 865.9 388.5 869.5 418.5C874 456 868 602 926.5 602M962 362H1021.75M962 362L938.111 523.5M962 362H860M926.5 602H1021.75M926.5 602L938.111 523.5M1104.5 602H1172V362H1081.5M1104.5 602H1021.75M1104.5 602L1100.57 561M1081.5 362H1021.75M1081.5 362L1082.46 372M1021.75 362V523.5M1021.75 602V591.25M1021.75 602L1099.95 554.5M1021.75 523.5H938.111M1021.75 523.5L1092.86 480.5M1021.75 523.5V537M938.111 523.5C924.908 524.833 900.518 512.931 895.5 455.5C891 404 870.833 369.167 860 362M1092.86 480.5L1094.01 492.5M1092.86 480.5L1083.9 387M1094.01 492.5L1021.75 537M1094.01 492.5L1095.11 504M1021.75 537V547M1021.75 547L1095.11 504M1021.75 547V557.5M1095.11 504L1096.16 515M1096.16 515L1021.75 557.5M1096.16 515L1097.12 525M1021.75 557.5V567M1021.75 567L1097.12 525M1021.75 567V580.5M1097.12 525L1098.08 535M1098.08 535L1021.75 580.5M1098.08 535L1098.55 539.947M1021.75 580.5V591.25M1021.75 591.25L1098.99 544.5M1098.99 544.5L1099.95 554.5M1098.99 544.5L1098.55 539.947M1099.95 554.5L1100.57 561M1082.46 372V372C1124.91 372 1158.97 407.074 1157.73 449.508L1157.14 469.429C1156.41 494.451 1145.8 518.165 1127.62 535.379L1100.57 561M1082.46 372L1083.9 387M1083.9 387V387C1116.81 387 1143.5 413.686 1143.5 446.604V463.368C1143.5 483.621 1135.45 503.046 1121.13 517.368L1098.55 539.947" stroke="black" stroke-width="3"/>
<path d="M361.613 482H421.806H481.999V573.842V655V722H361.613V655V563V482Z" fill="#444A8B"/>
<path d="M361.613 655V722H481.999V655M361.613 655H481.999M361.613 655V563M481.999 655V573.842M421.806 482H361.613V563M421.806 482H481.999V573.842M421.806 482V607M421.806 607H393.999M421.806 607H448.999M361.613 563L366.542 567.929C370.447 571.834 376.779 571.834 380.684 567.929L384.428 564.185C388.333 560.28 394.665 560.28 398.57 564.185L403.428 569.043C407.333 572.948 413.665 572.948 417.57 569.043L422.428 564.185C426.333 560.28 432.665 560.28 436.57 564.185L440.314 567.929C444.219 571.834 450.551 571.834 454.456 567.929L458.2 564.185C462.105 560.28 468.437 560.28 472.342 564.185L481.999 573.842" stroke="black" stroke-width="3"/>
<path d="M362 362H482V460V482H362V460V362Z" fill="#F38EA1"/>
<path d="M362 460V482H482V460M362 460V362H482V460M362 460H422M482 460H422M422 460V435.5" stroke="black" stroke-width="3"/>
<path d="M782 512L842 512" stroke="black" stroke-width="3"/>
<path d="M722 542H842" stroke="black" stroke-width="3"/>
<path d="M722 572H842" stroke="black" stroke-width="3"/>
<path d="M722 602H842" stroke="black" stroke-width="3"/>
<path d="M560.5 297C560.5 308.322 551.322 317.5 540 317.5C534.598 317.5 529.686 315.412 526.023 311.997C522.008 308.252 519.5 302.92 519.5 297C519.5 285.678 528.678 276.5 540 276.5C551.322 276.5 560.5 285.678 560.5 297Z" fill="#E37428" stroke="black" stroke-width="3"/>
<path d="M622.5 297C622.5 308.322 613.322 317.5 602 317.5C590.678 317.5 581.5 308.322 581.5 297C581.5 285.678 590.678 276.5 602 276.5C613.322 276.5 622.5 285.678 622.5 297Z" fill="#E37428" stroke="black" stroke-width="3"/>
<path d="M684.5 297C684.5 308.322 675.322 317.5 664 317.5C652.678 317.5 643.5 308.322 643.5 297C643.5 285.678 652.678 276.5 664 276.5C675.322 276.5 684.5 285.678 684.5 297Z" fill="#E37428" stroke="black" stroke-width="3"/>
<circle cx="552" cy="389" r="9" fill="#E37428" stroke="black" stroke-width="3"/>
<circle cx="577" cy="389" r="9" fill="#E37428" stroke="black" stroke-width="3"/>
<circle cx="602" cy="389" r="9" fill="#E37428" stroke="black" stroke-width="3"/>
<circle cx="627" cy="389" r="9" fill="#E37428" stroke="black" stroke-width="3"/>
<circle cx="652" cy="389" r="9" fill="#E37428" stroke="black" stroke-width="3"/>
<circle cx="565" cy="412" r="9" fill="#E37428" stroke="black" stroke-width="3"/>
<circle cx="590" cy="412" r="9" fill="#E37428" stroke="black" stroke-width="3"/>
<circle cx="615" cy="412" r="9" fill="#E37428" stroke="black" stroke-width="3"/>
<circle cx="640" cy="412" r="9" fill="#E37428" stroke="black" stroke-width="3"/>
<circle cx="552" cy="435" r="9" fill="#E37428" stroke="black" stroke-width="3"/>
<circle cx="577" cy="435" r="9" fill="#E37428" stroke="black" stroke-width="3"/>
<circle cx="602" cy="435" r="9" fill="#E37428" stroke="black" stroke-width="3"/>
<circle cx="397" cy="279" r="9" fill="#E4DD1C" stroke="black" stroke-width="3"/>
<circle cx="877" cy="159" r="9" fill="#E37428" stroke="black" stroke-width="3"/>
<circle cx="422" cy="279" r="9" fill="#E4DD1C" stroke="black" stroke-width="3"/>
<circle cx="902" cy="159" r="9" fill="#E37428" stroke="black" stroke-width="3"/>
<circle cx="447" cy="279" r="9" fill="#E4DD1C" stroke="black" stroke-width="3"/>
<circle cx="927" cy="159" r="9" fill="#E37428" stroke="black" stroke-width="3"/>
<circle cx="410" cy="302" r="9" fill="#E4DD1C" stroke="black" stroke-width="3"/>
<circle cx="890" cy="182" r="9" fill="#E37428" stroke="black" stroke-width="3"/>
<circle cx="435" cy="302" r="9" fill="#E4DD1C" stroke="black" stroke-width="3"/>
<circle cx="915" cy="182" r="9" fill="#E37428" stroke="black" stroke-width="3"/>
<circle cx="397" cy="325" r="9" fill="#E4DD1C" stroke="black" stroke-width="3"/>
<circle cx="877" cy="205" r="9" fill="#E37428" stroke="black" stroke-width="3"/>
<circle cx="422" cy="325" r="9" fill="#E4DD1C" stroke="black" stroke-width="3"/>
<circle cx="902" cy="205" r="9" fill="#E37428" stroke="black" stroke-width="3"/>
<circle cx="447" cy="325" r="9" fill="#E4DD1C" stroke="black" stroke-width="3"/>
<circle cx="927" cy="205" r="9" fill="#E37428" stroke="black" stroke-width="3"/>
<circle cx="627" cy="435" r="9" fill="#E37428" stroke="black" stroke-width="3"/>
<circle cx="652" cy="435" r="9" fill="#E37428" stroke="black" stroke-width="3"/>
<rect x="409" y="411" width="26" height="26" fill="#E4DD1C" stroke="black" stroke-width="3"/>
<path d="M524.5 482L516 490.5C514.048 492.452 513.073 493.427 512.395 494.38C508.934 499.24 508.934 505.76 512.395 510.62C513.073 511.573 514.048 512.548 516 514.5V514.5C517.952 516.452 518.927 517.427 519.605 518.38C523.066 523.24 523.066 529.76 519.605 534.62C518.927 535.573 517.952 536.548 516 538.5V538.5C514.048 540.452 513.073 541.427 512.395 542.38C508.934 547.24 508.934 553.76 512.395 558.62C513.073 559.573 514.048 560.548 516 562.5V562.5C517.952 564.452 518.927 565.427 519.605 566.38C523.066 571.24 523.066 577.76 519.605 582.62C518.927 583.573 517.952 584.548 516 586.5L507.5 595C505.567 596.933 505.567 600.067 507.5 602V602" stroke="black" stroke-width="3"/>
<path d="M559 482L550.5 490.5C548.548 492.452 547.573 493.427 546.895 494.38C543.434 499.24 543.434 505.76 546.895 510.62C547.573 511.573 548.548 512.548 550.5 514.5V514.5C552.452 516.452 553.427 517.427 554.105 518.38C557.566 523.24 557.566 529.76 554.105 534.62C553.427 535.573 552.452 536.548 550.5 538.5V538.5C548.548 540.452 547.573 541.427 546.895 542.38C543.434 547.24 543.434 553.76 546.895 558.62C547.573 559.573 548.548 560.548 550.5 562.5V562.5C552.452 564.452 553.427 565.427 554.105 566.38C557.566 571.24 557.566 577.76 554.105 582.62C553.427 583.573 552.452 584.548 550.5 586.5L542 595C540.067 596.933 540.067 600.067 542 602V602" stroke="black" stroke-width="3"/>
<path d="M593.5 482L585 490.5C583.048 492.452 582.073 493.427 581.395 494.38C577.934 499.24 577.934 505.76 581.395 510.62C582.073 511.573 583.048 512.548 585 514.5V514.5C586.952 516.452 587.927 517.427 588.605 518.38C592.066 523.24 592.066 529.76 588.605 534.62C587.927 535.573 586.952 536.548 585 538.5V538.5C583.048 540.452 582.073 541.427 581.395 542.38C577.934 547.24 577.934 553.76 581.395 558.62C582.073 559.573 583.048 560.548 585 562.5V562.5C586.952 564.452 587.927 565.427 588.605 566.38C592.066 571.24 592.066 577.76 588.605 582.62C587.927 583.573 586.952 584.548 585 586.5L576.5 595C574.567 596.933 574.567 600.067 576.5 602V602" stroke="black" stroke-width="3"/>
<path d="M628 482L619.5 490.5C617.548 492.452 616.573 493.427 615.895 494.38C612.434 499.24 612.434 505.76 615.895 510.62C616.573 511.573 617.548 512.548 619.5 514.5V514.5C621.452 516.452 622.427 517.427 623.105 518.38C626.566 523.24 626.566 529.76 623.105 534.62C622.427 535.573 621.452 536.548 619.5 538.5V538.5C617.548 540.452 616.573 541.427 615.895 542.38C612.434 547.24 612.434 553.76 615.895 558.62C616.573 559.573 617.548 560.548 619.5 562.5V562.5C621.452 564.452 622.427 565.427 623.105 566.38C626.566 571.24 626.566 577.76 623.105 582.62C622.427 583.573 621.452 584.548 619.5 586.5L611 595C609.067 596.933 609.067 600.067 611 602V602" stroke="black" stroke-width="3"/>
<path d="M662.5 482L654 490.5C652.048 492.452 651.073 493.427 650.395 494.38C646.934 499.24 646.934 505.76 650.395 510.62C651.073 511.573 652.048 512.548 654 514.5V514.5C655.952 516.452 656.927 517.427 657.605 518.38C661.066 523.24 661.066 529.76 657.605 534.62C656.927 535.573 655.952 536.548 654 538.5V538.5C652.048 540.452 651.073 541.427 650.395 542.38C646.934 547.24 646.934 553.76 650.395 558.62C651.073 559.573 652.048 560.548 654 562.5V562.5C655.952 564.452 656.927 565.427 657.605 566.38C661.066 571.24 661.066 577.76 657.605 582.62C656.927 583.573 655.952 584.548 654 586.5L645.5 595C643.567 596.933 643.567 600.067 645.5 602V602" stroke="black" stroke-width="3"/>
<path d="M697 482L688.5 490.5C686.548 492.452 685.573 493.427 684.895 494.38C681.434 499.24 681.434 505.76 684.895 510.62C685.573 511.573 686.548 512.548 688.5 514.5V514.5C690.452 516.452 691.427 517.427 692.105 518.38C695.566 523.24 695.566 529.76 692.105 534.62C691.427 535.573 690.452 536.548 688.5 538.5V538.5C686.548 540.452 685.573 541.427 684.895 542.38C681.434 547.24 681.434 553.76 684.895 558.62C685.573 559.573 686.548 560.548 688.5 562.5V562.5C690.452 564.452 691.427 565.427 692.105 566.38C695.566 571.24 695.566 577.76 692.105 582.62C691.427 583.573 690.452 584.548 688.5 586.5L680 595C678.067 596.933 678.067 600.067 680 602V602" stroke="black" stroke-width="3"/>
<path d="M1022 332C997.315 332 975.379 343.768 961.496 362H1082.5C1068.62 343.768 1046.68 332 1022 332Z" fill="#E4DD1C" stroke="black" stroke-width="3"/>
<path d="M1025.5 58C1025.5 69.3218 1016.32 78.5 1005 78.5C999.598 78.5 994.686 76.4122 991.023 72.9965C987.008 69.2524 984.5 63.9202 984.5 58C984.5 46.6782 993.678 37.5 1005 37.5C1016.32 37.5 1025.5 46.6782 1025.5 58Z" fill="#E4DD1C" stroke="black" stroke-width="3"/>
<path d="M1087.5 58C1087.5 69.3218 1078.32 78.5 1067 78.5C1055.68 78.5 1046.5 69.3218 1046.5 58C1046.5 46.6782 1055.68 37.5 1067 37.5C1078.32 37.5 1087.5 46.6782 1087.5 58Z" fill="#E4DD1C" stroke="black" stroke-width="3"/>
<path d="M1149.5 58C1149.5 69.3218 1140.32 78.5 1129 78.5C1117.68 78.5 1108.5 69.3218 1108.5 58C1108.5 46.6782 1117.68 37.5 1129 37.5C1140.32 37.5 1149.5 46.6782 1149.5 58Z" fill="#E4DD1C" stroke="black" stroke-width="3"/>
<path d="M1126.98 322.981C1129.85 320.514 1133.87 313.866 1127.01 307.015C1124.17 309.505 1120.18 316.183 1126.98 322.981Z" fill="#262324" stroke="black" stroke-width="3"/>
<path d="M1142.98 322.981C1145.85 320.514 1149.87 313.866 1143.01 307.015C1140.17 309.505 1136.18 316.183 1142.98 322.981Z" fill="#262324" stroke="black" stroke-width="3"/>
<path d="M1110.98 322.981C1113.85 320.514 1117.87 313.866 1111.01 307.015C1108.17 309.505 1104.18 316.183 1110.98 322.981Z" fill="#262324" stroke="black" stroke-width="3"/>
<g clip-path="url(#clip1_923_2561)">
<rect x="185" y="553" width="208.356" height="208.356" rx="104.178" fill="#444A8B" stroke="black" stroke-width="2.60445"/>
<rect x="210" y="578" width="158" height="158" rx="79" fill="#00A86B" stroke="black" stroke-width="2.60445"/>
<rect x="235" y="603" width="108" height="108" rx="54" fill="#E4DD1C" stroke="black" stroke-width="2.60445"/>
<rect x="256" y="624" width="66" height="66" rx="33" fill="#C3222B" stroke="black" stroke-width="2.60445"/>
</g>
<path d="M-78 722L88.5 482L255 722H88.5H-78Z" fill="#E4DD1C"/>
<path d="M88.5 482L-78 722H88.5M88.5 482L255 722H88.5M88.5 482V722" stroke="black" stroke-width="2.60445"/>
<path d="M152 722L235 602L318 722H235H152Z" fill="#00A86B"/>
<path d="M235 602L152 722H235M235 602L318 722H235M235 602V722" stroke="black" stroke-width="2.60445"/>
</g>
<rect x="2" y="2" width="1170" height="720" stroke="black" stroke-width="3"/>
<path d="M54.8 41.52V45.36H38.76V53.4H53.28V57.16H38.76V66.16H54.68V70H34.48V41.52H54.8ZM68.8766 56.92L71.6366 49.36H75.8766L67.9566 70H63.5166L55.6366 49.36H59.9566L62.7566 56.92C64.6499 62.5467 65.6632 65.6133 65.7966 66.12C65.8766 65.8533 66.0499 65.32 66.3166 64.52C66.5832 63.72 66.9566 62.6267 67.4366 61.24C67.9166 59.8267 68.3966 58.3867 68.8766 56.92ZM95.7706 59.84V61H80.2106C80.3973 63.0267 80.9973 64.56 82.0106 65.6C83.024 66.6133 84.3973 67.12 86.1306 67.12C88.744 67.12 90.4506 65.9733 91.2506 63.68H95.2906C94.7306 65.7867 93.6373 67.4533 92.0106 68.68C90.4106 69.88 88.424 70.48 86.0506 70.48C83.0906 70.48 80.704 69.4933 78.8906 67.52C77.0773 65.5467 76.1706 62.9333 76.1706 59.68C76.1706 56.4267 77.0773 53.8133 78.8906 51.84C80.704 49.8667 83.064 48.88 85.9706 48.88C89.0106 48.88 91.4106 49.9067 93.1706 51.96C94.904 54.0133 95.7706 56.64 95.7706 59.84ZM85.9706 52.24C84.3973 52.24 83.104 52.72 82.0906 53.68C81.104 54.64 80.4906 56.0267 80.2506 57.84H91.6506C91.464 56.16 90.864 54.8133 89.8506 53.8C88.864 52.76 87.5706 52.24 85.9706 52.24ZM109.598 49.04C110.185 49.04 110.571 49.0533 110.758 49.08V52.88H109.758C107.705 52.88 106.118 53.3867 104.998 54.4C103.878 55.4133 103.318 56.88 103.318 58.8V70H99.3181V49.36H103.158V53.04C104.465 50.3733 106.611 49.04 109.598 49.04ZM125.003 56.44L127.403 49.36H131.643L123.243 72.6C122.549 74.5733 121.629 75.96 120.483 76.76C119.336 77.56 117.709 77.96 115.603 77.96C114.883 77.96 114.189 77.92 113.523 77.84V74.6H115.523C117.309 74.6 118.509 73.7733 119.123 72.12C119.176 71.96 119.256 71.7067 119.363 71.36C119.496 71.0133 119.603 70.7467 119.683 70.56L112.043 49.36H116.403L118.803 56.44C120.083 60.3867 121.109 63.68 121.883 66.32C122.923 62.9333 123.963 59.64 125.003 56.44ZM149.771 70.52C144.037 70.52 141.024 68.16 140.731 63.44H144.731C144.891 64.88 145.357 65.8933 146.131 66.48C146.904 67.0667 148.131 67.36 149.811 67.36C152.851 67.36 154.371 66.4 154.371 64.48C154.371 63.6533 154.051 63.0133 153.411 62.56C152.771 62.1067 151.624 61.7333 149.971 61.44L147.851 61.04C143.477 60.24 141.291 58.1867 141.291 54.88C141.291 53.04 141.997 51.5867 143.411 50.52C144.824 49.4267 146.771 48.88 149.251 48.88C154.931 48.88 157.837 51.1867 157.971 55.8H154.091C154.011 54.4133 153.584 53.44 152.811 52.88C152.037 52.2933 150.851 52 149.251 52C147.971 52 146.984 52.24 146.291 52.72C145.597 53.2 145.251 53.88 145.251 54.76C145.251 55.56 145.557 56.1867 146.171 56.64C146.784 57.0667 147.757 57.4133 149.091 57.68L151.251 58.04C153.784 58.52 155.611 59.24 156.731 60.2C157.851 61.16 158.411 62.4933 158.411 64.2C158.411 66.2 157.651 67.76 156.131 68.88C154.611 69.9733 152.491 70.52 149.771 70.52ZM165.428 46.44H161.348V42.16H165.428V46.44ZM165.388 70H161.388V49.36H165.388V70ZM180.185 48.88C182.452 48.88 184.225 49.52 185.505 50.8C186.785 52.0533 187.425 53.84 187.425 56.16V70H183.425V56.72C183.425 53.84 181.972 52.4 179.065 52.4C177.732 52.4 176.532 52.9067 175.465 53.92C174.398 54.96 173.865 56.44 173.865 58.36V70H169.865V49.36H173.705V52.44C175.278 50.0667 177.438 48.88 180.185 48.88ZM207.255 52.28V49.36H211.095V69.24C211.095 72.0667 210.242 74.28 208.535 75.88C206.829 77.5067 204.402 78.32 201.255 78.32C198.562 78.32 196.415 77.7067 194.815 76.48C193.242 75.2533 192.349 73.5733 192.135 71.44H196.135C196.455 73.8667 198.175 75.08 201.295 75.08C205.162 75.08 207.095 73.16 207.095 69.32V67.04C205.522 69.1733 203.309 70.24 200.455 70.24C197.575 70.24 195.282 69.2667 193.575 67.32C191.842 65.3467 190.975 62.76 190.975 59.56C190.975 56.36 191.842 53.7733 193.575 51.8C195.282 49.8533 197.562 48.88 200.415 48.88C203.429 48.88 205.709 50.0133 207.255 52.28ZM201.175 66.8C203.042 66.8 204.509 66.16 205.575 64.88C206.669 63.5733 207.215 61.8 207.215 59.56C207.215 57.32 206.669 55.56 205.575 54.28C204.509 52.9733 203.042 52.32 201.175 52.32C199.335 52.32 197.869 52.9733 196.775 54.28C195.682 55.5867 195.135 57.3467 195.135 59.56C195.135 61.8 195.682 63.5733 196.775 64.88C197.869 66.16 199.335 66.8 201.175 66.8ZM219.607 70H215.607V41.52H219.607V70ZM242.724 59.84V61H227.164C227.35 63.0267 227.95 64.56 228.964 65.6C229.977 66.6133 231.35 67.12 233.084 67.12C235.697 67.12 237.404 65.9733 238.204 63.68H242.244C241.684 65.7867 240.59 67.4533 238.964 68.68C237.364 69.88 235.377 70.48 233.004 70.48C230.044 70.48 227.657 69.4933 225.844 67.52C224.03 65.5467 223.124 62.9333 223.124 59.68C223.124 56.4267 224.03 53.8133 225.844 51.84C227.657 49.8667 230.017 48.88 232.924 48.88C235.964 48.88 238.364 49.9067 240.124 51.96C241.857 54.0133 242.724 56.64 242.724 59.84ZM232.924 52.24C231.35 52.24 230.057 52.72 229.044 53.68C228.057 54.64 227.444 56.0267 227.204 57.84H238.604C238.417 56.16 237.817 54.8133 236.804 53.8C235.817 52.76 234.524 52.24 232.924 52.24ZM258.357 70H254.357V41.52H258.357V70ZM279.514 67.52C277.62 69.4933 275.154 70.48 272.114 70.48C269.074 70.48 266.607 69.4933 264.714 67.52C262.82 65.5467 261.874 62.9333 261.874 59.68C261.874 56.4 262.82 53.7733 264.714 51.8C266.58 49.8533 269.047 48.88 272.114 48.88C275.18 48.88 277.647 49.8533 279.514 51.8C281.38 53.7467 282.314 56.3733 282.314 59.68C282.314 62.96 281.38 65.5733 279.514 67.52ZM267.674 65.08C268.767 66.3867 270.247 67.04 272.114 67.04C273.98 67.04 275.447 66.3867 276.514 65.08C277.607 63.7733 278.154 61.9733 278.154 59.68C278.154 57.3867 277.607 55.5867 276.514 54.28C275.447 52.9733 273.98 52.32 272.114 52.32C270.247 52.32 268.767 52.9733 267.674 54.28C266.58 55.5867 266.034 57.3867 266.034 59.68C266.034 61.9733 266.58 63.7733 267.674 65.08ZM294.509 49.36V52.64H290.349V65.04C290.349 65.6533 290.522 66.1067 290.869 66.4C291.242 66.6667 291.855 66.8 292.709 66.8H294.509V70C293.629 70.08 292.815 70.12 292.069 70.12C290.122 70.12 288.682 69.7467 287.749 69C286.815 68.2533 286.349 67.0533 286.349 65.4V52.64H283.029V49.36H286.349V43.44H290.349V49.36H294.509ZM322.483 67.52C320.589 69.4933 318.123 70.48 315.083 70.48C312.043 70.48 309.576 69.4933 307.683 67.52C305.789 65.5467 304.843 62.9333 304.843 59.68C304.843 56.4 305.789 53.7733 307.683 51.8C309.549 49.8533 312.016 48.88 315.083 48.88C318.149 48.88 320.616 49.8533 322.483 51.8C324.349 53.7467 325.283 56.3733 325.283 59.68C325.283 62.96 324.349 65.5733 322.483 67.52ZM310.643 65.08C311.736 66.3867 313.216 67.04 315.083 67.04C316.949 67.04 318.416 66.3867 319.483 65.08C320.576 63.7733 321.123 61.9733 321.123 59.68C321.123 57.3867 320.576 55.5867 319.483 54.28C318.416 52.9733 316.949 52.32 315.083 52.32C313.216 52.32 311.736 52.9733 310.643 54.28C309.549 55.5867 309.003 57.3867 309.003 59.68C309.003 61.9733 309.549 63.7733 310.643 65.08ZM338.149 44.76H336.349C334.562 44.76 333.669 45.6667 333.669 47.48V49.36H337.989V52.64H333.669V70H329.669V52.64H326.349V49.36H329.669V47.48C329.669 43.4267 331.736 41.4 335.869 41.4C336.269 41.4 337.029 41.44 338.149 41.52V44.76ZM366.115 67.52C364.222 69.4933 361.755 70.48 358.715 70.48C355.675 70.48 353.209 69.4933 351.315 67.52C349.422 65.5467 348.475 62.9333 348.475 59.68C348.475 56.4 349.422 53.7733 351.315 51.8C353.182 49.8533 355.649 48.88 358.715 48.88C361.782 48.88 364.249 49.8533 366.115 51.8C367.982 53.7467 368.915 56.3733 368.915 59.68C368.915 62.96 367.982 65.5733 366.115 67.52ZM354.275 65.08C355.369 66.3867 356.849 67.04 358.715 67.04C360.582 67.04 362.049 66.3867 363.115 65.08C364.209 63.7733 364.755 61.9733 364.755 59.68C364.755 57.3867 364.209 55.5867 363.115 54.28C362.049 52.9733 360.582 52.32 358.715 52.32C356.849 52.32 355.369 52.9733 354.275 54.28C353.182 55.5867 352.635 57.3867 352.635 59.68C352.635 61.9733 353.182 63.7733 354.275 65.08ZM385.456 61V49.36H389.456V70H385.616V66.92C384.043 69.2933 381.883 70.48 379.136 70.48C376.87 70.48 375.096 69.84 373.816 68.56C372.536 67.28 371.896 65.4933 371.896 63.2V49.36H375.896V62.64C375.896 65.52 377.35 66.96 380.256 66.96C381.723 66.96 382.95 66.44 383.936 65.4C384.95 64.3333 385.456 62.8667 385.456 61ZM404.247 49.04C404.833 49.04 405.22 49.0533 405.407 49.08V52.88H404.407C402.353 52.88 400.767 53.3867 399.647 54.4C398.527 55.4133 397.967 56.88 397.967 58.8V70H393.967V49.36H397.807V53.04C399.113 50.3733 401.26 49.04 404.247 49.04ZM425.581 70.48C422.648 70.48 420.274 69.4933 418.461 67.52C416.648 65.5467 415.741 62.9333 415.741 59.68C415.741 56.4 416.648 53.7733 418.461 51.8C420.248 49.8533 422.621 48.88 425.581 48.88C428.114 48.88 430.194 49.5733 431.821 50.96C433.474 52.3467 434.461 54.2133 434.781 56.56H430.701C430.434 55.2 429.834 54.16 428.901 53.44C427.994 52.72 426.888 52.36 425.581 52.36C423.848 52.36 422.461 53 421.421 54.28C420.408 55.5333 419.901 57.3333 419.901 59.68C419.901 62.0267 420.408 63.84 421.421 65.12C422.461 66.3733 423.848 67 425.581 67C426.914 67 428.048 66.6267 428.981 65.88C429.914 65.1333 430.501 64.0533 430.741 62.64H434.821C434.501 65.04 433.501 66.9467 431.821 68.36C430.141 69.7733 428.061 70.48 425.581 70.48ZM454.67 67.52C452.777 69.4933 450.31 70.48 447.27 70.48C444.23 70.48 441.763 69.4933 439.87 67.52C437.977 65.5467 437.03 62.9333 437.03 59.68C437.03 56.4 437.977 53.7733 439.87 51.8C441.737 49.8533 444.203 48.88 447.27 48.88C450.337 48.88 452.803 49.8533 454.67 51.8C456.537 53.7467 457.47 56.3733 457.47 59.68C457.47 62.96 456.537 65.5733 454.67 67.52ZM442.83 65.08C443.923 66.3867 445.403 67.04 447.27 67.04C449.137 67.04 450.603 66.3867 451.67 65.08C452.763 63.7733 453.31 61.9733 453.31 59.68C453.31 57.3867 452.763 55.5867 451.67 54.28C450.603 52.9733 449.137 52.32 447.27 52.32C445.403 52.32 443.923 52.9733 442.83 54.28C441.737 55.5867 441.19 57.3867 441.19 59.68C441.19 61.9733 441.737 63.7733 442.83 65.08ZM470.337 44.76H468.537C466.75 44.76 465.857 45.6667 465.857 47.48V49.36H470.177V52.64H465.857V70H461.857V52.64H458.537V49.36H461.857V47.48C461.857 43.4267 463.923 41.4 468.057 41.4C468.457 41.4 469.217 41.44 470.337 41.52V44.76ZM483.657 44.76H481.857C480.07 44.76 479.177 45.6667 479.177 47.48V49.36H483.497V52.64H479.177V70H475.177V52.64H471.857V49.36H475.177V47.48C475.177 43.4267 477.244 41.4 481.377 41.4C481.777 41.4 482.537 41.44 483.657 41.52V44.76ZM504.052 59.84V61H488.492C488.679 63.0267 489.279 64.56 490.292 65.6C491.305 66.6133 492.679 67.12 494.412 67.12C497.025 67.12 498.732 65.9733 499.532 63.68H503.572C503.012 65.7867 501.919 67.4533 500.292 68.68C498.692 69.88 496.705 70.48 494.332 70.48C491.372 70.48 488.985 69.4933 487.172 67.52C485.359 65.5467 484.452 62.9333 484.452 59.68C484.452 56.4267 485.359 53.8133 487.172 51.84C488.985 49.8667 491.345 48.88 494.252 48.88C497.292 48.88 499.692 49.9067 501.452 51.96C503.185 54.0133 504.052 56.64 504.052 59.84ZM494.252 52.24C492.679 52.24 491.385 52.72 490.372 53.68C489.385 54.64 488.772 56.0267 488.532 57.84H499.932C499.745 56.16 499.145 54.8133 498.132 53.8C497.145 52.76 495.852 52.24 494.252 52.24ZM526.239 59.84V61H510.679C510.866 63.0267 511.466 64.56 512.479 65.6C513.493 66.6133 514.866 67.12 516.599 67.12C519.213 67.12 520.919 65.9733 521.719 63.68H525.759C525.199 65.7867 524.106 67.4533 522.479 68.68C520.879 69.88 518.893 70.48 516.519 70.48C513.559 70.48 511.173 69.4933 509.359 67.52C507.546 65.5467 506.639 62.9333 506.639 59.68C506.639 56.4267 507.546 53.8133 509.359 51.84C511.173 49.8667 513.533 48.88 516.439 48.88C519.479 48.88 521.879 49.9067 523.639 51.96C525.373 54.0133 526.239 56.64 526.239 59.84ZM516.439 52.24C514.866 52.24 513.573 52.72 512.559 53.68C511.573 54.64 510.959 56.0267 510.719 57.84H522.119C521.933 56.16 521.333 54.8133 520.319 53.8C519.333 52.76 518.039 52.24 516.439 52.24ZM541.913 46.44H537.833V42.16H541.913V46.44ZM541.873 70H537.873V49.36H541.873V70ZM553.989 70.52C548.256 70.52 545.243 68.16 544.949 63.44H548.949C549.109 64.88 549.576 65.8933 550.349 66.48C551.123 67.0667 552.349 67.36 554.029 67.36C557.069 67.36 558.589 66.4 558.589 64.48C558.589 63.6533 558.269 63.0133 557.629 62.56C556.989 62.1067 555.843 61.7333 554.189 61.44L552.069 61.04C547.696 60.24 545.509 58.1867 545.509 54.88C545.509 53.04 546.216 51.5867 547.629 50.52C549.043 49.4267 550.989 48.88 553.469 48.88C559.149 48.88 562.056 51.1867 562.189 55.8H558.309C558.229 54.4133 557.803 53.44 557.029 52.88C556.256 52.2933 555.069 52 553.469 52C552.189 52 551.203 52.24 550.509 52.72C549.816 53.2 549.469 53.88 549.469 54.76C549.469 55.56 549.776 56.1867 550.389 56.64C551.003 57.0667 551.976 57.4133 553.309 57.68L555.469 58.04C558.003 58.52 559.829 59.24 560.949 60.2C562.069 61.16 562.629 62.4933 562.629 64.2C562.629 66.2 561.869 67.76 560.349 68.88C558.829 69.9733 556.709 70.52 553.989 70.52ZM44.56 94.88C46.8267 94.88 48.6 95.52 49.88 96.8C51.16 98.0533 51.8 99.84 51.8 102.16V116H47.8V102.72C47.8 99.84 46.3467 98.4 43.44 98.4C42.1067 98.4 40.9067 98.9067 39.84 99.92C38.7733 100.96 38.24 102.44 38.24 104.36V116H34.24V87.52H38.24V98.2C39.8133 95.9867 41.92 94.88 44.56 94.88ZM74.0703 112.92H75.1903V116C74.6036 116.08 73.9503 116.12 73.2303 116.12C71.9503 116.12 70.9903 115.893 70.3503 115.44C69.737 114.96 69.3636 114.213 69.2303 113.2C67.8436 115.387 65.6036 116.48 62.5103 116.48C60.2436 116.48 58.4436 115.947 57.1103 114.88C55.8036 113.787 55.1503 112.28 55.1503 110.36C55.1503 106.627 57.737 104.493 62.9103 103.96L65.9503 103.64C67.017 103.507 67.7903 103.24 68.2703 102.84C68.777 102.413 69.0303 101.813 69.0303 101.04C69.0303 100 68.697 99.2533 68.0303 98.8C67.3903 98.32 66.3103 98.08 64.7903 98.08C63.137 98.08 61.9503 98.36 61.2303 98.92C60.5103 99.4533 60.097 100.413 59.9903 101.8H56.0303C56.3236 97.1867 59.2436 94.88 64.7903 94.88C70.2303 94.88 72.9503 96.9067 72.9503 100.96V111.88C72.9503 112.573 73.3236 112.92 74.0703 112.92ZM63.1103 113.36C64.817 113.36 66.2303 112.88 67.3503 111.92C68.4703 110.96 69.0303 109.6 69.0303 107.84V105.68C68.5236 106.107 67.6703 106.387 66.4703 106.52L63.5903 106.84C62.0436 107.027 60.937 107.4 60.2703 107.96C59.6036 108.493 59.2703 109.253 59.2703 110.24C59.2703 111.227 59.5903 112 60.2303 112.56C60.897 113.093 61.857 113.36 63.1103 113.36ZM88.1538 94.88C90.4204 94.88 92.1938 95.52 93.4738 96.8C94.7538 98.0533 95.3938 99.84 95.3938 102.16V116H91.3938V102.72C91.3938 99.84 89.9404 98.4 87.0338 98.4C85.7004 98.4 84.5004 98.9067 83.4338 99.92C82.3671 100.96 81.8338 102.44 81.8338 104.36V116H77.8338V95.36H81.6738V98.44C83.2471 96.0667 85.4071 94.88 88.1538 94.88ZM115.064 98.16V87.52H119.064V116H115.224V112.96C113.677 115.307 111.397 116.48 108.384 116.48C105.504 116.48 103.211 115.507 101.504 113.56C99.7974 111.613 98.9441 108.987 98.9441 105.68C98.9441 102.373 99.7974 99.7467 101.504 97.8C103.211 95.8533 105.504 94.88 108.384 94.88C111.291 94.88 113.517 95.9733 115.064 98.16ZM103.104 105.84C103.104 108.133 103.651 109.907 104.744 111.16C105.837 112.413 107.304 113.04 109.144 113.04C111.037 113.04 112.517 112.387 113.584 111.08C114.651 109.827 115.184 108.027 115.184 105.68C115.184 103.36 114.651 101.547 113.584 100.24C112.517 98.96 111.037 98.32 109.144 98.32C107.304 98.32 105.837 98.9867 104.744 100.32C103.651 101.653 103.104 103.493 103.104 105.84ZM142.622 106.48H130.902V103H142.622V106.48ZM165.155 94.88C168.035 94.88 170.329 95.8533 172.035 97.8C173.742 99.7467 174.595 102.373 174.595 105.68C174.595 108.96 173.742 111.573 172.035 113.52C170.302 115.493 168.009 116.48 165.155 116.48C162.222 116.48 159.982 115.36 158.435 113.12V123.84H154.435V95.36H158.275V98.48C159.822 96.08 162.115 94.88 165.155 94.88ZM159.995 111.08C161.062 112.387 162.529 113.04 164.395 113.04C166.262 113.04 167.742 112.373 168.835 111.04C169.902 109.733 170.435 107.893 170.435 105.52C170.435 103.227 169.902 101.453 168.835 100.2C167.769 98.9467 166.289 98.32 164.395 98.32C162.555 98.32 161.089 98.96 159.995 100.24C158.902 101.573 158.355 103.387 158.355 105.68C158.355 107.973 158.902 109.773 159.995 111.08ZM182.147 92.44H178.067V88.16H182.147V92.44ZM182.107 116H178.107V95.36H182.107V116ZM195.464 116.48C192.53 116.48 190.157 115.493 188.344 113.52C186.53 111.547 185.624 108.933 185.624 105.68C185.624 102.4 186.53 99.7733 188.344 97.8C190.13 95.8533 192.504 94.88 195.464 94.88C197.997 94.88 200.077 95.5733 201.704 96.96C203.357 98.3467 204.344 100.213 204.664 102.56H200.584C200.317 101.2 199.717 100.16 198.784 99.44C197.877 98.72 196.77 98.36 195.464 98.36C193.73 98.36 192.344 99 191.304 100.28C190.29 101.533 189.784 103.333 189.784 105.68C189.784 108.027 190.29 109.84 191.304 111.12C192.344 112.373 193.73 113 195.464 113C196.797 113 197.93 112.627 198.864 111.88C199.797 111.133 200.384 110.053 200.624 108.64H204.704C204.384 111.04 203.384 112.947 201.704 114.36C200.024 115.773 197.944 116.48 195.464 116.48ZM226.394 116H221.794L215.234 105.56L211.794 108.92V116H207.834V87.52H211.794V104.32L220.874 95.36H225.874L218.074 102.96L226.394 116ZM245.966 105.84V107H230.406C230.593 109.027 231.193 110.56 232.206 111.6C233.219 112.613 234.593 113.12 236.326 113.12C238.939 113.12 240.646 111.973 241.446 109.68H245.486C244.926 111.787 243.833 113.453 242.206 114.68C240.606 115.88 238.619 116.48 236.246 116.48C233.286 116.48 230.899 115.493 229.086 113.52C227.273 111.547 226.366 108.933 226.366 105.68C226.366 102.427 227.273 99.8133 229.086 97.84C230.899 95.8667 233.259 94.88 236.166 94.88C239.206 94.88 241.606 95.9067 243.366 97.96C245.099 100.013 245.966 102.64 245.966 105.84ZM236.166 98.24C234.593 98.24 233.299 98.72 232.286 99.68C231.299 100.64 230.686 102.027 230.446 103.84H241.846C241.659 102.16 241.059 100.813 240.046 99.8C239.059 98.76 237.766 98.24 236.166 98.24ZM264.673 98.16V87.52H268.673V116H264.833V112.96C263.287 115.307 261.007 116.48 257.993 116.48C255.113 116.48 252.82 115.507 251.113 113.56C249.407 111.613 248.553 108.987 248.553 105.68C248.553 102.373 249.407 99.7467 251.113 97.8C252.82 95.8533 255.113 94.88 257.993 94.88C260.9 94.88 263.127 95.9733 264.673 98.16ZM252.713 105.84C252.713 108.133 253.26 109.907 254.353 111.16C255.447 112.413 256.913 113.04 258.753 113.04C260.647 113.04 262.127 112.387 263.193 111.08C264.26 109.827 264.793 108.027 264.793 105.68C264.793 103.36 264.26 101.547 263.193 100.24C262.127 98.96 260.647 98.32 258.753 98.32C256.913 98.32 255.447 98.9867 254.353 100.32C253.26 101.653 252.713 103.493 252.713 105.84ZM299.031 112.92H300.151V116C299.565 116.08 298.911 116.12 298.191 116.12C296.911 116.12 295.951 115.893 295.311 115.44C294.698 114.96 294.325 114.213 294.191 113.2C292.805 115.387 290.565 116.48 287.471 116.48C285.205 116.48 283.405 115.947 282.071 114.88C280.765 113.787 280.111 112.28 280.111 110.36C280.111 106.627 282.698 104.493 287.871 103.96L290.911 103.64C291.978 103.507 292.751 103.24 293.231 102.84C293.738 102.413 293.991 101.813 293.991 101.04C293.991 100 293.658 99.2533 292.991 98.8C292.351 98.32 291.271 98.08 289.751 98.08C288.098 98.08 286.911 98.36 286.191 98.92C285.471 99.4533 285.058 100.413 284.951 101.8H280.991C281.285 97.1867 284.205 94.88 289.751 94.88C295.191 94.88 297.911 96.9067 297.911 100.96V111.88C297.911 112.573 298.285 112.92 299.031 112.92ZM288.071 113.36C289.778 113.36 291.191 112.88 292.311 111.92C293.431 110.96 293.991 109.6 293.991 107.84V105.68C293.485 106.107 292.631 106.387 291.431 106.52L288.551 106.84C287.005 107.027 285.898 107.4 285.231 107.96C284.565 108.493 284.231 109.253 284.231 110.24C284.231 111.227 284.551 112 285.191 112.56C285.858 113.093 286.818 113.36 288.071 113.36ZM313.115 94.88C315.381 94.88 317.155 95.52 318.435 96.8C319.715 98.0533 320.355 99.84 320.355 102.16V116H316.355V102.72C316.355 99.84 314.901 98.4 311.995 98.4C310.661 98.4 309.461 98.9067 308.395 99.92C307.328 100.96 306.795 102.44 306.795 104.36V116H302.795V95.36H306.635V98.44C308.208 96.0667 310.368 94.88 313.115 94.88ZM340.025 98.16V87.52H344.025V116H340.185V112.96C338.638 115.307 336.358 116.48 333.345 116.48C330.465 116.48 328.172 115.507 326.465 113.56C324.758 111.613 323.905 108.987 323.905 105.68C323.905 102.373 324.758 99.7467 326.465 97.8C328.172 95.8533 330.465 94.88 333.345 94.88C336.252 94.88 338.478 95.9733 340.025 98.16ZM328.065 105.84C328.065 108.133 328.612 109.907 329.705 111.16C330.798 112.413 332.265 113.04 334.105 113.04C335.998 113.04 337.478 112.387 338.545 111.08C339.612 109.827 340.145 108.027 340.145 105.68C340.145 103.36 339.612 101.547 338.545 100.24C337.478 98.96 335.998 98.32 334.105 98.32C332.265 98.32 330.798 98.9867 329.705 100.32C328.612 101.653 328.065 103.493 328.065 105.84ZM366.943 94.88C369.209 94.88 370.983 95.52 372.263 96.8C373.543 98.0533 374.183 99.84 374.183 102.16V116H370.183V102.72C370.183 99.84 368.729 98.4 365.823 98.4C364.489 98.4 363.289 98.9067 362.223 99.92C361.156 100.96 360.623 102.44 360.623 104.36V116H356.623V87.52H360.623V98.2C362.196 95.9867 364.303 94.88 366.943 94.88ZM396.453 112.92H397.573V116C396.986 116.08 396.333 116.12 395.613 116.12C394.333 116.12 393.373 115.893 392.733 115.44C392.12 114.96 391.746 114.213 391.613 113.2C390.226 115.387 387.986 116.48 384.893 116.48C382.626 116.48 380.826 115.947 379.493 114.88C378.186 113.787 377.533 112.28 377.533 110.36C377.533 106.627 380.12 104.493 385.293 103.96L388.333 103.64C389.4 103.507 390.173 103.24 390.653 102.84C391.16 102.413 391.413 101.813 391.413 101.04C391.413 100 391.08 99.2533 390.413 98.8C389.773 98.32 388.693 98.08 387.173 98.08C385.52 98.08 384.333 98.36 383.613 98.92C382.893 99.4533 382.48 100.413 382.373 101.8H378.413C378.706 97.1867 381.626 94.88 387.173 94.88C392.613 94.88 395.333 96.9067 395.333 100.96V111.88C395.333 112.573 395.706 112.92 396.453 112.92ZM385.493 113.36C387.2 113.36 388.613 112.88 389.733 111.92C390.853 110.96 391.413 109.6 391.413 107.84V105.68C390.906 106.107 390.053 106.387 388.853 106.52L385.973 106.84C384.426 107.027 383.32 107.4 382.653 107.96C381.986 108.493 381.653 109.253 381.653 110.24C381.653 111.227 381.973 112 382.613 112.56C383.28 113.093 384.24 113.36 385.493 113.36ZM410.537 94.88C412.803 94.88 414.577 95.52 415.857 96.8C417.137 98.0533 417.777 99.84 417.777 102.16V116H413.777V102.72C413.777 99.84 412.323 98.4 409.417 98.4C408.083 98.4 406.883 98.9067 405.817 99.92C404.75 100.96 404.217 102.44 404.217 104.36V116H400.217V95.36H404.057V98.44C405.63 96.0667 407.79 94.88 410.537 94.88ZM437.447 98.16V87.52H441.447V116H437.607V112.96C436.06 115.307 433.78 116.48 430.767 116.48C427.887 116.48 425.594 115.507 423.887 113.56C422.18 111.613 421.327 108.987 421.327 105.68C421.327 102.373 422.18 99.7467 423.887 97.8C425.594 95.8533 427.887 94.88 430.767 94.88C433.674 94.88 435.9 95.9733 437.447 98.16ZM425.487 105.84C425.487 108.133 426.034 109.907 427.127 111.16C428.22 112.413 429.687 113.04 431.527 113.04C433.42 113.04 434.9 112.387 435.967 111.08C437.034 109.827 437.567 108.027 437.567 105.68C437.567 103.36 437.034 101.547 435.967 100.24C434.9 98.96 433.42 98.32 431.527 98.32C429.687 98.32 428.22 98.9867 427.127 100.32C426.034 101.653 425.487 103.493 425.487 105.84ZM465.005 106.48H453.285V103H465.005V106.48ZM484.458 116.52C478.725 116.52 475.711 114.16 475.418 109.44H479.418C479.578 110.88 480.045 111.893 480.818 112.48C481.591 113.067 482.818 113.36 484.498 113.36C487.538 113.36 489.058 112.4 489.058 110.48C489.058 109.653 488.738 109.013 488.098 108.56C487.458 108.107 486.311 107.733 484.658 107.44L482.538 107.04C478.165 106.24 475.978 104.187 475.978 100.88C475.978 99.04 476.685 97.5867 478.098 96.52C479.511 95.4267 481.458 94.88 483.938 94.88C489.618 94.88 492.525 97.1867 492.658 101.8H488.778C488.698 100.413 488.271 99.44 487.498 98.88C486.725 98.2933 485.538 98 483.938 98C482.658 98 481.671 98.24 480.978 98.72C480.285 99.2 479.938 99.88 479.938 100.76C479.938 101.56 480.245 102.187 480.858 102.64C481.471 103.067 482.445 103.413 483.778 103.68L485.938 104.04C488.471 104.52 490.298 105.24 491.418 106.2C492.538 107.16 493.098 108.493 493.098 110.2C493.098 112.2 492.338 113.76 490.818 114.88C489.298 115.973 487.178 116.52 484.458 116.52ZM512.756 113.52C510.863 115.493 508.396 116.48 505.356 116.48C502.316 116.48 499.849 115.493 497.956 113.52C496.063 111.547 495.116 108.933 495.116 105.68C495.116 102.4 496.063 99.7733 497.956 97.8C499.823 95.8533 502.289 94.88 505.356 94.88C508.423 94.88 510.889 95.8533 512.756 97.8C514.623 99.7467 515.556 102.373 515.556 105.68C515.556 108.96 514.623 111.573 512.756 113.52ZM500.916 111.08C502.009 112.387 503.489 113.04 505.356 113.04C507.223 113.04 508.689 112.387 509.756 111.08C510.849 109.773 511.396 107.973 511.396 105.68C511.396 103.387 510.849 101.587 509.756 100.28C508.689 98.9733 507.223 98.32 505.356 98.32C503.489 98.32 502.009 98.9733 500.916 100.28C499.823 101.587 499.276 103.387 499.276 105.68C499.276 107.973 499.823 109.773 500.916 111.08ZM529.364 95.04C529.95 95.04 530.337 95.0533 530.524 95.08V98.88H529.524C527.47 98.88 525.884 99.3867 524.764 100.4C523.644 101.413 523.084 102.88 523.084 104.8V116H519.084V95.36H522.924V99.04C524.23 96.3733 526.377 95.04 529.364 95.04ZM543.415 95.36V98.64H539.255V111.04C539.255 111.653 539.428 112.107 539.775 112.4C540.148 112.667 540.762 112.8 541.615 112.8H543.415V116C542.535 116.08 541.722 116.12 540.975 116.12C539.028 116.12 537.588 115.747 536.655 115C535.722 114.253 535.255 113.053 535.255 111.4V98.64H531.935V95.36H535.255V89.44H539.255V95.36H543.415ZM564.872 105.84V107H549.312C549.499 109.027 550.099 110.56 551.112 111.6C552.126 112.613 553.499 113.12 555.232 113.12C557.846 113.12 559.552 111.973 560.352 109.68H564.392C563.832 111.787 562.739 113.453 561.112 114.68C559.512 115.88 557.526 116.48 555.152 116.48C552.192 116.48 549.806 115.493 547.992 113.52C546.179 111.547 545.272 108.933 545.272 105.68C545.272 102.427 546.179 99.8133 547.992 97.84C549.806 95.8667 552.166 94.88 555.072 94.88C558.112 94.88 560.512 95.9067 562.272 97.96C564.006 100.013 564.872 102.64 564.872 105.84ZM555.072 98.24C553.499 98.24 552.206 98.72 551.192 99.68C550.206 100.64 549.592 102.027 549.352 103.84H560.752C560.566 102.16 559.966 100.813 558.952 99.8C557.966 98.76 556.672 98.24 555.072 98.24ZM583.58 98.16V87.52H587.58V116H583.74V112.96C582.193 115.307 579.913 116.48 576.9 116.48C574.02 116.48 571.726 115.507 570.02 113.56C568.313 111.613 567.46 108.987 567.46 105.68C567.46 102.373 568.313 99.7467 570.02 97.8C571.726 95.8533 574.02 94.88 576.9 94.88C579.806 94.88 582.033 95.9733 583.58 98.16ZM571.62 105.84C571.62 108.133 572.166 109.907 573.26 111.16C574.353 112.413 575.82 113.04 577.66 113.04C579.553 113.04 581.033 112.387 582.1 111.08C583.166 109.827 583.7 108.027 583.7 105.68C583.7 103.36 583.166 101.547 582.1 100.24C581.033 98.96 579.553 98.32 577.66 98.32C575.82 98.32 574.353 98.9867 573.26 100.32C572.166 101.653 571.62 103.493 571.62 105.84ZM56.8 140.88C59.04 140.88 60.7867 141.547 62.04 142.88C63.2933 144.187 63.92 145.947 63.92 148.16V162H59.88V148.68C59.88 145.827 58.56 144.4 55.92 144.4C54.5067 144.4 53.3467 144.947 52.44 146.04C51.5333 147.107 51.08 148.653 51.08 150.68V162H47.08V148.68C47.08 145.827 45.7467 144.4 43.08 144.4C41.6667 144.4 40.5067 144.947 39.6 146.04C38.6933 147.133 38.24 148.68 38.24 150.68V162H34.24V141.36H38.08V144.44C39.4933 142.067 41.48 140.88 44.04 140.88C47.16 140.88 49.28 142.173 50.4 144.76C51.8667 142.173 54 140.88 56.8 140.88ZM81.2375 153V141.36H85.2375V162H81.3975V158.92C79.8242 161.293 77.6642 162.48 74.9175 162.48C72.6508 162.48 70.8775 161.84 69.5975 160.56C68.3175 159.28 67.6775 157.493 67.6775 155.2V141.36H71.6775V154.64C71.6775 157.52 73.1308 158.96 76.0375 158.96C77.5042 158.96 78.7308 158.44 79.7175 157.4C80.7308 156.333 81.2375 154.867 81.2375 153ZM93.7478 162H89.7478V133.52H93.7478V162ZM108.024 141.36V144.64H103.864V157.04C103.864 157.653 104.038 158.107 104.384 158.4C104.758 158.667 105.371 158.8 106.224 158.8H108.024V162C107.144 162.08 106.331 162.12 105.584 162.12C103.638 162.12 102.198 161.747 101.264 161C100.331 160.253 99.8644 159.053 99.8644 157.4V144.64H96.5444V141.36H99.8644V135.44H103.864V141.36H108.024ZM115.272 138.44H111.192V134.16H115.272V138.44ZM115.232 162H111.232V141.36H115.232V162ZM130.429 140.88C133.309 140.88 135.602 141.853 137.309 143.8C139.015 145.747 139.869 148.373 139.869 151.68C139.869 154.96 139.015 157.573 137.309 159.52C135.575 161.493 133.282 162.48 130.429 162.48C127.495 162.48 125.255 161.36 123.709 159.12V169.84H119.709V141.36H123.549V144.48C125.095 142.08 127.389 140.88 130.429 140.88ZM125.269 157.08C126.335 158.387 127.802 159.04 129.669 159.04C131.535 159.04 133.015 158.373 134.109 157.04C135.175 155.733 135.709 153.893 135.709 151.52C135.709 149.227 135.175 147.453 134.109 146.2C133.042 144.947 131.562 144.32 129.669 144.32C127.829 144.32 126.362 144.96 125.269 146.24C124.175 147.573 123.629 149.387 123.629 151.68C123.629 153.973 124.175 155.773 125.269 157.08ZM147.381 162H143.381V133.52H147.381V162ZM170.497 151.84V153H154.937C155.124 155.027 155.724 156.56 156.737 157.6C157.751 158.613 159.124 159.12 160.857 159.12C163.471 159.12 165.177 157.973 165.977 155.68H170.017C169.457 157.787 168.364 159.453 166.737 160.68C165.137 161.88 163.151 162.48 160.777 162.48C157.817 162.48 155.431 161.493 153.617 159.52C151.804 157.547 150.897 154.933 150.897 151.68C150.897 148.427 151.804 145.813 153.617 143.84C155.431 141.867 157.791 140.88 160.697 140.88C163.737 140.88 166.137 141.907 167.897 143.96C169.631 146.013 170.497 148.64 170.497 151.84ZM160.697 144.24C159.124 144.24 157.831 144.72 156.817 145.68C155.831 146.64 155.217 148.027 154.977 149.84H166.377C166.191 148.16 165.591 146.813 164.577 145.8C163.591 144.76 162.297 144.24 160.697 144.24ZM191.931 141.36V144.64H187.771V157.04C187.771 157.653 187.944 158.107 188.291 158.4C188.664 158.667 189.277 158.8 190.131 158.8H191.931V162C191.051 162.08 190.237 162.12 189.491 162.12C187.544 162.12 186.104 161.747 185.171 161C184.237 160.253 183.771 159.053 183.771 157.4V144.64H180.451V141.36H183.771V135.44H187.771V141.36H191.931ZM199.178 138.44H195.098V134.16H199.178V138.44ZM199.138 162H195.138V141.36H199.138V162ZM226.175 140.88C228.415 140.88 230.162 141.547 231.415 142.88C232.668 144.187 233.295 145.947 233.295 148.16V162H229.255V148.68C229.255 145.827 227.935 144.4 225.295 144.4C223.882 144.4 222.722 144.947 221.815 146.04C220.908 147.107 220.455 148.653 220.455 150.68V162H216.455V148.68C216.455 145.827 215.122 144.4 212.455 144.4C211.042 144.4 209.882 144.947 208.975 146.04C208.068 147.133 207.615 148.68 207.615 150.68V162H203.615V141.36H207.455V144.44C208.868 142.067 210.855 140.88 213.415 140.88C216.535 140.88 218.655 142.173 219.775 144.76C221.242 142.173 223.375 140.88 226.175 140.88ZM256.396 151.84V153H240.836C241.022 155.027 241.622 156.56 242.636 157.6C243.649 158.613 245.022 159.12 246.756 159.12C249.369 159.12 251.076 157.973 251.876 155.68H255.916C255.356 157.787 254.262 159.453 252.636 160.68C251.036 161.88 249.049 162.48 246.676 162.48C243.716 162.48 241.329 161.493 239.516 159.52C237.702 157.547 236.796 154.933 236.796 151.68C236.796 148.427 237.702 145.813 239.516 143.84C241.329 141.867 243.689 140.88 246.596 140.88C249.636 140.88 252.036 141.907 253.796 143.96C255.529 146.013 256.396 148.64 256.396 151.84ZM246.596 144.24C245.022 144.24 243.729 144.72 242.716 145.68C241.729 146.64 241.116 148.027 240.876 149.84H252.276C252.089 148.16 251.489 146.813 250.476 145.8C249.489 144.76 248.196 144.24 246.596 144.24ZM267.466 162.52C261.733 162.52 258.719 160.16 258.426 155.44H262.426C262.586 156.88 263.053 157.893 263.826 158.48C264.599 159.067 265.826 159.36 267.506 159.36C270.546 159.36 272.066 158.4 272.066 156.48C272.066 155.653 271.746 155.013 271.106 154.56C270.466 154.107 269.319 153.733 267.666 153.44L265.546 153.04C261.173 152.24 258.986 150.187 258.986 146.88C258.986 145.04 259.693 143.587 261.106 142.52C262.519 141.427 264.466 140.88 266.946 140.88C272.626 140.88 275.533 143.187 275.666 147.8H271.786C271.706 146.413 271.279 145.44 270.506 144.88C269.733 144.293 268.546 144 266.946 144C265.666 144 264.679 144.24 263.986 144.72C263.293 145.2 262.946 145.88 262.946 146.76C262.946 147.56 263.253 148.187 263.866 148.64C264.479 149.067 265.453 149.413 266.786 149.68L268.946 150.04C271.479 150.52 273.306 151.24 274.426 152.2C275.546 153.16 276.106 154.493 276.106 156.2C276.106 158.2 275.346 159.76 273.826 160.88C272.306 161.973 270.186 162.52 267.466 162.52Z" fill="#151515"/>
<defs>
<clipPath id="clip0_923_2561">
<rect x="2" y="2" width="1170" height="720" fill="white"/>
</clipPath>
<clipPath id="clip1_923_2561">
<rect width="178" height="171" fill="white" transform="translate(182 551)"/>
</clipPath>
</defs>
</svg>