<svg xmlns="http://www.w3.org/2000/svg" width="1170" height="720" viewBox="0 0 1170 720" fill="none">
<g clip-path="url(#clip0_923_2441)">
<rect width="1170" height="720" fill="#F6F5EE"/>
<rect x="1170" y="720" width="206" height="120" transform="rotate(-180 1170 720)" stroke="black" stroke-width="2"/>
<rect x="1170" y="720" width="90" height="120" transform="rotate(-180 1170 720)" stroke="black" stroke-width="2"/>
<path d="M1080 690L1169 690" stroke="black" stroke-width="2"/>
<path d="M1080 660L1169 660" stroke="black" stroke-width="2"/>
<path d="M1080 630L1169 630" stroke="black" stroke-width="2"/>
<rect x="720" width="240" height="120" stroke="black" stroke-width="2"/>
<rect x="840" y="600" width="240" height="120" rx="60" stroke="black" stroke-width="2"/>
<rect x="720" y="120" width="120" height="240" stroke="black" stroke-width="2"/>
<rect x="960" width="210" height="120" stroke="black" stroke-width="2"/>
<path d="M720 480H840V360H720V458" stroke="black" stroke-width="2"/>
<path d="M720 420C720 386.863 746.863 360 780 360H840V480H780C746.863 480 720 453.137 720 420V420Z" stroke="black" stroke-width="2"/>
<path d="M720 120H840V120C840 153.137 813.137 180 780 180V180C746.863 180 720 153.137 720 120V120Z" stroke="black" stroke-width="2"/>
<path d="M840 360L720 360V360C720 326.863 746.863 300 780 300V300C813.137 300 840 326.863 840 360V360Z" stroke="black" stroke-width="2"/>
<path d="M720 240V240C720 273.137 746.863 300 780 300V300M720 240V240C720 206.863 746.863 180 780 180V180C813.137 180 840 206.863 840 240V240M720 240C740 240.5 780 253.2 780 300M780 300V300C813.137 300 840 273.137 840 240V240M780 300C779.333 280 790.4 240 840 240" stroke="black" stroke-width="2"/>
<rect x="720" y="480" width="120" height="240" stroke="black" stroke-width="2"/>
<rect x="720" y="480" width="60" height="60" rx="30" stroke="black" stroke-width="2"/>
<rect x="518" y="365" width="164" height="92" stroke="black" stroke-width="2"/>
<path d="M480 240H720V458H750V480H720H480V458V240Z" fill="#F6F5EE"/>
<path d="M480 458V480H720H750V458H720M480 458V240H720V458M480 458H720" stroke="black" stroke-width="2"/>
<rect x="480" y="480" width="240" height="240" stroke="black" stroke-width="2"/>
<path d="M600 720C533.726 720 480 666.274 480 600H720C734.083 600 745.5 611.417 745.5 625.5V632.75C745.5 650.837 730.837 665.5 712.75 665.5H700.564C679.148 698.313 642.107 720 600 720Z" fill="#F6F5EE"/>
<path d="M720 600H480C480 666.274 533.726 720 600 720C642.107 720 679.148 698.313 700.564 665.5M720 600C720 624.168 712.856 646.666 700.564 665.5M720 600V600C734.083 600 745.5 611.417 745.5 625.5V632.75C745.5 650.837 730.837 665.5 712.75 665.5H700.564" stroke="black" stroke-width="2"/>
<rect y="240" width="240" height="240" stroke="black" stroke-width="2"/>
<path d="M0 240V240C132.548 240 240 347.452 240 480V480H120M0 240V480H120M0 240C105.6 296.4 124 423.5 120 480" stroke="black" stroke-width="2"/>
<path d="M300 480H360V259.5V240H300M300 480H240V240H300M300 480V319.5V240" stroke="black" stroke-width="2"/>
<path d="M1020 120H960V360H1020H1080V139.5V120H1020ZM1020 120V199.5V329.75" stroke="black" stroke-width="2"/>
<path d="M300 320.86C320 322.354 360 312.495 360 261.111C340 259.783 300 269.874 300 320.86Z" stroke="black" stroke-width="2"/>
<path d="M1020 200.86C1040 202.354 1080 192.495 1080 141.111C1060 139.783 1020 149.874 1020 200.86Z" stroke="black" stroke-width="2"/>
<path d="M779.942 247.942C788.898 240.231 801.457 219.456 780.046 198.046C771.16 205.826 758.697 226.697 779.942 247.942Z" stroke="black" stroke-width="2"/>
<path d="M300 389.86C320 391.354 360 381.495 360 330.111C340 328.783 300 338.874 300 389.86Z" stroke="black" stroke-width="2"/>
<path d="M1020 269.86C1040 271.354 1080 261.495 1080 210.111C1060 208.783 1020 218.874 1020 269.86Z" stroke="black" stroke-width="2"/>
<path d="M300 458.86C320 460.354 360 450.495 360 399.111C340 397.783 300 407.874 300 458.86Z" stroke="black" stroke-width="2"/>
<path d="M1046.95 334.5C1063.86 327.638 1080 311.754 1080 279.111C1061.29 277.868 1025.07 286.62 1020.48 329.5" stroke="black" stroke-width="2"/>
<path d="M300 320.86C280 322.354 240 312.495 240 261.111C260 259.783 300 269.874 300 320.86Z" stroke="black" stroke-width="2"/>
<path d="M1020 200.86C1000 202.354 960 192.495 960 141.111C980 139.783 1020 149.874 1020 200.86Z" stroke="black" stroke-width="2"/>
<path d="M300 389.86C280 391.354 240 381.495 240 330.111C260 328.783 300 338.874 300 389.86Z" stroke="black" stroke-width="2"/>
<path d="M1020 269.86C1000 271.354 960 261.495 960 210.111C980 208.783 1020 218.874 1020 269.86Z" stroke="black" stroke-width="2"/>
<path d="M300 458.86C280 460.354 240 450.495 240 399.111C260 397.783 300 407.874 300 458.86Z" stroke="black" stroke-width="2"/>
<path d="M1019.52 329.5C1014.93 286.62 978.711 277.868 960 279.111C960 312.368 976.756 328.23 994 334.878" stroke="black" stroke-width="2"/>
<rect x="360" y="240" width="120" height="120" stroke="black" stroke-width="2"/>
<rect x="840" y="120" width="120" height="120" stroke="black" stroke-width="2"/>
<path d="M780 0H720V60L780 0Z" stroke="black" stroke-width="2" stroke-linejoin="round"/>
<path d="M840 0H780V60L840 0Z" stroke="black" stroke-width="2" stroke-linejoin="round"/>
<path d="M780 60H720V120L780 60Z" stroke="black" stroke-width="2" stroke-linejoin="round"/>
<path d="M840 60H780V120L840 60Z" stroke="black" stroke-width="2" stroke-linejoin="round"/>
<path d="M840 120L960 120L960 0L840 120Z" stroke="black" stroke-width="2" stroke-linejoin="round"/>
<rect x="840" y="240" width="120" height="120" stroke="black" stroke-width="2"/>
<rect x="1080" y="240" width="90" height="120" stroke="black" stroke-width="2"/>
<rect x="1080" y="343" width="90" height="17" stroke="black" stroke-width="2"/>
<rect x="1080" y="343" width="90" height="17" stroke="black" stroke-width="2"/>
<rect x="1100" y="326" width="50" height="17" stroke="black" stroke-width="2"/>
<rect x="1100" y="326" width="50" height="17" stroke="black" stroke-width="2"/>
<path d="M1089 299H1161L1157 326H1093L1089 299Z" stroke="black" stroke-width="2"/>
<path d="M1080 120H1170V240V240C1120.29 240 1080 199.706 1080 150V120Z" stroke="black" stroke-width="2"/>
<path d="M1125 120H1170V180V180C1145.15 180 1125 159.853 1125 135V120Z" stroke="black" stroke-width="2"/>
<path d="M1145 120H1170V153V153C1156.19 153 1145 141.807 1145 128V120Z" stroke="black" stroke-width="2"/>
<path d="M840 360V600H924.5M840 360H858M840 360C847.667 366.333 863.9 386.5 867.5 416.5C872 454 866 600 924.5 600M960 360H1019.75M960 360L936.111 521.5M960 360H858M924.5 600H1019.75M924.5 600L936.111 521.5M1102.5 600H1170V360H1079.5M1102.5 600H1019.75M1102.5 600L1098.57 559M1079.5 360H1019.75M1079.5 360L1080.46 370M1019.75 360V521.5M1019.75 600V589.25M1019.75 600L1097.95 552.5M1019.75 521.5H936.111M1019.75 521.5L1090.86 478.5M1019.75 521.5V535M936.111 521.5C922.908 522.833 898.518 510.931 893.5 453.5C889 402 868.833 367.167 858 360M1090.86 478.5L1092.01 490.5M1090.86 478.5L1081.9 385M1092.01 490.5L1019.75 535M1092.01 490.5L1093.11 502M1019.75 535V545M1019.75 545L1093.11 502M1019.75 545V555.5M1093.11 502L1094.16 513M1094.16 513L1019.75 555.5M1094.16 513L1095.12 523M1019.75 555.5V565M1019.75 565L1095.12 523M1019.75 565V578.5M1095.12 523L1096.08 533M1096.08 533L1019.75 578.5M1096.08 533L1096.55 537.947M1019.75 578.5V589.25M1019.75 589.25L1096.99 542.5M1096.99 542.5L1097.95 552.5M1096.99 542.5L1096.55 537.947M1097.95 552.5L1098.57 559M1080.46 370V370C1122.91 370 1156.97 405.074 1155.73 447.508L1155.14 467.429C1154.41 492.451 1143.8 516.165 1125.62 533.379L1098.57 559M1080.46 370L1081.9 385M1081.9 385V385C1114.81 385 1141.5 411.686 1141.5 444.604V461.368C1141.5 481.621 1133.45 501.046 1119.13 515.368L1096.55 537.947" stroke="black" stroke-width="2"/>
<path d="M479.999 719H359.613V653M479.999 719V720M479.999 719V653M359.613 653H479.999M359.613 653V561M479.999 653V571.842M419.806 480H359.613V561M419.806 480H479.999V571.842M419.806 480V605M419.806 605H391.999M419.806 605H446.999M359.613 561L364.542 565.929C368.447 569.834 374.779 569.834 378.684 565.929L382.428 562.185C386.333 558.28 392.665 558.28 396.57 562.185L401.428 567.043C405.333 570.948 411.665 570.948 415.57 567.043L420.428 562.185C424.333 558.28 430.665 558.28 434.57 562.185L438.314 565.929C442.219 569.834 448.551 569.834 452.456 565.929L456.2 562.185C460.105 558.28 466.437 558.28 470.342 562.185L479.999 571.842" stroke="black" stroke-width="2"/>
<path d="M360 458V480H480V458M360 458V360H480V458M360 458H420M480 458H420M420 458V433.5" stroke="black" stroke-width="2"/>
<path d="M780 510L840 510" stroke="black" stroke-width="2"/>
<path d="M720 540H840" stroke="black" stroke-width="2"/>
<path d="M720 570H840" stroke="black" stroke-width="2"/>
<path d="M720 600H840" stroke="black" stroke-width="2"/>
<path d="M559 295C559 306.598 549.598 316 538 316C532.466 316 527.434 313.861 523.682 310.362C519.569 306.527 517 301.065 517 295C517 283.402 526.402 274 538 274C549.598 274 559 283.402 559 295Z" stroke="black" stroke-width="2"/>
<path d="M621 295C621 306.598 611.598 316 600 316C588.402 316 579 306.598 579 295C579 283.402 588.402 274 600 274C611.598 274 621 283.402 621 295Z" stroke="black" stroke-width="2"/>
<path d="M683 295C683 306.598 673.598 316 662 316C650.402 316 641 306.598 641 295C641 283.402 650.402 274 662 274C673.598 274 683 283.402 683 295Z" stroke="black" stroke-width="2"/>
<circle cx="550" cy="387" r="9" stroke="black" stroke-width="2"/>
<circle cx="575" cy="387" r="9" stroke="black" stroke-width="2"/>
<circle cx="600" cy="387" r="9" stroke="black" stroke-width="2"/>
<circle cx="625" cy="387" r="9" stroke="black" stroke-width="2"/>
<circle cx="650" cy="387" r="9" stroke="black" stroke-width="2"/>
<circle cx="563" cy="410" r="9" stroke="black" stroke-width="2"/>
<circle cx="588" cy="410" r="9" stroke="black" stroke-width="2"/>
<circle cx="613" cy="410" r="9" stroke="black" stroke-width="2"/>
<circle cx="638" cy="410" r="9" stroke="black" stroke-width="2"/>
<circle cx="550" cy="433" r="9" stroke="black" stroke-width="2"/>
<circle cx="575" cy="433" r="9" stroke="black" stroke-width="2"/>
<circle cx="600" cy="433" r="9" stroke="black" stroke-width="2"/>
<circle cx="395" cy="277" r="9" stroke="black" stroke-width="2"/>
<circle cx="875" cy="157" r="9" stroke="black" stroke-width="2"/>
<circle cx="420" cy="277" r="9" stroke="black" stroke-width="2"/>
<circle cx="900" cy="157" r="9" stroke="black" stroke-width="2"/>
<circle cx="445" cy="277" r="9" stroke="black" stroke-width="2"/>
<circle cx="925" cy="157" r="9" stroke="black" stroke-width="2"/>
<circle cx="408" cy="300" r="9" stroke="black" stroke-width="2"/>
<circle cx="888" cy="180" r="9" stroke="black" stroke-width="2"/>
<circle cx="433" cy="300" r="9" stroke="black" stroke-width="2"/>
<circle cx="913" cy="180" r="9" stroke="black" stroke-width="2"/>
<circle cx="395" cy="323" r="9" stroke="black" stroke-width="2"/>
<circle cx="875" cy="203" r="9" stroke="black" stroke-width="2"/>
<circle cx="420" cy="323" r="9" stroke="black" stroke-width="2"/>
<circle cx="900" cy="203" r="9" stroke="black" stroke-width="2"/>
<circle cx="445" cy="323" r="9" stroke="black" stroke-width="2"/>
<circle cx="925" cy="203" r="9" stroke="black" stroke-width="2"/>
<circle cx="625" cy="433" r="9" stroke="black" stroke-width="2"/>
<circle cx="650" cy="433" r="9" stroke="black" stroke-width="2"/>
<rect x="407" y="409" width="26" height="26" stroke="black" stroke-width="2"/>
<path d="M522.5 480L514 488.5C512.048 490.452 511.073 491.427 510.395 492.38C506.934 497.24 506.934 503.76 510.395 508.62C511.073 509.573 512.048 510.548 514 512.5V512.5C515.952 514.452 516.927 515.427 517.605 516.38C521.066 521.24 521.066 527.76 517.605 532.62C516.927 533.573 515.952 534.548 514 536.5V536.5C512.048 538.452 511.073 539.427 510.395 540.38C506.934 545.24 506.934 551.76 510.395 556.62C511.073 557.573 512.048 558.548 514 560.5V560.5C515.952 562.452 516.927 563.427 517.605 564.38C521.066 569.24 521.066 575.76 517.605 580.62C516.927 581.573 515.952 582.548 514 584.5L505.5 593C503.567 594.933 503.567 598.067 505.5 600V600" stroke="black" stroke-width="2"/>
<path d="M557 480L548.5 488.5C546.548 490.452 545.573 491.427 544.895 492.38C541.434 497.24 541.434 503.76 544.895 508.62C545.573 509.573 546.548 510.548 548.5 512.5V512.5C550.452 514.452 551.427 515.427 552.105 516.38C555.566 521.24 555.566 527.76 552.105 532.62C551.427 533.573 550.452 534.548 548.5 536.5V536.5C546.548 538.452 545.573 539.427 544.895 540.38C541.434 545.24 541.434 551.76 544.895 556.62C545.573 557.573 546.548 558.548 548.5 560.5V560.5C550.452 562.452 551.427 563.427 552.105 564.38C555.566 569.24 555.566 575.76 552.105 580.62C551.427 581.573 550.452 582.548 548.5 584.5L540 593C538.067 594.933 538.067 598.067 540 600V600" stroke="black" stroke-width="2"/>
<path d="M591.5 480L583 488.5C581.048 490.452 580.073 491.427 579.395 492.38C575.934 497.24 575.934 503.76 579.395 508.62C580.073 509.573 581.048 510.548 583 512.5V512.5C584.952 514.452 585.927 515.427 586.605 516.38C590.066 521.24 590.066 527.76 586.605 532.62C585.927 533.573 584.952 534.548 583 536.5V536.5C581.048 538.452 580.073 539.427 579.395 540.38C575.934 545.24 575.934 551.76 579.395 556.62C580.073 557.573 581.048 558.548 583 560.5V560.5C584.952 562.452 585.927 563.427 586.605 564.38C590.066 569.24 590.066 575.76 586.605 580.62C585.927 581.573 584.952 582.548 583 584.5L574.5 593C572.567 594.933 572.567 598.067 574.5 600V600" stroke="black" stroke-width="2"/>
<path d="M626 480L617.5 488.5C615.548 490.452 614.573 491.427 613.895 492.38C610.434 497.24 610.434 503.76 613.895 508.62C614.573 509.573 615.548 510.548 617.5 512.5V512.5C619.452 514.452 620.427 515.427 621.105 516.38C624.566 521.24 624.566 527.76 621.105 532.62C620.427 533.573 619.452 534.548 617.5 536.5V536.5C615.548 538.452 614.573 539.427 613.895 540.38C610.434 545.24 610.434 551.76 613.895 556.62C614.573 557.573 615.548 558.548 617.5 560.5V560.5C619.452 562.452 620.427 563.427 621.105 564.38C624.566 569.24 624.566 575.76 621.105 580.62C620.427 581.573 619.452 582.548 617.5 584.5L609 593C607.067 594.933 607.067 598.067 609 600V600" stroke="black" stroke-width="2"/>
<path d="M660.5 480L652 488.5C650.048 490.452 649.073 491.427 648.395 492.38C644.934 497.24 644.934 503.76 648.395 508.62C649.073 509.573 650.048 510.548 652 512.5V512.5C653.952 514.452 654.927 515.427 655.605 516.38C659.066 521.24 659.066 527.76 655.605 532.62C654.927 533.573 653.952 534.548 652 536.5V536.5C650.048 538.452 649.073 539.427 648.395 540.38C644.934 545.24 644.934 551.76 648.395 556.62C649.073 557.573 650.048 558.548 652 560.5V560.5C653.952 562.452 654.927 563.427 655.605 564.38C659.066 569.24 659.066 575.76 655.605 580.62C654.927 581.573 653.952 582.548 652 584.5L643.5 593C641.567 594.933 641.567 598.067 643.5 600V600" stroke="black" stroke-width="2"/>
<path d="M695 480L686.5 488.5C684.548 490.452 683.573 491.427 682.895 492.38C679.434 497.24 679.434 503.76 682.895 508.62C683.573 509.573 684.548 510.548 686.5 512.5V512.5C688.452 514.452 689.427 515.427 690.105 516.38C693.566 521.24 693.566 527.76 690.105 532.62C689.427 533.573 688.452 534.548 686.5 536.5V536.5C684.548 538.452 683.573 539.427 682.895 540.38C679.434 545.24 679.434 551.76 682.895 556.62C683.573 557.573 684.548 558.548 686.5 560.5V560.5C688.452 562.452 689.427 563.427 690.105 564.38C693.566 569.24 693.566 575.76 690.105 580.62C689.427 581.573 688.452 582.548 686.5 584.5L678 593C676.067 594.933 676.067 598.067 678 600V600" stroke="black" stroke-width="2"/>
<path d="M1020 330C995.315 330 973.379 341.768 959.496 360H1080.5C1066.62 341.768 1044.68 330 1020 330Z" stroke="black" stroke-width="2"/>
<path d="M1024 56C1024 67.598 1014.6 77 1003 77C997.466 77 992.434 74.8607 988.682 71.3622C984.569 67.5275 982 62.0646 982 56C982 44.402 991.402 35 1003 35C1014.6 35 1024 44.402 1024 56Z" stroke="black" stroke-width="2"/>
<path d="M1086 56C1086 67.598 1076.6 77 1065 77C1053.4 77 1044 67.598 1044 56C1044 44.402 1053.4 35 1065 35C1076.6 35 1086 44.402 1086 56Z" stroke="black" stroke-width="2"/>
<path d="M1148 56C1148 67.598 1138.6 77 1127 77C1115.4 77 1106 67.598 1106 56C1106 44.402 1115.4 35 1127 35C1138.6 35 1148 44.402 1148 56Z" stroke="black" stroke-width="2"/>
<path d="M1124.98 320.981C1127.85 318.514 1131.87 311.866 1125.01 305.015C1122.17 307.505 1118.18 314.183 1124.98 320.981Z" stroke="black" stroke-width="2"/>
<path d="M1140.98 320.981C1143.85 318.514 1147.87 311.866 1141.01 305.015C1138.17 307.505 1134.18 314.183 1140.98 320.981Z" stroke="black" stroke-width="2"/>
<path d="M1108.98 320.981C1111.85 318.514 1115.87 311.866 1109.01 305.015C1106.17 307.505 1102.18 314.183 1108.98 320.981Z" stroke="black" stroke-width="2"/>
<g clip-path="url(#clip1_923_2441)">
<rect x="183" y="550" width="208.356" height="208.356" rx="104.178" fill="#F6F5EE" stroke="black" stroke-width="2.60445"/>
<rect x="208" y="575" width="158" height="158" rx="79" stroke="black" stroke-width="2.60445"/>
<rect x="233" y="600" width="108" height="108" rx="54" stroke="black" stroke-width="2.60445"/>
<rect x="254" y="621" width="66" height="66" rx="33" stroke="black" stroke-width="2.60445"/>
</g>
<path d="M-79 720L87.5 480L254 720H87.5H-79Z" fill="#F6F5EE"/>
<path d="M87.5 480L-79 720H87.5M87.5 480L254 720H87.5M87.5 480V720" stroke="black" stroke-width="2.60445"/>
<path d="M151 720L234 600L317 720H234H151Z" fill="#F6F5EE"/>
<path d="M234 600L151 720H234M234 600L317 720H234M234 600V720" stroke="black" stroke-width="2.60445"/>
</g>
<rect x="1" y="1" width="1168" height="718" stroke="black" stroke-width="2"/>
<path d="M52.8 39.52V43.36H36.76V51.4H51.28V55.16H36.76V64.16H52.68V68H32.48V39.52H52.8ZM66.8766 54.92L69.6366 47.36H73.8766L65.9566 68H61.5166L53.6366 47.36H57.9566L60.7566 54.92C62.6499 60.5467 63.6632 63.6133 63.7966 64.12C63.8766 63.8533 64.0499 63.32 64.3166 62.52C64.5832 61.72 64.9566 60.6267 65.4366 59.24C65.9166 57.8267 66.3966 56.3867 66.8766 54.92ZM93.7706 57.84V59H78.2106C78.3973 61.0267 78.9973 62.56 80.0106 63.6C81.024 64.6133 82.3973 65.12 84.1306 65.12C86.744 65.12 88.4506 63.9733 89.2506 61.68H93.2906C92.7306 63.7867 91.6373 65.4533 90.0106 66.68C88.4106 67.88 86.424 68.48 84.0506 68.48C81.0906 68.48 78.704 67.4933 76.8906 65.52C75.0773 63.5467 74.1706 60.9333 74.1706 57.68C74.1706 54.4267 75.0773 51.8133 76.8906 49.84C78.704 47.8667 81.064 46.88 83.9706 46.88C87.0106 46.88 89.4106 47.9067 91.1706 49.96C92.904 52.0133 93.7706 54.64 93.7706 57.84ZM83.9706 50.24C82.3973 50.24 81.104 50.72 80.0906 51.68C79.104 52.64 78.4906 54.0267 78.2506 55.84H89.6506C89.464 54.16 88.864 52.8133 87.8506 51.8C86.864 50.76 85.5706 50.24 83.9706 50.24ZM107.598 47.04C108.185 47.04 108.571 47.0533 108.758 47.08V50.88H107.758C105.705 50.88 104.118 51.3867 102.998 52.4C101.878 53.4133 101.318 54.88 101.318 56.8V68H97.3181V47.36H101.158V51.04C102.465 48.3733 104.611 47.04 107.598 47.04ZM123.003 54.44L125.403 47.36H129.643L121.243 70.6C120.549 72.5733 119.629 73.96 118.483 74.76C117.336 75.56 115.709 75.96 113.603 75.96C112.883 75.96 112.189 75.92 111.523 75.84V72.6H113.523C115.309 72.6 116.509 71.7733 117.123 70.12C117.176 69.96 117.256 69.7067 117.363 69.36C117.496 69.0133 117.603 68.7467 117.683 68.56L110.043 47.36H114.403L116.803 54.44C118.083 58.3867 119.109 61.68 119.883 64.32C120.923 60.9333 121.963 57.64 123.003 54.44ZM147.771 68.52C142.037 68.52 139.024 66.16 138.731 61.44H142.731C142.891 62.88 143.357 63.8933 144.131 64.48C144.904 65.0667 146.131 65.36 147.811 65.36C150.851 65.36 152.371 64.4 152.371 62.48C152.371 61.6533 152.051 61.0133 151.411 60.56C150.771 60.1067 149.624 59.7333 147.971 59.44L145.851 59.04C141.477 58.24 139.291 56.1867 139.291 52.88C139.291 51.04 139.997 49.5867 141.411 48.52C142.824 47.4267 144.771 46.88 147.251 46.88C152.931 46.88 155.837 49.1867 155.971 53.8H152.091C152.011 52.4133 151.584 51.44 150.811 50.88C150.037 50.2933 148.851 50 147.251 50C145.971 50 144.984 50.24 144.291 50.72C143.597 51.2 143.251 51.88 143.251 52.76C143.251 53.56 143.557 54.1867 144.171 54.64C144.784 55.0667 145.757 55.4133 147.091 55.68L149.251 56.04C151.784 56.52 153.611 57.24 154.731 58.2C155.851 59.16 156.411 60.4933 156.411 62.2C156.411 64.2 155.651 65.76 154.131 66.88C152.611 67.9733 150.491 68.52 147.771 68.52ZM163.428 44.44H159.348V40.16H163.428V44.44ZM163.388 68H159.388V47.36H163.388V68ZM178.185 46.88C180.452 46.88 182.225 47.52 183.505 48.8C184.785 50.0533 185.425 51.84 185.425 54.16V68H181.425V54.72C181.425 51.84 179.972 50.4 177.065 50.4C175.732 50.4 174.532 50.9067 173.465 51.92C172.398 52.96 171.865 54.44 171.865 56.36V68H167.865V47.36H171.705V50.44C173.278 48.0667 175.438 46.88 178.185 46.88ZM205.255 50.28V47.36H209.095V67.24C209.095 70.0667 208.242 72.28 206.535 73.88C204.829 75.5067 202.402 76.32 199.255 76.32C196.562 76.32 194.415 75.7067 192.815 74.48C191.242 73.2533 190.349 71.5733 190.135 69.44H194.135C194.455 71.8667 196.175 73.08 199.295 73.08C203.162 73.08 205.095 71.16 205.095 67.32V65.04C203.522 67.1733 201.309 68.24 198.455 68.24C195.575 68.24 193.282 67.2667 191.575 65.32C189.842 63.3467 188.975 60.76 188.975 57.56C188.975 54.36 189.842 51.7733 191.575 49.8C193.282 47.8533 195.562 46.88 198.415 46.88C201.429 46.88 203.709 48.0133 205.255 50.28ZM199.175 64.8C201.042 64.8 202.509 64.16 203.575 62.88C204.669 61.5733 205.215 59.8 205.215 57.56C205.215 55.32 204.669 53.56 203.575 52.28C202.509 50.9733 201.042 50.32 199.175 50.32C197.335 50.32 195.869 50.9733 194.775 52.28C193.682 53.5867 193.135 55.3467 193.135 57.56C193.135 59.8 193.682 61.5733 194.775 62.88C195.869 64.16 197.335 64.8 199.175 64.8ZM217.607 68H213.607V39.52H217.607V68ZM240.724 57.84V59H225.164C225.35 61.0267 225.95 62.56 226.964 63.6C227.977 64.6133 229.35 65.12 231.084 65.12C233.697 65.12 235.404 63.9733 236.204 61.68H240.244C239.684 63.7867 238.59 65.4533 236.964 66.68C235.364 67.88 233.377 68.48 231.004 68.48C228.044 68.48 225.657 67.4933 223.844 65.52C222.03 63.5467 221.124 60.9333 221.124 57.68C221.124 54.4267 222.03 51.8133 223.844 49.84C225.657 47.8667 228.017 46.88 230.924 46.88C233.964 46.88 236.364 47.9067 238.124 49.96C239.857 52.0133 240.724 54.64 240.724 57.84ZM230.924 50.24C229.35 50.24 228.057 50.72 227.044 51.68C226.057 52.64 225.444 54.0267 225.204 55.84H236.604C236.417 54.16 235.817 52.8133 234.804 51.8C233.817 50.76 232.524 50.24 230.924 50.24ZM256.357 68H252.357V39.52H256.357V68ZM277.514 65.52C275.62 67.4933 273.154 68.48 270.114 68.48C267.074 68.48 264.607 67.4933 262.714 65.52C260.82 63.5467 259.874 60.9333 259.874 57.68C259.874 54.4 260.82 51.7733 262.714 49.8C264.58 47.8533 267.047 46.88 270.114 46.88C273.18 46.88 275.647 47.8533 277.514 49.8C279.38 51.7467 280.314 54.3733 280.314 57.68C280.314 60.96 279.38 63.5733 277.514 65.52ZM265.674 63.08C266.767 64.3867 268.247 65.04 270.114 65.04C271.98 65.04 273.447 64.3867 274.514 63.08C275.607 61.7733 276.154 59.9733 276.154 57.68C276.154 55.3867 275.607 53.5867 274.514 52.28C273.447 50.9733 271.98 50.32 270.114 50.32C268.247 50.32 266.767 50.9733 265.674 52.28C264.58 53.5867 264.034 55.3867 264.034 57.68C264.034 59.9733 264.58 61.7733 265.674 63.08ZM292.509 47.36V50.64H288.349V63.04C288.349 63.6533 288.522 64.1067 288.869 64.4C289.242 64.6667 289.855 64.8 290.709 64.8H292.509V68C291.629 68.08 290.815 68.12 290.069 68.12C288.122 68.12 286.682 67.7467 285.749 67C284.815 66.2533 284.349 65.0533 284.349 63.4V50.64H281.029V47.36H284.349V41.44H288.349V47.36H292.509ZM320.483 65.52C318.589 67.4933 316.123 68.48 313.083 68.48C310.043 68.48 307.576 67.4933 305.683 65.52C303.789 63.5467 302.843 60.9333 302.843 57.68C302.843 54.4 303.789 51.7733 305.683 49.8C307.549 47.8533 310.016 46.88 313.083 46.88C316.149 46.88 318.616 47.8533 320.483 49.8C322.349 51.7467 323.283 54.3733 323.283 57.68C323.283 60.96 322.349 63.5733 320.483 65.52ZM308.643 63.08C309.736 64.3867 311.216 65.04 313.083 65.04C314.949 65.04 316.416 64.3867 317.483 63.08C318.576 61.7733 319.123 59.9733 319.123 57.68C319.123 55.3867 318.576 53.5867 317.483 52.28C316.416 50.9733 314.949 50.32 313.083 50.32C311.216 50.32 309.736 50.9733 308.643 52.28C307.549 53.5867 307.003 55.3867 307.003 57.68C307.003 59.9733 307.549 61.7733 308.643 63.08ZM336.149 42.76H334.349C332.562 42.76 331.669 43.6667 331.669 45.48V47.36H335.989V50.64H331.669V68H327.669V50.64H324.349V47.36H327.669V45.48C327.669 41.4267 329.736 39.4 333.869 39.4C334.269 39.4 335.029 39.44 336.149 39.52V42.76ZM364.115 65.52C362.222 67.4933 359.755 68.48 356.715 68.48C353.675 68.48 351.209 67.4933 349.315 65.52C347.422 63.5467 346.475 60.9333 346.475 57.68C346.475 54.4 347.422 51.7733 349.315 49.8C351.182 47.8533 353.649 46.88 356.715 46.88C359.782 46.88 362.249 47.8533 364.115 49.8C365.982 51.7467 366.915 54.3733 366.915 57.68C366.915 60.96 365.982 63.5733 364.115 65.52ZM352.275 63.08C353.369 64.3867 354.849 65.04 356.715 65.04C358.582 65.04 360.049 64.3867 361.115 63.08C362.209 61.7733 362.755 59.9733 362.755 57.68C362.755 55.3867 362.209 53.5867 361.115 52.28C360.049 50.9733 358.582 50.32 356.715 50.32C354.849 50.32 353.369 50.9733 352.275 52.28C351.182 53.5867 350.635 55.3867 350.635 57.68C350.635 59.9733 351.182 61.7733 352.275 63.08ZM383.456 59V47.36H387.456V68H383.616V64.92C382.043 67.2933 379.883 68.48 377.136 68.48C374.87 68.48 373.096 67.84 371.816 66.56C370.536 65.28 369.896 63.4933 369.896 61.2V47.36H373.896V60.64C373.896 63.52 375.35 64.96 378.256 64.96C379.723 64.96 380.95 64.44 381.936 63.4C382.95 62.3333 383.456 60.8667 383.456 59ZM402.247 47.04C402.833 47.04 403.22 47.0533 403.407 47.08V50.88H402.407C400.353 50.88 398.767 51.3867 397.647 52.4C396.527 53.4133 395.967 54.88 395.967 56.8V68H391.967V47.36H395.807V51.04C397.113 48.3733 399.26 47.04 402.247 47.04ZM423.581 68.48C420.648 68.48 418.274 67.4933 416.461 65.52C414.648 63.5467 413.741 60.9333 413.741 57.68C413.741 54.4 414.648 51.7733 416.461 49.8C418.248 47.8533 420.621 46.88 423.581 46.88C426.114 46.88 428.194 47.5733 429.821 48.96C431.474 50.3467 432.461 52.2133 432.781 54.56H428.701C428.434 53.2 427.834 52.16 426.901 51.44C425.994 50.72 424.888 50.36 423.581 50.36C421.848 50.36 420.461 51 419.421 52.28C418.408 53.5333 417.901 55.3333 417.901 57.68C417.901 60.0267 418.408 61.84 419.421 63.12C420.461 64.3733 421.848 65 423.581 65C424.914 65 426.048 64.6267 426.981 63.88C427.914 63.1333 428.501 62.0533 428.741 60.64H432.821C432.501 63.04 431.501 64.9467 429.821 66.36C428.141 67.7733 426.061 68.48 423.581 68.48ZM452.67 65.52C450.777 67.4933 448.31 68.48 445.27 68.48C442.23 68.48 439.763 67.4933 437.87 65.52C435.977 63.5467 435.03 60.9333 435.03 57.68C435.03 54.4 435.977 51.7733 437.87 49.8C439.737 47.8533 442.203 46.88 445.27 46.88C448.337 46.88 450.803 47.8533 452.67 49.8C454.537 51.7467 455.47 54.3733 455.47 57.68C455.47 60.96 454.537 63.5733 452.67 65.52ZM440.83 63.08C441.923 64.3867 443.403 65.04 445.27 65.04C447.137 65.04 448.603 64.3867 449.67 63.08C450.763 61.7733 451.31 59.9733 451.31 57.68C451.31 55.3867 450.763 53.5867 449.67 52.28C448.603 50.9733 447.137 50.32 445.27 50.32C443.403 50.32 441.923 50.9733 440.83 52.28C439.737 53.5867 439.19 55.3867 439.19 57.68C439.19 59.9733 439.737 61.7733 440.83 63.08ZM468.337 42.76H466.537C464.75 42.76 463.857 43.6667 463.857 45.48V47.36H468.177V50.64H463.857V68H459.857V50.64H456.537V47.36H459.857V45.48C459.857 41.4267 461.923 39.4 466.057 39.4C466.457 39.4 467.217 39.44 468.337 39.52V42.76ZM481.657 42.76H479.857C478.07 42.76 477.177 43.6667 477.177 45.48V47.36H481.497V50.64H477.177V68H473.177V50.64H469.857V47.36H473.177V45.48C473.177 41.4267 475.244 39.4 479.377 39.4C479.777 39.4 480.537 39.44 481.657 39.52V42.76ZM502.052 57.84V59H486.492C486.679 61.0267 487.279 62.56 488.292 63.6C489.305 64.6133 490.679 65.12 492.412 65.12C495.025 65.12 496.732 63.9733 497.532 61.68H501.572C501.012 63.7867 499.919 65.4533 498.292 66.68C496.692 67.88 494.705 68.48 492.332 68.48C489.372 68.48 486.985 67.4933 485.172 65.52C483.359 63.5467 482.452 60.9333 482.452 57.68C482.452 54.4267 483.359 51.8133 485.172 49.84C486.985 47.8667 489.345 46.88 492.252 46.88C495.292 46.88 497.692 47.9067 499.452 49.96C501.185 52.0133 502.052 54.64 502.052 57.84ZM492.252 50.24C490.679 50.24 489.385 50.72 488.372 51.68C487.385 52.64 486.772 54.0267 486.532 55.84H497.932C497.745 54.16 497.145 52.8133 496.132 51.8C495.145 50.76 493.852 50.24 492.252 50.24ZM524.239 57.84V59H508.679C508.866 61.0267 509.466 62.56 510.479 63.6C511.493 64.6133 512.866 65.12 514.599 65.12C517.213 65.12 518.919 63.9733 519.719 61.68H523.759C523.199 63.7867 522.106 65.4533 520.479 66.68C518.879 67.88 516.893 68.48 514.519 68.48C511.559 68.48 509.173 67.4933 507.359 65.52C505.546 63.5467 504.639 60.9333 504.639 57.68C504.639 54.4267 505.546 51.8133 507.359 49.84C509.173 47.8667 511.533 46.88 514.439 46.88C517.479 46.88 519.879 47.9067 521.639 49.96C523.373 52.0133 524.239 54.64 524.239 57.84ZM514.439 50.24C512.866 50.24 511.573 50.72 510.559 51.68C509.573 52.64 508.959 54.0267 508.719 55.84H520.119C519.933 54.16 519.333 52.8133 518.319 51.8C517.333 50.76 516.039 50.24 514.439 50.24ZM539.913 44.44H535.833V40.16H539.913V44.44ZM539.873 68H535.873V47.36H539.873V68ZM551.989 68.52C546.256 68.52 543.243 66.16 542.949 61.44H546.949C547.109 62.88 547.576 63.8933 548.349 64.48C549.123 65.0667 550.349 65.36 552.029 65.36C555.069 65.36 556.589 64.4 556.589 62.48C556.589 61.6533 556.269 61.0133 555.629 60.56C554.989 60.1067 553.843 59.7333 552.189 59.44L550.069 59.04C545.696 58.24 543.509 56.1867 543.509 52.88C543.509 51.04 544.216 49.5867 545.629 48.52C547.043 47.4267 548.989 46.88 551.469 46.88C557.149 46.88 560.056 49.1867 560.189 53.8H556.309C556.229 52.4133 555.803 51.44 555.029 50.88C554.256 50.2933 553.069 50 551.469 50C550.189 50 549.203 50.24 548.509 50.72C547.816 51.2 547.469 51.88 547.469 52.76C547.469 53.56 547.776 54.1867 548.389 54.64C549.003 55.0667 549.976 55.4133 551.309 55.68L553.469 56.04C556.003 56.52 557.829 57.24 558.949 58.2C560.069 59.16 560.629 60.4933 560.629 62.2C560.629 64.2 559.869 65.76 558.349 66.88C556.829 67.9733 554.709 68.52 551.989 68.52ZM42.56 92.88C44.8267 92.88 46.6 93.52 47.88 94.8C49.16 96.0533 49.8 97.84 49.8 100.16V114H45.8V100.72C45.8 97.84 44.3467 96.4 41.44 96.4C40.1067 96.4 38.9067 96.9067 37.84 97.92C36.7733 98.96 36.24 100.44 36.24 102.36V114H32.24V85.52H36.24V96.2C37.8133 93.9867 39.92 92.88 42.56 92.88ZM72.0703 110.92H73.1903V114C72.6036 114.08 71.9503 114.12 71.2303 114.12C69.9503 114.12 68.9903 113.893 68.3503 113.44C67.737 112.96 67.3636 112.213 67.2303 111.2C65.8436 113.387 63.6036 114.48 60.5103 114.48C58.2436 114.48 56.4436 113.947 55.1103 112.88C53.8036 111.787 53.1503 110.28 53.1503 108.36C53.1503 104.627 55.737 102.493 60.9103 101.96L63.9503 101.64C65.017 101.507 65.7903 101.24 66.2703 100.84C66.777 100.413 67.0303 99.8133 67.0303 99.04C67.0303 98 66.697 97.2533 66.0303 96.8C65.3903 96.32 64.3103 96.08 62.7903 96.08C61.137 96.08 59.9503 96.36 59.2303 96.92C58.5103 97.4533 58.097 98.4133 57.9903 99.8H54.0303C54.3236 95.1867 57.2436 92.88 62.7903 92.88C68.2303 92.88 70.9503 94.9067 70.9503 98.96V109.88C70.9503 110.573 71.3236 110.92 72.0703 110.92ZM61.1103 111.36C62.817 111.36 64.2303 110.88 65.3503 109.92C66.4703 108.96 67.0303 107.6 67.0303 105.84V103.68C66.5236 104.107 65.6703 104.387 64.4703 104.52L61.5903 104.84C60.0436 105.027 58.937 105.4 58.2703 105.96C57.6036 106.493 57.2703 107.253 57.2703 108.24C57.2703 109.227 57.5903 110 58.2303 110.56C58.897 111.093 59.857 111.36 61.1103 111.36ZM86.1538 92.88C88.4204 92.88 90.1938 93.52 91.4738 94.8C92.7538 96.0533 93.3938 97.84 93.3938 100.16V114H89.3938V100.72C89.3938 97.84 87.9404 96.4 85.0338 96.4C83.7004 96.4 82.5004 96.9067 81.4338 97.92C80.3671 98.96 79.8338 100.44 79.8338 102.36V114H75.8338V93.36H79.6738V96.44C81.2471 94.0667 83.4071 92.88 86.1538 92.88ZM113.064 96.16V85.52H117.064V114H113.224V110.96C111.677 113.307 109.397 114.48 106.384 114.48C103.504 114.48 101.211 113.507 99.5041 111.56C97.7974 109.613 96.9441 106.987 96.9441 103.68C96.9441 100.373 97.7974 97.7467 99.5041 95.8C101.211 93.8533 103.504 92.88 106.384 92.88C109.291 92.88 111.517 93.9733 113.064 96.16ZM101.104 103.84C101.104 106.133 101.651 107.907 102.744 109.16C103.837 110.413 105.304 111.04 107.144 111.04C109.037 111.04 110.517 110.387 111.584 109.08C112.651 107.827 113.184 106.027 113.184 103.68C113.184 101.36 112.651 99.5467 111.584 98.24C110.517 96.96 109.037 96.32 107.144 96.32C105.304 96.32 103.837 96.9867 102.744 98.32C101.651 99.6533 101.104 101.493 101.104 103.84ZM140.622 104.48H128.902V101H140.622V104.48ZM163.155 92.88C166.035 92.88 168.329 93.8533 170.035 95.8C171.742 97.7467 172.595 100.373 172.595 103.68C172.595 106.96 171.742 109.573 170.035 111.52C168.302 113.493 166.009 114.48 163.155 114.48C160.222 114.48 157.982 113.36 156.435 111.12V121.84H152.435V93.36H156.275V96.48C157.822 94.08 160.115 92.88 163.155 92.88ZM157.995 109.08C159.062 110.387 160.529 111.04 162.395 111.04C164.262 111.04 165.742 110.373 166.835 109.04C167.902 107.733 168.435 105.893 168.435 103.52C168.435 101.227 167.902 99.4533 166.835 98.2C165.769 96.9467 164.289 96.32 162.395 96.32C160.555 96.32 159.089 96.96 157.995 98.24C156.902 99.5733 156.355 101.387 156.355 103.68C156.355 105.973 156.902 107.773 157.995 109.08ZM180.147 90.44H176.067V86.16H180.147V90.44ZM180.107 114H176.107V93.36H180.107V114ZM193.464 114.48C190.53 114.48 188.157 113.493 186.344 111.52C184.53 109.547 183.624 106.933 183.624 103.68C183.624 100.4 184.53 97.7733 186.344 95.8C188.13 93.8533 190.504 92.88 193.464 92.88C195.997 92.88 198.077 93.5733 199.704 94.96C201.357 96.3467 202.344 98.2133 202.664 100.56H198.584C198.317 99.2 197.717 98.16 196.784 97.44C195.877 96.72 194.77 96.36 193.464 96.36C191.73 96.36 190.344 97 189.304 98.28C188.29 99.5333 187.784 101.333 187.784 103.68C187.784 106.027 188.29 107.84 189.304 109.12C190.344 110.373 191.73 111 193.464 111C194.797 111 195.93 110.627 196.864 109.88C197.797 109.133 198.384 108.053 198.624 106.64H202.704C202.384 109.04 201.384 110.947 199.704 112.36C198.024 113.773 195.944 114.48 193.464 114.48ZM224.394 114H219.794L213.234 103.56L209.794 106.92V114H205.834V85.52H209.794V102.32L218.874 93.36H223.874L216.074 100.96L224.394 114ZM243.966 103.84V105H228.406C228.593 107.027 229.193 108.56 230.206 109.6C231.219 110.613 232.593 111.12 234.326 111.12C236.939 111.12 238.646 109.973 239.446 107.68H243.486C242.926 109.787 241.833 111.453 240.206 112.68C238.606 113.88 236.619 114.48 234.246 114.48C231.286 114.48 228.899 113.493 227.086 111.52C225.273 109.547 224.366 106.933 224.366 103.68C224.366 100.427 225.273 97.8133 227.086 95.84C228.899 93.8667 231.259 92.88 234.166 92.88C237.206 92.88 239.606 93.9067 241.366 95.96C243.099 98.0133 243.966 100.64 243.966 103.84ZM234.166 96.24C232.593 96.24 231.299 96.72 230.286 97.68C229.299 98.64 228.686 100.027 228.446 101.84H239.846C239.659 100.16 239.059 98.8133 238.046 97.8C237.059 96.76 235.766 96.24 234.166 96.24ZM262.673 96.16V85.52H266.673V114H262.833V110.96C261.287 113.307 259.007 114.48 255.993 114.48C253.113 114.48 250.82 113.507 249.113 111.56C247.407 109.613 246.553 106.987 246.553 103.68C246.553 100.373 247.407 97.7467 249.113 95.8C250.82 93.8533 253.113 92.88 255.993 92.88C258.9 92.88 261.127 93.9733 262.673 96.16ZM250.713 103.84C250.713 106.133 251.26 107.907 252.353 109.16C253.447 110.413 254.913 111.04 256.753 111.04C258.647 111.04 260.127 110.387 261.193 109.08C262.26 107.827 262.793 106.027 262.793 103.68C262.793 101.36 262.26 99.5467 261.193 98.24C260.127 96.96 258.647 96.32 256.753 96.32C254.913 96.32 253.447 96.9867 252.353 98.32C251.26 99.6533 250.713 101.493 250.713 103.84ZM297.031 110.92H298.151V114C297.565 114.08 296.911 114.12 296.191 114.12C294.911 114.12 293.951 113.893 293.311 113.44C292.698 112.96 292.325 112.213 292.191 111.2C290.805 113.387 288.565 114.48 285.471 114.48C283.205 114.48 281.405 113.947 280.071 112.88C278.765 111.787 278.111 110.28 278.111 108.36C278.111 104.627 280.698 102.493 285.871 101.96L288.911 101.64C289.978 101.507 290.751 101.24 291.231 100.84C291.738 100.413 291.991 99.8133 291.991 99.04C291.991 98 291.658 97.2533 290.991 96.8C290.351 96.32 289.271 96.08 287.751 96.08C286.098 96.08 284.911 96.36 284.191 96.92C283.471 97.4533 283.058 98.4133 282.951 99.8H278.991C279.285 95.1867 282.205 92.88 287.751 92.88C293.191 92.88 295.911 94.9067 295.911 98.96V109.88C295.911 110.573 296.285 110.92 297.031 110.92ZM286.071 111.36C287.778 111.36 289.191 110.88 290.311 109.92C291.431 108.96 291.991 107.6 291.991 105.84V103.68C291.485 104.107 290.631 104.387 289.431 104.52L286.551 104.84C285.005 105.027 283.898 105.4 283.231 105.96C282.565 106.493 282.231 107.253 282.231 108.24C282.231 109.227 282.551 110 283.191 110.56C283.858 111.093 284.818 111.36 286.071 111.36ZM311.115 92.88C313.381 92.88 315.155 93.52 316.435 94.8C317.715 96.0533 318.355 97.84 318.355 100.16V114H314.355V100.72C314.355 97.84 312.901 96.4 309.995 96.4C308.661 96.4 307.461 96.9067 306.395 97.92C305.328 98.96 304.795 100.44 304.795 102.36V114H300.795V93.36H304.635V96.44C306.208 94.0667 308.368 92.88 311.115 92.88ZM338.025 96.16V85.52H342.025V114H338.185V110.96C336.638 113.307 334.358 114.48 331.345 114.48C328.465 114.48 326.172 113.507 324.465 111.56C322.758 109.613 321.905 106.987 321.905 103.68C321.905 100.373 322.758 97.7467 324.465 95.8C326.172 93.8533 328.465 92.88 331.345 92.88C334.252 92.88 336.478 93.9733 338.025 96.16ZM326.065 103.84C326.065 106.133 326.612 107.907 327.705 109.16C328.798 110.413 330.265 111.04 332.105 111.04C333.998 111.04 335.478 110.387 336.545 109.08C337.612 107.827 338.145 106.027 338.145 103.68C338.145 101.36 337.612 99.5467 336.545 98.24C335.478 96.96 333.998 96.32 332.105 96.32C330.265 96.32 328.798 96.9867 327.705 98.32C326.612 99.6533 326.065 101.493 326.065 103.84ZM364.943 92.88C367.209 92.88 368.983 93.52 370.263 94.8C371.543 96.0533 372.183 97.84 372.183 100.16V114H368.183V100.72C368.183 97.84 366.729 96.4 363.823 96.4C362.489 96.4 361.289 96.9067 360.223 97.92C359.156 98.96 358.623 100.44 358.623 102.36V114H354.623V85.52H358.623V96.2C360.196 93.9867 362.303 92.88 364.943 92.88ZM394.453 110.92H395.573V114C394.986 114.08 394.333 114.12 393.613 114.12C392.333 114.12 391.373 113.893 390.733 113.44C390.12 112.96 389.746 112.213 389.613 111.2C388.226 113.387 385.986 114.48 382.893 114.48C380.626 114.48 378.826 113.947 377.493 112.88C376.186 111.787 375.533 110.28 375.533 108.36C375.533 104.627 378.12 102.493 383.293 101.96L386.333 101.64C387.4 101.507 388.173 101.24 388.653 100.84C389.16 100.413 389.413 99.8133 389.413 99.04C389.413 98 389.08 97.2533 388.413 96.8C387.773 96.32 386.693 96.08 385.173 96.08C383.52 96.08 382.333 96.36 381.613 96.92C380.893 97.4533 380.48 98.4133 380.373 99.8H376.413C376.706 95.1867 379.626 92.88 385.173 92.88C390.613 92.88 393.333 94.9067 393.333 98.96V109.88C393.333 110.573 393.706 110.92 394.453 110.92ZM383.493 111.36C385.2 111.36 386.613 110.88 387.733 109.92C388.853 108.96 389.413 107.6 389.413 105.84V103.68C388.906 104.107 388.053 104.387 386.853 104.52L383.973 104.84C382.426 105.027 381.32 105.4 380.653 105.96C379.986 106.493 379.653 107.253 379.653 108.24C379.653 109.227 379.973 110 380.613 110.56C381.28 111.093 382.24 111.36 383.493 111.36ZM408.537 92.88C410.803 92.88 412.577 93.52 413.857 94.8C415.137 96.0533 415.777 97.84 415.777 100.16V114H411.777V100.72C411.777 97.84 410.323 96.4 407.417 96.4C406.083 96.4 404.883 96.9067 403.817 97.92C402.75 98.96 402.217 100.44 402.217 102.36V114H398.217V93.36H402.057V96.44C403.63 94.0667 405.79 92.88 408.537 92.88ZM435.447 96.16V85.52H439.447V114H435.607V110.96C434.06 113.307 431.78 114.48 428.767 114.48C425.887 114.48 423.594 113.507 421.887 111.56C420.18 109.613 419.327 106.987 419.327 103.68C419.327 100.373 420.18 97.7467 421.887 95.8C423.594 93.8533 425.887 92.88 428.767 92.88C431.674 92.88 433.9 93.9733 435.447 96.16ZM423.487 103.84C423.487 106.133 424.034 107.907 425.127 109.16C426.22 110.413 427.687 111.04 429.527 111.04C431.42 111.04 432.9 110.387 433.967 109.08C435.034 107.827 435.567 106.027 435.567 103.68C435.567 101.36 435.034 99.5467 433.967 98.24C432.9 96.96 431.42 96.32 429.527 96.32C427.687 96.32 426.22 96.9867 425.127 98.32C424.034 99.6533 423.487 101.493 423.487 103.84ZM463.005 104.48H451.285V101H463.005V104.48ZM482.458 114.52C476.725 114.52 473.711 112.16 473.418 107.44H477.418C477.578 108.88 478.045 109.893 478.818 110.48C479.591 111.067 480.818 111.36 482.498 111.36C485.538 111.36 487.058 110.4 487.058 108.48C487.058 107.653 486.738 107.013 486.098 106.56C485.458 106.107 484.311 105.733 482.658 105.44L480.538 105.04C476.165 104.24 473.978 102.187 473.978 98.88C473.978 97.04 474.685 95.5867 476.098 94.52C477.511 93.4267 479.458 92.88 481.938 92.88C487.618 92.88 490.525 95.1867 490.658 99.8H486.778C486.698 98.4133 486.271 97.44 485.498 96.88C484.725 96.2933 483.538 96 481.938 96C480.658 96 479.671 96.24 478.978 96.72C478.285 97.2 477.938 97.88 477.938 98.76C477.938 99.56 478.245 100.187 478.858 100.64C479.471 101.067 480.445 101.413 481.778 101.68L483.938 102.04C486.471 102.52 488.298 103.24 489.418 104.2C490.538 105.16 491.098 106.493 491.098 108.2C491.098 110.2 490.338 111.76 488.818 112.88C487.298 113.973 485.178 114.52 482.458 114.52ZM510.756 111.52C508.863 113.493 506.396 114.48 503.356 114.48C500.316 114.48 497.849 113.493 495.956 111.52C494.063 109.547 493.116 106.933 493.116 103.68C493.116 100.4 494.063 97.7733 495.956 95.8C497.823 93.8533 500.289 92.88 503.356 92.88C506.423 92.88 508.889 93.8533 510.756 95.8C512.623 97.7467 513.556 100.373 513.556 103.68C513.556 106.96 512.623 109.573 510.756 111.52ZM498.916 109.08C500.009 110.387 501.489 111.04 503.356 111.04C505.223 111.04 506.689 110.387 507.756 109.08C508.849 107.773 509.396 105.973 509.396 103.68C509.396 101.387 508.849 99.5867 507.756 98.28C506.689 96.9733 505.223 96.32 503.356 96.32C501.489 96.32 500.009 96.9733 498.916 98.28C497.823 99.5867 497.276 101.387 497.276 103.68C497.276 105.973 497.823 107.773 498.916 109.08ZM527.364 93.04C527.95 93.04 528.337 93.0533 528.524 93.08V96.88H527.524C525.47 96.88 523.884 97.3867 522.764 98.4C521.644 99.4133 521.084 100.88 521.084 102.8V114H517.084V93.36H520.924V97.04C522.23 94.3733 524.377 93.04 527.364 93.04ZM541.415 93.36V96.64H537.255V109.04C537.255 109.653 537.428 110.107 537.775 110.4C538.148 110.667 538.762 110.8 539.615 110.8H541.415V114C540.535 114.08 539.722 114.12 538.975 114.12C537.028 114.12 535.588 113.747 534.655 113C533.722 112.253 533.255 111.053 533.255 109.4V96.64H529.935V93.36H533.255V87.44H537.255V93.36H541.415ZM562.872 103.84V105H547.312C547.499 107.027 548.099 108.56 549.112 109.6C550.126 110.613 551.499 111.12 553.232 111.12C555.846 111.12 557.552 109.973 558.352 107.68H562.392C561.832 109.787 560.739 111.453 559.112 112.68C557.512 113.88 555.526 114.48 553.152 114.48C550.192 114.48 547.806 113.493 545.992 111.52C544.179 109.547 543.272 106.933 543.272 103.68C543.272 100.427 544.179 97.8133 545.992 95.84C547.806 93.8667 550.166 92.88 553.072 92.88C556.112 92.88 558.512 93.9067 560.272 95.96C562.006 98.0133 562.872 100.64 562.872 103.84ZM553.072 96.24C551.499 96.24 550.206 96.72 549.192 97.68C548.206 98.64 547.592 100.027 547.352 101.84H558.752C558.566 100.16 557.966 98.8133 556.952 97.8C555.966 96.76 554.672 96.24 553.072 96.24ZM581.58 96.16V85.52H585.58V114H581.74V110.96C580.193 113.307 577.913 114.48 574.9 114.48C572.02 114.48 569.726 113.507 568.02 111.56C566.313 109.613 565.46 106.987 565.46 103.68C565.46 100.373 566.313 97.7467 568.02 95.8C569.726 93.8533 572.02 92.88 574.9 92.88C577.806 92.88 580.033 93.9733 581.58 96.16ZM569.62 103.84C569.62 106.133 570.166 107.907 571.26 109.16C572.353 110.413 573.82 111.04 575.66 111.04C577.553 111.04 579.033 110.387 580.1 109.08C581.166 107.827 581.7 106.027 581.7 103.68C581.7 101.36 581.166 99.5467 580.1 98.24C579.033 96.96 577.553 96.32 575.66 96.32C573.82 96.32 572.353 96.9867 571.26 98.32C570.166 99.6533 569.62 101.493 569.62 103.84ZM54.8 138.88C57.04 138.88 58.7867 139.547 60.04 140.88C61.2933 142.187 61.92 143.947 61.92 146.16V160H57.88V146.68C57.88 143.827 56.56 142.4 53.92 142.4C52.5067 142.4 51.3467 142.947 50.44 144.04C49.5333 145.107 49.08 146.653 49.08 148.68V160H45.08V146.68C45.08 143.827 43.7467 142.4 41.08 142.4C39.6667 142.4 38.5067 142.947 37.6 144.04C36.6933 145.133 36.24 146.68 36.24 148.68V160H32.24V139.36H36.08V142.44C37.4933 140.067 39.48 138.88 42.04 138.88C45.16 138.88 47.28 140.173 48.4 142.76C49.8667 140.173 52 138.88 54.8 138.88ZM79.2375 151V139.36H83.2375V160H79.3975V156.92C77.8242 159.293 75.6642 160.48 72.9175 160.48C70.6508 160.48 68.8775 159.84 67.5975 158.56C66.3175 157.28 65.6775 155.493 65.6775 153.2V139.36H69.6775V152.64C69.6775 155.52 71.1308 156.96 74.0375 156.96C75.5042 156.96 76.7308 156.44 77.7175 155.4C78.7308 154.333 79.2375 152.867 79.2375 151ZM91.7478 160H87.7478V131.52H91.7478V160ZM106.024 139.36V142.64H101.864V155.04C101.864 155.653 102.038 156.107 102.384 156.4C102.758 156.667 103.371 156.8 104.224 156.8H106.024V160C105.144 160.08 104.331 160.12 103.584 160.12C101.638 160.12 100.198 159.747 99.2644 159C98.331 158.253 97.8644 157.053 97.8644 155.4V142.64H94.5444V139.36H97.8644V133.44H101.864V139.36H106.024ZM113.272 136.44H109.192V132.16H113.272V136.44ZM113.232 160H109.232V139.36H113.232V160ZM128.429 138.88C131.309 138.88 133.602 139.853 135.309 141.8C137.015 143.747 137.869 146.373 137.869 149.68C137.869 152.96 137.015 155.573 135.309 157.52C133.575 159.493 131.282 160.48 128.429 160.48C125.495 160.48 123.255 159.36 121.709 157.12V167.84H117.709V139.36H121.549V142.48C123.095 140.08 125.389 138.88 128.429 138.88ZM123.269 155.08C124.335 156.387 125.802 157.04 127.669 157.04C129.535 157.04 131.015 156.373 132.109 155.04C133.175 153.733 133.709 151.893 133.709 149.52C133.709 147.227 133.175 145.453 132.109 144.2C131.042 142.947 129.562 142.32 127.669 142.32C125.829 142.32 124.362 142.96 123.269 144.24C122.175 145.573 121.629 147.387 121.629 149.68C121.629 151.973 122.175 153.773 123.269 155.08ZM145.381 160H141.381V131.52H145.381V160ZM168.497 149.84V151H152.937C153.124 153.027 153.724 154.56 154.737 155.6C155.751 156.613 157.124 157.12 158.857 157.12C161.471 157.12 163.177 155.973 163.977 153.68H168.017C167.457 155.787 166.364 157.453 164.737 158.68C163.137 159.88 161.151 160.48 158.777 160.48C155.817 160.48 153.431 159.493 151.617 157.52C149.804 155.547 148.897 152.933 148.897 149.68C148.897 146.427 149.804 143.813 151.617 141.84C153.431 139.867 155.791 138.88 158.697 138.88C161.737 138.88 164.137 139.907 165.897 141.96C167.631 144.013 168.497 146.64 168.497 149.84ZM158.697 142.24C157.124 142.24 155.831 142.72 154.817 143.68C153.831 144.64 153.217 146.027 152.977 147.84H164.377C164.191 146.16 163.591 144.813 162.577 143.8C161.591 142.76 160.297 142.24 158.697 142.24ZM189.931 139.36V142.64H185.771V155.04C185.771 155.653 185.944 156.107 186.291 156.4C186.664 156.667 187.277 156.8 188.131 156.8H189.931V160C189.051 160.08 188.237 160.12 187.491 160.12C185.544 160.12 184.104 159.747 183.171 159C182.237 158.253 181.771 157.053 181.771 155.4V142.64H178.451V139.36H181.771V133.44H185.771V139.36H189.931ZM197.178 136.44H193.098V132.16H197.178V136.44ZM197.138 160H193.138V139.36H197.138V160ZM224.175 138.88C226.415 138.88 228.162 139.547 229.415 140.88C230.668 142.187 231.295 143.947 231.295 146.16V160H227.255V146.68C227.255 143.827 225.935 142.4 223.295 142.4C221.882 142.4 220.722 142.947 219.815 144.04C218.908 145.107 218.455 146.653 218.455 148.68V160H214.455V146.68C214.455 143.827 213.122 142.4 210.455 142.4C209.042 142.4 207.882 142.947 206.975 144.04C206.068 145.133 205.615 146.68 205.615 148.68V160H201.615V139.36H205.455V142.44C206.868 140.067 208.855 138.88 211.415 138.88C214.535 138.88 216.655 140.173 217.775 142.76C219.242 140.173 221.375 138.88 224.175 138.88ZM254.396 149.84V151H238.836C239.022 153.027 239.622 154.56 240.636 155.6C241.649 156.613 243.022 157.12 244.756 157.12C247.369 157.12 249.076 155.973 249.876 153.68H253.916C253.356 155.787 252.262 157.453 250.636 158.68C249.036 159.88 247.049 160.48 244.676 160.48C241.716 160.48 239.329 159.493 237.516 157.52C235.702 155.547 234.796 152.933 234.796 149.68C234.796 146.427 235.702 143.813 237.516 141.84C239.329 139.867 241.689 138.88 244.596 138.88C247.636 138.88 250.036 139.907 251.796 141.96C253.529 144.013 254.396 146.64 254.396 149.84ZM244.596 142.24C243.022 142.24 241.729 142.72 240.716 143.68C239.729 144.64 239.116 146.027 238.876 147.84H250.276C250.089 146.16 249.489 144.813 248.476 143.8C247.489 142.76 246.196 142.24 244.596 142.24ZM265.466 160.52C259.733 160.52 256.719 158.16 256.426 153.44H260.426C260.586 154.88 261.053 155.893 261.826 156.48C262.599 157.067 263.826 157.36 265.506 157.36C268.546 157.36 270.066 156.4 270.066 154.48C270.066 153.653 269.746 153.013 269.106 152.56C268.466 152.107 267.319 151.733 265.666 151.44L263.546 151.04C259.173 150.24 256.986 148.187 256.986 144.88C256.986 143.04 257.693 141.587 259.106 140.52C260.519 139.427 262.466 138.88 264.946 138.88C270.626 138.88 273.533 141.187 273.666 145.8H269.786C269.706 144.413 269.279 143.44 268.506 142.88C267.733 142.293 266.546 142 264.946 142C263.666 142 262.679 142.24 261.986 142.72C261.293 143.2 260.946 143.88 260.946 144.76C260.946 145.56 261.253 146.187 261.866 146.64C262.479 147.067 263.453 147.413 264.786 147.68L266.946 148.04C269.479 148.52 271.306 149.24 272.426 150.2C273.546 151.16 274.106 152.493 274.106 154.2C274.106 156.2 273.346 157.76 271.826 158.88C270.306 159.973 268.186 160.52 265.466 160.52Z" fill="#151515"/>
<defs>
<clipPath id="clip0_923_2441">
<rect width="1170" height="720" fill="white"/>
</clipPath>
<clipPath id="clip1_923_2441">
<rect width="178" height="171" fill="white" transform="translate(180 548)"/>
</clipPath>
</defs>
</svg>