<svg width="20" height="20" viewBox="0 0 20 20" fill="none" xmlns="http://www.w3.org/2000/svg">
<path d="M6.98734 10.1035C6.98734 8.38023 8.38482 6.98284 10.1092 6.98284C11.8335 6.98284 13.2317 8.38023 13.2317 10.1035C13.2317 11.8269 11.8335 13.2242 10.1092 13.2242C8.38482 13.2242 6.98734 11.8269 6.98734 10.1035ZM5.29933 10.1035C5.29933 12.7584 7.45269 14.9105 10.1092 14.9105C12.7656 14.9105 14.919 12.7584 14.919 10.1035C14.919 7.44866 12.7656 5.2966 10.1092 5.2966C7.45269 5.2966 5.29933 7.44866 5.29933 10.1035ZM13.9854 5.106C13.9853 5.32818 14.0511 5.5454 14.1746 5.73019C14.298 5.91497 14.4735 6.05903 14.6788 6.14413C14.8842 6.22924 15.1102 6.25158 15.3283 6.20832C15.5463 6.16506 15.7466 6.05815 15.9039 5.90111C16.0612 5.74407 16.1683 5.54394 16.2118 5.32605C16.2552 5.10816 16.233 4.88228 16.1481 4.67698C16.0631 4.47167 15.9191 4.29617 15.7343 4.17266C15.5495 4.04915 15.3322 3.98318 15.1099 3.98309H15.1094C14.8114 3.98323 14.5257 4.10157 14.3149 4.31211C14.1041 4.52265 13.9856 4.80819 13.9854 5.106ZM6.3249 17.7235C5.41166 17.6819 4.91529 17.5299 4.58542 17.4014C4.14809 17.2313 3.83606 17.0286 3.50799 16.7012C3.17992 16.3738 2.97685 16.0622 2.80734 15.6252C2.67875 15.2957 2.52663 14.7994 2.48512 13.8867C2.43971 12.9 2.43064 12.6036 2.43064 10.1036C2.43064 7.60369 2.44046 7.30809 2.48512 6.32051C2.52671 5.40781 2.67995 4.91256 2.80734 4.58207C2.9776 4.145 3.18037 3.83316 3.50799 3.50529C3.83561 3.17741 4.14735 2.97446 4.58542 2.80506C4.91514 2.67654 5.41166 2.52452 6.3249 2.48303C7.31226 2.43764 7.60886 2.42858 10.1092 2.42858C12.6095 2.42858 12.9064 2.43839 13.8945 2.48303C14.8078 2.52459 15.3033 2.67774 15.634 2.80506C16.0714 2.97446 16.3834 3.17786 16.7115 3.50529C17.0395 3.83271 17.2419 4.145 17.4121 4.58207C17.5407 4.91159 17.6928 5.40781 17.7343 6.32051C17.7797 7.30809 17.7888 7.60369 17.7888 10.1036C17.7888 12.6036 17.7797 12.8991 17.7343 13.8867C17.6927 14.7994 17.5399 15.2955 17.4121 15.6252C17.2419 16.0622 17.0391 16.3741 16.7115 16.7012C16.3838 17.0283 16.0714 17.2313 15.634 17.4014C15.3043 17.5299 14.8078 17.682 13.8945 17.7235C12.9072 17.7688 12.6106 17.7779 10.1092 17.7779C7.60773 17.7779 7.31196 17.7688 6.3249 17.7235ZM6.24735 0.79888C5.25018 0.844264 4.56878 1.00228 3.97372 1.2337C3.35745 1.47267 2.83574 1.79328 2.31442 2.31347C1.79309 2.83366 1.47311 3.35588 1.23399 3.97178C1.00244 4.56686 0.844325 5.24747 0.798914 6.24404C0.752753 7.24219 0.742188 7.5613 0.742188 10.1035C0.742188 12.6458 0.752753 12.9649 0.798914 13.963C0.844325 14.9597 1.00244 15.6402 1.23399 16.2353C1.47311 16.8508 1.79316 17.3736 2.31442 17.8936C2.83567 18.4136 3.35745 18.7337 3.97372 18.9734C4.56991 19.2048 5.25018 19.3628 6.24735 19.4082C7.24662 19.4536 7.56539 19.4649 10.1092 19.4649C12.6529 19.4649 12.9722 19.4543 13.971 19.4082C14.9682 19.3628 15.6492 19.2048 16.2446 18.9734C16.8605 18.7337 17.3826 18.4138 17.9039 17.8936C18.4252 17.3734 18.7445 16.8508 18.9843 16.2353C19.2159 15.6402 19.3748 14.9596 19.4194 13.963C19.4648 12.9642 19.4754 12.6458 19.4754 10.1035C19.4754 7.5613 19.4648 7.24219 19.4194 6.24404C19.374 5.2474 19.2159 4.56649 18.9843 3.97178C18.7445 3.35625 18.4244 2.83449 17.9039 2.31347C17.3834 1.79246 16.8605 1.47267 16.2454 1.2337C15.6492 1.00228 14.9682 0.843515 13.9717 0.79888C12.973 0.753496 12.6537 0.742188 10.1099 0.742188C7.56614 0.742188 7.24662 0.752747 6.24735 0.79888Z" fill="white"/>
</svg>
