<svg width="79" height="32" viewBox="0 0 79 32" fill="none" xmlns="http://www.w3.org/2000/svg">
<g clip-path="url(#clip0_367_2690)">
<path d="M0 32C4.16888 32 8.16702 30.3364 11.1149 27.3751C14.0627 24.4139 15.7188 20.3975 15.7188 16.2097C15.7188 12.0218 14.0627 8.0055 11.1149 5.04424C8.16702 2.08298 4.16888 0.419365 -1.38043e-06 0.419365L0 32Z" fill="#01C07D"/>
<path d="M31.8555 32C27.6866 32 23.6885 30.3364 20.7406 27.3751C17.7928 24.4139 16.1367 20.3975 16.1367 16.2097C16.1367 12.0218 17.7928 8.0055 20.7406 5.04424C23.6885 2.08298 27.6866 0.419364 31.8555 0.419364" fill="#E37428"/>
<path d="M78.8595 16.0007C78.8595 20.1885 77.2034 24.2049 74.2555 27.1661C71.3077 30.1274 67.3096 31.791 63.1407 31.791C58.9718 31.791 54.9736 30.1274 52.0258 27.1661C49.078 24.2049 47.4219 20.1886 47.4219 16.0007" fill="#01C07D"/>
<path d="M47.5743 31.5918C43.4054 31.5918 39.4072 29.9282 36.4594 26.9669C33.5116 24.0057 31.8555 19.9893 31.8555 15.8015C31.8555 11.6136 33.5116 7.5973 36.4594 4.63604C39.4072 1.67478 43.4054 0.0111613 47.5743 0.0111611" fill="#E4DD1C"/>
<path d="M63.3477 0.000348358C63.3477 2.09427 62.5197 4.10244 61.0457 5.58307C59.5718 7.0637 57.5727 7.89551 55.4883 7.89551C53.4039 7.89551 51.4048 7.0637 49.9309 5.58307C48.4569 4.10244 47.6289 2.09428 47.6289 0.000349045" fill="#262324"/>
<path d="M63.3477 15.791C63.3477 13.6971 62.5197 11.6889 61.0457 10.2083C59.5718 8.72767 57.5727 7.89586 55.4883 7.89586C53.4039 7.89586 51.4048 8.72767 49.9309 10.2083C48.4569 11.6889 47.6289 13.6971 47.6289 15.791" fill="#E4DD1C"/>
<path d="M78.4297 7.92222C78.4297 3.56185 74.911 0.0270647 70.5703 0.0270649C66.2297 0.0270651 62.7109 3.56185 62.7109 7.92222C62.7109 12.2826 66.2297 15.8174 70.5703 15.8174C74.911 15.8174 78.4297 12.2826 78.4297 7.92222Z" fill="#E37428"/>
</g>
<defs>
<clipPath id="clip0_367_2690">
<rect width="32" height="79" fill="white" transform="translate(0 32) rotate(-90)"/>
</clipPath>
</defs>
</svg>
