<svg width="960" height="720" viewBox="0 0 960 720" fill="none" xmlns="http://www.w3.org/2000/svg">
<g clip-path="url(#clip0_1279_4656)">
<rect width="960" height="720" fill="#E37428"/>
<path d="M640 400H320V720C496.731 720 640 576.731 640 400Z" fill="#2891B2" stroke="#262324" stroke-width="2"/>
<path d="M580 400H320V660C463.594 660 580 543.594 580 400Z" fill="#F38EA1" stroke="#262324" stroke-width="2"/>
<path d="M520 400H320V600C430.457 600 520 510.457 520 400Z" fill="#E52323" stroke="#262324" stroke-width="2"/>
<path d="M640 400H960C960 576.731 816.731 720 640 720V400Z" fill="#2891B2" stroke="#262324" stroke-width="2"/>
<path d="M0 0C176.731 0 320 143.269 320 320V400H0V0Z" fill="#E4DD1C" stroke="#262324" stroke-width="2"/>
<path d="M160 280.818C186.333 282.76 239 269.944 239 203.144C212.667 201.418 160 214.536 160 280.818Z" fill="#262324" stroke="#262324" stroke-width="2"/>
<path d="M159.257 218.814C178.314 202.38 205.147 158.23 160.014 113.097C141.102 129.677 114.474 174.031 159.257 218.814Z" fill="#262324" stroke="#262324" stroke-width="2"/>
<path d="M160 280.818C134 282.76 82 269.944 82 203.144C108 201.418 160 214.536 160 280.818Z" fill="#262324" stroke="#262324" stroke-width="2"/>
<path d="M160 374.772C193 377.211 259 361.109 259 277.181C226 275.012 160 291.494 160 374.772Z" fill="#262324" stroke="#262324" stroke-width="2"/>
<path d="M160 374.772C127.333 377.211 62 361.109 62 277.181C94.6667 275.012 160 291.494 160 374.772Z" fill="#262324" stroke="#262324" stroke-width="2"/>
<path d="M640 0C816.731 0 960 143.269 960 320V400H640V0Z" fill="#F38EA1" stroke="#262324" stroke-width="2"/>
<path d="M320 320C320 143.269 463.269 0 640 0V400H320V320Z" fill="#2891B2" stroke="#262324" stroke-width="2"/>
<path d="M439 340.388C439 373.219 412.331 399.833 379.5 399.833C346.669 399.833 320 373.219 320 340.388C320 307.558 346.669 280.943 379.5 280.943C412.331 280.943 439 307.558 439 340.388Z" fill="#00A86B"/>
<path d="M320 340.388V340.388C320 373.219 346.669 399.833 379.5 399.833V399.833M320 340.388V340.388C320 307.558 346.669 280.943 379.5 280.943V280.943C412.331 280.943 439 307.558 439 340.388V340.388M320 340.388C339.833 340.884 379.5 353.466 379.5 399.833M379.5 399.833V399.833C412.331 399.833 439 373.219 439 340.388V340.388M379.5 399.833C378.839 380.018 389.813 340.388 439 340.388" stroke="#262324" stroke-width="2"/>
<path d="M439 340.388C439 373.219 412.331 399.833 379.5 399.833C346.669 399.833 320 373.219 320 340.388C320 307.558 346.669 280.943 379.5 280.943C412.331 280.943 439 307.558 439 340.388Z" fill="#00A86B"/>
<path d="M320 340.388V340.388C320 373.219 346.669 399.833 379.5 399.833V399.833M320 340.388V340.388C320 307.558 346.669 280.943 379.5 280.943V280.943C412.331 280.943 439 307.558 439 340.388V340.388M320 340.388C339.833 340.883 379.5 353.466 379.5 399.833M379.5 399.833V399.833C412.331 399.833 439 373.219 439 340.388V340.388M379.5 399.833C378.839 380.018 389.813 340.388 439 340.388" stroke="#262324" stroke-width="2"/>
<path d="M379.445 348.257C388.326 340.618 400.781 320.035 379.549 298.822C370.736 306.531 358.378 327.209 379.445 348.257Z" fill="#E4DD1C" stroke="#262324" stroke-width="2"/>
<path d="M640.002 400.125H613.25L514.062 302.5H512.625L504.125 301.375C501.688 300.979 493.925 298.675 482.375 292.625C470.825 286.575 460.688 275.729 457.062 271.062H491.062C498.763 271.062 502.438 265.271 503.312 262.375L506.377 234.375C463.877 227.775 456.127 206.667 457.564 196.938L510.814 204.438L512.752 184.125L521.189 193.625L553.127 229.562L566.752 245.188L640.002 306.875V400.125Z" fill="#E4DD1C"/>
<path d="M402.629 167.125C406.316 160.525 413.547 161.291 416.702 162.5C427.198 165.687 447.882 173.88 446.645 181.156C446.119 184.314 445.096 186.511 443.888 188.01C441.76 190.653 439.059 191.127 437.501 190.875C438.846 191.191 441.153 192.265 443.113 194.385C445.048 196.479 446.645 199.591 446.645 204C446.645 205.158 446.454 206.174 446.119 207.064C444.4 211.631 438.884 212.875 435.882 212.875C439.992 213.833 447.898 217.95 446.645 226.75C445.391 235.55 437.37 236.416 433.516 235.75C442.583 237.974 447.34 242.5 445.721 251.125C444.426 258.025 433.474 258.25 428.16 257.5C415.58 255.25 402.008 252.125 401.011 243.625C400.214 236.825 405.906 231.378 408.852 229.505C404.87 227.878 399.685 224.177 400.015 217.875C400.414 210.275 406.072 207.39 408.852 206.898C408.675 206.807 408.511 206.716 408.359 206.625C402.755 203.25 399.766 198 401.011 192.625C402.008 188.325 406.325 185.083 408.359 184L408.226 183.384C407.948 183.291 407.701 183.205 407.486 183.125C402.131 181.125 398.021 175.375 402.629 167.125Z" fill="#E4DD1C"/>
<path d="M506.245 234L503.255 262C502.632 265.042 499.245 271.125 490.677 271.125H457.02H438.371C434.967 270.833 428.159 267.7 428.159 257.5C433.473 258.25 444.425 258.025 445.72 251.125C447.339 242.5 442.582 237.975 433.515 235.75C437.369 236.417 445.39 235.55 446.644 226.75C447.897 217.95 439.991 213.833 435.881 212.875C438.883 212.875 444.399 211.632 446.118 207.064C446.453 206.174 446.644 205.158 446.644 204C446.644 199.591 445.047 196.479 443.112 194.386C441.152 192.265 438.845 191.191 437.5 190.875C439.058 191.127 441.759 190.653 443.887 188.01C445.095 186.511 446.118 184.314 446.644 181.156C447.881 173.881 427.197 165.687 416.701 162.5L414.584 142.125H408.762V134.031C408.762 131.656 410.734 131.062 411.719 131.062H519.383C521.824 131.062 522.766 133.438 522.932 134.625V142.125H517.328L512.721 184L510.796 204.643L487.94 201.355L457.675 197C456.966 201.945 458.57 209.756 465.712 217.063C472.773 224.286 485.245 231.017 506.245 234Z" fill="#F38EA1"/>
<path d="M414.562 122.5H517.375C517.375 114.1 509.542 111.292 505.625 110.938H425.25C418.3 111.738 415.229 118.979 414.562 122.5Z" fill="#F38EA1"/>
<path d="M513.968 302.5L613.349 400H640V307L567.519 246M513.968 302.5C516.043 302.458 520.917 302.2 523.806 301.5M513.968 302.5C504.337 302.708 479.595 296.9 457.676 272L457.021 271.125M567.519 246L512.722 184M567.519 246L528.912 207.25L510.797 204.643M512.722 184L510.797 204.643M512.722 184L517.329 142.125M506.246 234L538.625 272M506.246 234L503.256 262C502.633 265.042 499.246 271.125 490.678 271.125C485.081 271.125 470.398 271.125 457.021 271.125M506.246 234C485.246 231.017 472.774 224.286 465.713 217.063C458.571 209.756 456.967 201.945 457.676 197L510.797 204.643M428.16 257.5C428.16 267.7 434.968 270.833 438.372 271.125C443.181 271.125 449.917 271.125 457.021 271.125M428.16 257.5C415.58 255.25 402.008 252.125 401.011 243.625C400.214 236.825 405.906 231.378 408.852 229.505M428.16 257.5C433.474 258.25 444.426 258.025 445.721 251.125C447.34 242.5 442.583 237.974 433.516 235.75M517.329 142.125H522.933V134.625C522.767 133.437 521.825 131.062 519.384 131.062C516.943 131.062 446.591 131.062 411.72 131.062C410.735 131.062 408.763 131.656 408.763 134.031C408.763 136.406 408.763 140.417 408.763 142.125H414.585M517.329 142.125H414.585M414.585 142.125L416.702 162.5M416.702 162.5C413.547 161.292 406.316 160.525 402.629 167.125C398.021 175.375 402.131 181.125 407.486 183.125C411.77 184.725 429.281 188.958 437.501 190.875M416.702 162.5C427.198 165.687 447.882 173.881 446.645 181.156C446.119 184.314 445.096 186.511 443.888 188.01C441.76 190.653 439.059 191.127 437.501 190.875M437.501 190.875C438.846 191.191 441.153 192.265 443.113 194.386C445.048 196.479 446.645 199.591 446.645 204C446.684 206.958 444.588 212.875 435.882 212.875M408.359 184C406.325 185.083 402.008 188.325 401.011 192.625C399.766 198 402.755 203.25 408.359 206.625C408.511 206.716 408.675 206.807 408.852 206.898M435.882 212.875C428.823 211.949 413.897 209.498 408.852 206.898M435.882 212.875C439.992 213.833 447.898 217.95 446.645 226.75C445.391 235.55 437.37 236.417 433.516 235.75M408.852 206.898C406.072 207.391 400.414 210.275 400.015 217.875C399.685 224.178 404.87 227.878 408.852 229.505M433.516 235.75L411.099 230.25C410.44 230.086 409.671 229.839 408.852 229.505M517.329 122.5H414.585C415.332 118.666 418.67 110.999 426.043 110.999C433.416 110.999 482.418 110.999 505.997 110.999C509.817 111.291 517.456 114 517.456 122.5" stroke="#262324" stroke-width="2"/>
<g clip-path="url(#clip1_1279_4656)">
<path d="M474.411 183.749C474.411 188.561 470.522 192.467 465.716 192.497V175C470.522 175.03 474.411 178.936 474.411 183.749Z" fill="#262324"/>
<path d="M474.497 200C473.497 199.5 473.695 200.421 472.497 199.5C470.904 198.274 468.46 198.483 465.716 198.5V192.497C469.746 192.522 473.13 195.272 474.119 199C474.309 199.718 474.497 199.222 474.497 200Z" fill="#262324"/>
<path d="M473.901 192.497C473.901 196.665 477.27 200.046 481.433 200.076V184.923C477.27 184.947 473.901 188.328 473.901 192.497Z" fill="#262324"/>
<path d="M463.523 185.168C463.523 189.205 460.267 192.473 456.235 192.503V177.832C460.267 177.856 463.523 181.13 463.523 185.168Z" fill="#262324"/>
<path d="M457.997 198.001C457.997 202.038 460.255 207.137 456.224 207.167V198.223V192.497C459.343 192.52 461.998 194.482 463.04 197.238C463.344 198.044 457.997 197.087 457.997 198.001Z" fill="#262324"/>
<path d="M453.762 196.289C453.762 198.377 452.08 200.064 449.999 200.076V192.497C452.08 192.515 453.762 194.202 453.762 196.289Z" fill="#262324"/>
<path d="M453.78 188.71C453.78 190.797 452.098 192.485 450.017 192.497V184.923C452.092 184.935 453.78 186.628 453.78 188.71Z" fill="#262324"/>
</g>
<path d="M262 86H453C453 58.8948 430.962 17 381.987 17C342.808 17 323.218 44.9289 318.321 58.8934C281.1 41.1509 265.265 69.5718 262 86Z" fill="white" stroke="#262324" stroke-width="2"/>
<path d="M736 57H927C927 29.8948 904.962 -12 855.987 -12C816.808 -12 797.218 15.9289 792.321 29.8934C755.1 12.1509 739.265 40.5718 736 57Z" fill="white" stroke="#262324" stroke-width="2"/>
<path d="M530.5 65.4199C510.714 65.4199 494.387 80.2521 492 99.4199H569C566.613 80.2521 550.286 65.4199 530.5 65.4199Z" fill="white" stroke="#262324" stroke-width="2"/>
<path d="M668.5 15C648.714 15 632.387 29.8322 630 49H707C704.613 29.8322 688.286 15 668.5 15Z" fill="white" stroke="#262324" stroke-width="2"/>
<path d="M0 400H320V720C143.269 720 0 576.731 0 400Z" fill="#262324" stroke="#262324" stroke-width="2"/>
<path d="M60 400H320V660C176.406 660 60 543.594 60 400Z" fill="#00A86B" stroke="#262324" stroke-width="2"/>
<path d="M120 400H320V600C209.543 600 120 510.457 120 400Z" fill="#E52323" stroke="#262324" stroke-width="2"/>
<path d="M157 173H163V607.5L157 603V173Z" fill="#262324" stroke="#262324" stroke-width="2"/>
<path d="M160 479.734C198.667 482.573 276 463.841 276 366.21C237.333 363.687 160 382.86 160 479.734Z" fill="#262324" stroke="#262324" stroke-width="2"/>
<path d="M160 479.734C121.667 482.573 45 463.841 45 366.21C83.3333 363.687 160 382.86 160 479.734Z" fill="#262324" stroke="#262324" stroke-width="2"/>
<circle cx="158" cy="273" r="15" fill="white" stroke="#262324" stroke-width="2"/>
<circle cx="158" cy="344" r="15" fill="#00A86B" stroke="#262324" stroke-width="2"/>
<circle cx="148" cy="292" r="15" fill="#E52323" stroke="#262324" stroke-width="2"/>
<circle cx="166" cy="366" r="15" fill="white" stroke="#262324" stroke-width="2"/>
<circle cx="172" cy="292" r="15" fill="#00A86B" stroke="#262324" stroke-width="2"/>
<circle cx="181" cy="348" r="15" fill="#E52323" stroke="#262324" stroke-width="2"/>
<circle cx="172" cy="426" r="15" fill="#00A86B" stroke="#262324" stroke-width="2"/>
<circle cx="152" cy="436" r="15" fill="#E52323" stroke="#262324" stroke-width="2"/>
<circle cx="170" cy="445" r="15" fill="white" stroke="#262324" stroke-width="2"/>
<path d="M949 447L932.5 467.5H896.5H889H845.5H838.5H796H789H753.5L736.5 447L723.536 336C708.366 272.4 676.858 257.5 663 258L676.5 241.5H712.5H771.5H780H838.5H845.5H908.75H917H972L949 447Z" fill="#E52323"/>
<path d="M712.5 241.5H676.5L663 258C676.858 257.5 708.366 272.4 723.536 336M712.5 241.5L723.536 336M712.5 241.5H771.5M723.536 336L736.5 447L753.5 467.5H789M838.5 467.5V241.5M838.5 467.5H845.5M838.5 467.5H796M838.5 241.5H845.5M838.5 241.5H780M845.5 467.5V241.5M845.5 467.5H889M845.5 241.5H908.75M889 467.5L908.75 241.5M889 467.5H896.5M908.75 241.5H917M896.5 467.5H932.5L949 447L972 241.5H917M896.5 467.5L917 241.5M796 467.5L780 241.5M796 467.5H789M780 241.5H771.5M789 467.5L771.5 241.5" stroke="#262324" stroke-width="2"/>
<path d="M932.5 501V467.5H896.5H889H845.5H838.5H796H789H753.5V501H771H915H932.5Z" fill="#E4DD1C" stroke="#262324" stroke-width="2"/>
<path d="M771 520V501H915V520H892H885.5H845.5H838.5H800H792.5H771Z" fill="#00A86B" stroke="#262324" stroke-width="2"/>
<path d="M915 520H932.5L970.5 719H910H902.5H845.5H838.5H782.5H776H717.5L753.5 520H771H792.5H800H838.5H845.5H885.5H892H915Z" fill="#F38EA1"/>
<path d="M792.5 520H771H753.5L717.5 719H776M792.5 520L776 719M792.5 520H800M776 719H782.5M782.5 719L800 520M782.5 719H838.5M800 520H838.5M838.5 520V719M838.5 520H845.5M838.5 719H845.5M845.5 719V520M845.5 719H902.5M845.5 520H885.5M885.5 520L902.5 719M885.5 520H892M902.5 719H910M910 719H970.5L932.5 520H915H892M910 719L892 520" stroke="#262324" stroke-width="2"/>
<path d="M830 194.23L843 189L855.851 194.23L972 241.5H917H908.75H845.5H838.5H780H771.5H712.5L830 194.23Z" fill="#00A86B" stroke="#262324" stroke-width="2"/>
<path d="M830 194.23L843 189L855.851 194.23L865 156H819L830 194.23Z" fill="#2891B2" stroke="#262324" stroke-width="2"/>
<path d="M865 156H819L843 141.5L865 156Z" fill="#E4DD1C" stroke="#262324" stroke-width="2"/>
<path d="M932.5 468L949 447.5L972 242M932.5 468V501.5H915M932.5 468H896.5M972 242L855.851 194.73M972 242H917M712.5 242H676.5L663 258.5C676.858 258 708.366 272.9 723.536 336.5M712.5 242L723.536 336.5M712.5 242L830 194.73M712.5 242H771.5M753.5 468L736.5 447.5L723.536 336.5M753.5 468V501.5H771M753.5 468H789M771 501.5V520.5M771 501.5H915M771 520.5H753.5L717.5 719.5H776M771 520.5H792.5M915 520.5V501.5M915 520.5H932.5L970.5 719.5H910M915 520.5H892M792.5 520.5L776 719.5M792.5 520.5H800M776 719.5H782.5M782.5 719.5L800 520.5M782.5 719.5H838.5M800 520.5H838.5M838.5 520.5V719.5M838.5 520.5H845.5M838.5 719.5H845.5M845.5 719.5V520.5M845.5 719.5H902.5M845.5 520.5H885.5M885.5 520.5L902.5 719.5M885.5 520.5H892M902.5 719.5H910M910 719.5L892 520.5M830 194.73L843 189.5L855.851 194.73M830 194.73L819 156.5M819 156.5H865M819 156.5L843 142L865 156.5M865 156.5L855.851 194.73M838.5 468V242M838.5 468H845.5M838.5 468H796M838.5 242H845.5M838.5 242H780M845.5 468V242M845.5 468H889M845.5 242H908.75M889 468L908.75 242M889 468H896.5M908.75 242H917M896.5 468L917 242M796 468L780 242M796 468H789M780 242H771.5M789 468L771.5 242" stroke="#262324" stroke-width="2"/>
<path d="M590 586H724L717.396 615.5L713.142 634.5L699.261 696.5L694 720H620L614.739 696.5L600.858 634.5L596.604 615.5L590 586Z" fill="#E4DD1C"/>
<path d="M620 720H694L699.261 696.5H614.739L620 720Z" fill="#00A86B" stroke="#262324" stroke-width="2"/>
<path d="M596.604 615.5H717.396L713.142 634.5H600.858L596.604 615.5Z" fill="#00A86B"/>
<path d="M717.396 615.5L724 586H590L596.604 615.5M717.396 615.5H596.604M717.396 615.5L713.142 634.5M596.604 615.5L600.858 634.5M600.858 634.5H713.142M600.858 634.5L614.739 696.5M713.142 634.5L699.261 696.5M699.261 696.5L694 720H620L614.739 696.5M699.261 696.5H614.739" stroke="#262324" stroke-width="2"/>
<path d="M625.192 393.237L640 376.509L654.808 393.237C657.755 396.566 659.774 400.823 660.592 405.472C661.411 410.122 660.99 414.94 659.386 419.314C657.783 423.687 655.074 427.406 651.62 430.013C648.168 432.619 644.124 434 640 434C635.876 434 631.832 432.619 628.38 430.013C624.926 427.406 622.217 423.687 620.614 419.314C619.01 414.94 618.589 410.122 619.408 405.472C620.226 400.823 622.245 396.566 625.192 393.237Z" fill="#00A86B" stroke="#262324" stroke-width="2"/>
<path d="M676.192 339.237L691 322.509L705.808 339.237C708.755 342.566 710.774 346.823 711.592 351.472C712.411 356.122 711.99 360.94 710.386 365.314C708.783 369.687 706.074 373.406 702.62 376.013C699.168 378.619 695.124 380 691 380C686.876 380 682.832 378.619 679.38 376.013C675.926 373.406 673.217 369.687 671.614 365.314C670.01 360.94 669.589 356.122 670.408 351.472C671.226 346.823 673.245 342.566 676.192 339.237Z" fill="#E4DD1C" stroke="#262324" stroke-width="2"/>
</g>
<rect x="1" y="1" width="958" height="718" stroke="#262324" stroke-width="2"/>
<defs>
<clipPath id="clip0_1279_4656">
<rect width="960" height="720" fill="white"/>
</clipPath>
<clipPath id="clip1_1279_4656">
<rect width="31.4338" height="35" fill="white" transform="translate(450 175)"/>
</clipPath>
</defs>
</svg>
