<svg width="222" height="50" viewBox="0 0 222 50" fill="none" xmlns="http://www.w3.org/2000/svg">
<g clip-path="url(#clip0_139_6384)">
<path d="M123.698 37.6637C123.698 30.8506 118.174 25.3275 111.361 25.3275C104.548 25.3275 99.025 30.8506 99.025 37.6637C99.025 44.4769 104.548 50 111.361 50C118.174 50 123.698 44.4769 123.698 37.6637Z" fill="#262324"/>
<path d="M49.3451 0.654608C49.3451 7.19817 46.7457 13.4737 42.1187 18.1007C37.4917 22.7277 31.2161 25.3271 24.6725 25.3271C18.129 25.3271 11.8534 22.7277 7.22642 18.1007C2.59942 13.4737 -7.92443e-07 7.19817 -1.07847e-06 0.65461" fill="#E4DD1C"/>
<path d="M49.3451 50C55.8887 50 62.1642 47.4006 66.7912 42.7736C71.4182 38.1466 74.0176 31.871 74.0176 25.3275C74.0176 18.7839 71.4182 12.5083 66.7912 7.88134C62.1642 3.25434 55.8887 0.654922 49.3451 0.654922L49.3451 50Z" fill="#E37428"/>
<path d="M148 50C141.456 50 135.181 47.4006 130.554 42.7736C125.927 38.1466 123.327 31.871 123.327 25.3275C123.327 18.7839 125.927 12.5083 130.554 7.88134C135.181 3.25434 141.456 0.654922 148 0.654921" fill="#E37428"/>
<path d="M49.3392 37.6637C49.3392 30.8506 43.8161 25.3275 37.003 25.3275C30.1898 25.3275 24.6667 30.8506 24.6667 37.6637C24.6667 44.4769 30.1898 50 37.003 50C43.8161 50 49.3392 44.4769 49.3392 37.6637Z" fill="#E4DD1C"/>
<path d="M98.8488 37.6637C98.8488 40.9355 97.549 44.0733 95.2355 46.3868C92.922 48.7003 89.7843 50 86.5125 50C83.2407 50 80.1029 48.7003 77.7894 46.3868C75.4759 44.0733 74.1762 40.9355 74.1762 37.6637" fill="#E37428"/>
<path d="M98.8488 25.3278C98.8488 28.5996 97.5491 31.7374 95.2356 34.0509C92.9221 36.3644 89.7843 37.6641 86.5125 37.6641C83.2408 37.6641 80.103 36.3644 77.7895 34.0509C75.476 31.7374 74.1763 28.5996 74.1763 25.3278" fill="#E4DD1C"/>
<path d="M24.7665 50C21.4947 50 18.3569 48.7003 16.0434 46.3868C13.7299 44.0733 12.4302 40.9355 12.4302 37.6637C12.4302 34.3919 13.7299 31.2542 16.0434 28.9407C18.3569 26.6272 21.4947 25.3275 24.7665 25.3275L24.7665 50Z" fill="#01C07D"/>
<path d="M0.0998535 50C3.37164 50 6.50941 48.7003 8.82291 46.3868C11.1364 44.0733 12.4361 40.9355 12.4361 37.6637C12.4361 34.3919 11.1364 31.2542 8.82291 28.9407C6.50941 26.6272 3.37163 25.3275 0.0998524 25.3275" fill="#262324"/>
<path d="M98.6725 12.9967C98.6725 6.1836 93.1494 0.66047 86.3363 0.66047C79.5231 0.660471 74 6.18361 74 12.9967C74 19.8099 79.5231 25.333 86.3363 25.333C93.1494 25.333 98.6725 19.8099 98.6725 12.9967Z" fill="#01C07D"/>
<path d="M123.673 25.6729C120.401 25.6729 117.263 24.3731 114.95 22.0596C112.636 19.7461 111.336 16.6084 111.336 13.3366C111.336 10.0648 112.636 6.92702 114.95 4.61352C117.263 2.30002 120.401 1.00031 123.673 1.00031" fill="#E4DD1C"/>
<path d="M99 25.6729C102.272 25.6729 105.41 24.3731 107.723 22.0596C110.037 19.7461 111.336 16.6084 111.336 13.3366C111.336 10.0648 110.037 6.92702 107.723 4.61352C105.41 2.30002 102.272 1.00031 99 1.00031L99 25.6729Z" fill="#01C07D"/>
<path d="M221.778 25.0003C221.778 31.5439 219.179 37.8194 214.552 42.4464C209.925 47.0734 203.649 49.6729 197.106 49.6729C190.562 49.6729 184.287 47.0734 179.66 42.4464C175.033 37.8194 172.433 31.5439 172.433 25.0003" fill="#01C07D"/>
<path d="M172.673 49.3623C166.129 49.3623 159.853 46.7629 155.226 42.1359C150.599 37.5089 148 31.2333 148 24.6898C148 18.1462 150.599 11.8706 155.226 7.24364C159.853 2.61665 166.129 0.0172264 172.673 0.0172261" fill="#E4DD1C"/>
<path d="M197.433 -0.000332957C197.433 3.27145 196.134 6.40923 193.82 8.72273C191.507 11.0362 188.369 12.3359 185.097 12.3359C181.825 12.3359 178.687 11.0362 176.374 8.72273C174.06 6.40923 172.761 3.27145 172.761 -0.000331879" fill="#262324"/>
<path d="M197.433 24.6729C197.433 21.4011 196.134 18.2633 193.82 15.9498C191.507 13.6363 188.369 12.3366 185.097 12.3366C181.825 12.3366 178.687 13.6363 176.374 15.9498C174.06 18.2633 172.761 21.4011 172.761 24.6729" fill="#E4DD1C"/>
<path d="M221.106 12.3776C221.106 5.56446 215.583 0.0413276 208.769 0.0413279C201.956 0.0413282 196.433 5.56446 196.433 12.3776C196.433 19.1907 201.956 24.7139 208.769 24.7139C215.583 24.7139 221.106 19.1907 221.106 12.3776Z" fill="#E37428"/>
</g>
<defs>
<clipPath id="clip0_139_6384">
<rect width="50.0003" height="222" fill="white" transform="translate(0 50) rotate(-90)"/>
</clipPath>
</defs>
</svg>
