<svg xmlns="http://www.w3.org/2000/svg" width="42" height="42" viewBox="0 0 42 42" fill="none">
<rect x="1" y="1" width="40" height="40" rx="20" fill="#F6F5EE"/>
<rect x="1" y="1" width="40" height="40" rx="20" stroke="black" stroke-width="2"/>
<path fill-rule="evenodd" clip-rule="evenodd" d="M13.7071 21.7071C13.3166 22.0976 12.6834 22.0976 12.2929 21.7071C11.9024 21.3166 11.9024 20.6834 12.2929 20.2929L20.2929 12.2929C20.6834 11.9024 21.3166 11.9024 21.7071 12.2929L29.7071 20.2929C30.0976 20.6834 30.0976 21.3166 29.7071 21.7071C29.3166 22.0976 28.6834 22.0976 28.2929 21.7071L22 15.4142V29.5C22 30.0523 21.5523 30.5 21 30.5C20.4477 30.5 20 30.0523 20 29.5V15.4142L13.7071 21.7071Z" fill="black"/>
</svg>