<svg width="945" height="581" viewBox="0 0 945 581" fill="none" xmlns="http://www.w3.org/2000/svg">
<g clip-path="url(#clip0_1035_2487)">
<mask id="path-1-inside-1_1035_2487" fill="white">
<path d="M0 0H945V581H0V0Z"/>
</mask>
<path d="M0 0H945V581H0V0Z" fill="#F6F5EE"/>
<rect x="945" y="581" width="166.385" height="96.8333" transform="rotate(-180 945 581)" stroke="#151515"/>
<rect x="945" y="581" width="72.6923" height="96.8333" transform="rotate(-180 945 581)" stroke="#151515"/>
<path d="M872.307 556.793L944.191 556.793" stroke="#151515"/>
<path d="M872.307 532.582L944.191 532.582" stroke="#151515"/>
<path d="M872.307 508.375L944.191 508.375" stroke="#151515"/>
<rect x="581.539" width="193.846" height="96.8333" stroke="#151515"/>
<rect x="678.461" y="484.168" width="193.846" height="96.8333" rx="48.4167" stroke="#151515"/>
<rect x="581.539" y="96.832" width="96.9231" height="193.667" stroke="#151515"/>
<rect x="775.383" width="169.615" height="96.8333" stroke="#151515"/>
<path d="M581.539 387.333H678.462V290.5H581.539V369.581" stroke="#151515"/>
<path d="M581.539 338.917C581.539 312.177 603.216 290.5 629.956 290.5H678.462V387.333H629.956C603.216 387.333 581.539 365.656 581.539 338.917V338.917Z" stroke="#151515"/>
<path d="M581.539 96.832H678.462V96.832C678.462 123.572 656.74 145.249 630.001 145.249V145.249C603.261 145.249 581.539 123.572 581.539 96.832V96.832Z" stroke="#151515"/>
<path d="M678.461 290.5L581.538 290.5V290.5C581.538 263.76 603.26 242.083 629.999 242.083V242.083C656.739 242.083 678.461 263.76 678.461 290.5V290.5Z" stroke="#151515"/>
<path d="M581.538 193.665V193.665C581.538 220.405 603.26 242.082 629.999 242.082V242.082M581.538 193.665V193.665C581.538 166.926 603.26 145.249 629.999 145.249V145.249C656.739 145.249 678.461 166.926 678.461 193.665V193.665M581.538 193.665C597.692 194.069 629.999 204.317 629.999 242.082M629.999 242.082V242.082C656.739 242.082 678.461 220.405 678.461 193.665V193.665M629.999 242.082C629.461 225.943 638.399 193.665 678.461 193.665" stroke="#151515"/>
<rect x="581.539" y="387.332" width="96.9231" height="193.667" stroke="#151515"/>
<rect x="581.539" y="387.332" width="48.4615" height="48.4167" rx="24.2083" stroke="#151515"/>
<rect x="418.383" y="294.535" width="132.462" height="74.2389" stroke="#151515"/>
<path d="M387.691 193.668H581.538V369.582H581.5V387.335H387.691V369.582V193.668Z" fill="#F6F5EE"/>
<path d="M387.691 369.582V387.335H581.538H581.5V369.582H581.538M387.691 369.582V193.668H581.538V369.582M387.691 369.582H581.538" stroke="#151515"/>
<rect x="387.691" y="387.332" width="193.846" height="193.667" stroke="#151515"/>
<path d="M484.614 581.001C431.085 581.001 387.691 537.648 387.691 484.168H581.538C592.912 484.168 602.134 493.389 602.134 504.764V510.595C602.134 525.191 590.302 537.023 575.706 537.023H565.839C548.542 563.501 518.624 581.001 484.614 581.001Z" fill="#F6F5EE"/>
<path d="M581.538 484.168H387.691C387.691 537.648 431.085 581.001 484.614 581.001C518.624 581.001 548.542 563.501 565.839 537.023M581.538 484.168C581.538 503.67 575.767 521.825 565.839 537.023M581.538 484.168V484.168C592.912 484.168 602.134 493.389 602.134 504.764V510.595C602.134 525.191 590.302 537.023 575.706 537.023H565.839" stroke="#151515"/>
<rect y="193.668" width="193.846" height="193.667" stroke="#151515"/>
<path d="M0 193.668V193.668C106.959 193.668 193.846 280.375 193.846 387.335V387.335H96.9231M0 193.668V387.335H96.9231M0 193.668C85.2923 239.18 100.154 341.742 96.9231 387.335" stroke="#151515"/>
<path d="M242.309 387.335H290.771V209.403V193.668H242.309M242.309 387.335H193.848V193.668H242.309M242.309 387.335V257.82V193.668" stroke="#151515"/>
<path d="M823.844 96.832H775.383V290.499H823.844H872.306V112.567V96.832H823.844ZM823.844 96.832V160.984V266.089" stroke="#151515"/>
<path d="M242.309 258.917C258.462 260.123 290.77 252.167 290.77 210.703C274.616 209.631 242.309 217.774 242.309 258.917Z" stroke="#151515"/>
<path d="M823.848 162.083C840.002 163.289 872.309 155.333 872.309 113.869C856.155 112.797 823.848 120.94 823.848 162.083Z" stroke="#151515"/>
<path d="M629.954 200.076C637.188 193.854 647.332 177.09 630.038 159.813C622.861 166.091 612.795 182.933 629.954 200.076Z" stroke="#151515"/>
<path d="M242.309 314.597C258.462 315.802 290.77 307.847 290.77 266.382C274.616 265.311 242.309 273.454 242.309 314.597Z" stroke="#151515"/>
<path d="M823.848 217.761C840.002 218.966 872.309 211.011 872.309 169.546C856.155 168.475 823.848 176.618 823.848 217.761Z" stroke="#151515"/>
<path d="M242.309 370.275C258.462 371.48 290.77 363.525 290.77 322.06C274.616 320.988 242.309 329.131 242.309 370.275Z" stroke="#151515"/>
<path d="M845.615 269.922C859.268 264.385 872.306 251.567 872.306 225.226C857.194 224.224 827.943 231.286 824.234 265.887" stroke="#151515"/>
<path d="M242.309 258.917C226.155 260.123 193.847 252.167 193.847 210.703C210.001 209.631 242.309 217.774 242.309 258.917Z" stroke="#151515"/>
<path d="M823.848 162.083C807.694 163.289 775.386 155.333 775.386 113.869C791.54 112.797 823.848 120.94 823.848 162.083Z" stroke="#151515"/>
<path d="M242.309 314.597C226.155 315.802 193.847 307.847 193.847 266.382C210.001 265.311 242.309 273.454 242.309 314.597Z" stroke="#151515"/>
<path d="M823.848 217.761C807.694 218.966 775.386 211.011 775.386 169.546C791.54 168.475 823.848 176.618 823.848 217.761Z" stroke="#151515"/>
<path d="M242.309 370.275C226.155 371.48 193.847 363.525 193.847 322.06C210.001 320.988 242.309 329.131 242.309 370.275Z" stroke="#151515"/>
<path d="M823.457 265.887C819.748 231.286 790.498 224.224 775.385 225.226C775.385 252.063 788.919 264.862 802.847 270.227" stroke="#151515"/>
<rect x="290.77" y="193.668" width="96.9231" height="96.8333" stroke="#151515"/>
<rect x="678.461" y="96.832" width="96.9231" height="96.8333" stroke="#151515"/>
<path d="M630.001 0H581.539V48.4167" stroke="#151515" stroke-linejoin="round"/>
<path d="M630 0H678.462L630 48.4167" stroke="#151515" stroke-linejoin="round"/>
<path d="M581.539 48.418V96.8346L630.001 48.418" stroke="#151515" stroke-linejoin="round"/>
<path d="M678.46 96.832L775.383 96.832L775.383 -0.001297L678.46 96.832Z" stroke="#151515" stroke-linejoin="round"/>
<rect x="678.461" y="193.668" width="96.9231" height="96.8333" stroke="#151515"/>
<rect x="872.309" y="193.668" width="72.6923" height="96.8333" stroke="#151515"/>
<rect x="872.309" y="276.781" width="72.6923" height="13.7181" stroke="#151515"/>
<rect x="872.309" y="276.781" width="72.6923" height="13.7181" stroke="#151515"/>
<rect x="888.461" y="263.062" width="40.3846" height="13.7181" stroke="#151515"/>
<rect x="888.461" y="263.062" width="40.3846" height="13.7181" stroke="#151515"/>
<path d="M879.578 241.277H937.732L934.501 263.065H882.809L879.578 241.277Z" stroke="#151515"/>
<path d="M872.309 96.832H945.001V193.665V193.665C904.854 193.665 872.309 161.12 872.309 120.973V96.832Z" stroke="#151515"/>
<path d="M908.652 96.832H944.998V145.249V145.249C924.925 145.249 908.652 128.976 908.652 108.903V96.832Z" stroke="#151515"/>
<path d="M924.809 96.832H945.001V123.461V123.461C933.849 123.461 924.809 114.421 924.809 103.269V96.832Z" stroke="#151515"/>
<path d="M678.461 290.5V484.167H746.711M678.461 290.5H692.999M678.461 290.5C684.653 295.611 697.765 311.884 700.672 336.092C704.307 366.353 699.461 484.167 746.711 484.167M775.384 290.5H823.644M775.384 290.5L756.089 420.822M775.384 290.5H692.999M746.711 484.167H823.644M746.711 484.167L756.089 420.822M890.48 484.167H944.999V290.5H871.903M890.48 484.167H823.644M890.48 484.167L887.307 451.082M871.903 290.5H823.644M871.903 290.5L872.677 298.569M823.644 290.5V420.822M823.644 484.167V475.492V466.817V455.924V448.258V439.785V431.715V420.822M823.644 420.822H756.089M756.089 420.822C745.425 421.897 725.726 412.293 721.672 365.949C718.038 324.392 701.749 296.283 692.999 290.5M872.677 298.569V298.569C906.966 298.569 934.476 326.899 933.471 361.172L933.001 377.176C932.409 397.375 923.834 416.516 909.156 430.406L887.307 451.082M872.677 298.569L873.838 310.674M887.307 451.082L886.803 445.837L886.029 437.767L885.677 434.093M873.838 310.674L881.076 386.123L882.004 395.806L882.895 405.086L883.746 413.963L884.52 422.032L885.294 430.101L885.677 434.093M873.838 310.674V310.674C900.426 310.674 921.98 332.227 921.98 358.815V372.286C921.98 388.637 915.481 404.317 903.914 415.873L885.677 434.093" stroke="#151515"/>
<path d="M290.77 369.581V387.333H387.693V369.581M290.77 369.581V290.5H387.693V369.581M290.77 369.581H339.231M387.693 369.581H339.231M339.231 369.581V349.81" stroke="#151515"/>
<path d="M630 411.543L678.462 411.543" stroke="#151515"/>
<path d="M581.539 435.75H678.462" stroke="#151515"/>
<path d="M581.539 459.957H678.462" stroke="#151515"/>
<path d="M581.539 484.168H678.462" stroke="#151515"/>
<path d="M451.808 238.05C451.808 247.578 444.077 255.302 434.539 255.302C429.988 255.302 425.849 253.544 422.764 250.67C419.383 247.52 417.27 243.032 417.27 238.05C417.27 228.522 425.001 220.797 434.539 220.797C444.077 220.797 451.808 228.522 451.808 238.05Z" stroke="#151515"/>
<path d="M501.886 238.05C501.886 247.578 494.155 255.302 484.617 255.302C475.079 255.302 467.348 247.578 467.348 238.05C467.348 228.522 475.079 220.797 484.617 220.797C494.155 220.797 501.886 228.522 501.886 238.05Z" stroke="#151515"/>
<path d="M551.96 238.05C551.96 247.578 544.229 255.302 534.691 255.302C525.153 255.302 517.422 247.578 517.422 238.05C517.422 228.522 525.153 220.797 534.691 220.797C544.229 220.797 551.96 228.522 551.96 238.05Z" stroke="#151515"/>
<ellipse cx="444.23" cy="312.288" rx="7.26923" ry="7.2625" stroke="#151515"/>
<ellipse cx="464.422" cy="312.288" rx="7.26923" ry="7.2625" stroke="#151515"/>
<ellipse cx="484.617" cy="312.288" rx="7.26923" ry="7.2625" stroke="#151515"/>
<ellipse cx="504.808" cy="312.288" rx="7.26923" ry="7.2625" stroke="#151515"/>
<ellipse cx="525" cy="312.288" rx="7.26923" ry="7.2625" stroke="#151515"/>
<ellipse cx="454.73" cy="330.848" rx="7.26923" ry="7.2625" stroke="#151515"/>
<ellipse cx="474.922" cy="330.848" rx="7.26923" ry="7.2625" stroke="#151515"/>
<ellipse cx="495.117" cy="330.848" rx="7.26923" ry="7.2625" stroke="#151515"/>
<ellipse cx="515.308" cy="330.848" rx="7.26923" ry="7.2625" stroke="#151515"/>
<ellipse cx="444.23" cy="349.407" rx="7.26923" ry="7.2625" stroke="#151515"/>
<ellipse cx="464.422" cy="349.407" rx="7.26923" ry="7.2625" stroke="#151515"/>
<ellipse cx="484.617" cy="349.407" rx="7.26923" ry="7.2625" stroke="#151515"/>
<ellipse cx="319.039" cy="223.524" rx="7.26923" ry="7.2625" stroke="#151515"/>
<ellipse cx="706.73" cy="126.69" rx="7.26923" ry="7.2625" stroke="#151515"/>
<ellipse cx="339.23" cy="223.524" rx="7.26923" ry="7.2625" stroke="#151515"/>
<ellipse cx="726.922" cy="126.69" rx="7.26923" ry="7.2625" stroke="#151515"/>
<ellipse cx="359.422" cy="223.524" rx="7.26923" ry="7.2625" stroke="#151515"/>
<ellipse cx="747.117" cy="126.69" rx="7.26923" ry="7.2625" stroke="#151515"/>
<ellipse cx="329.539" cy="242.083" rx="7.26923" ry="7.2625" stroke="#151515"/>
<ellipse cx="717.23" cy="145.251" rx="7.26923" ry="7.2625" stroke="#151515"/>
<ellipse cx="349.73" cy="242.083" rx="7.26923" ry="7.2625" stroke="#151515"/>
<ellipse cx="737.422" cy="145.251" rx="7.26923" ry="7.2625" stroke="#151515"/>
<ellipse cx="319.039" cy="260.643" rx="7.26923" ry="7.2625" stroke="#151515"/>
<ellipse cx="706.73" cy="163.809" rx="7.26923" ry="7.2625" stroke="#151515"/>
<ellipse cx="339.23" cy="260.643" rx="7.26923" ry="7.2625" stroke="#151515"/>
<ellipse cx="726.922" cy="163.809" rx="7.26923" ry="7.2625" stroke="#151515"/>
<ellipse cx="359.422" cy="260.643" rx="7.26923" ry="7.2625" stroke="#151515"/>
<ellipse cx="747.117" cy="163.809" rx="7.26923" ry="7.2625" stroke="#151515"/>
<ellipse cx="504.808" cy="349.407" rx="7.26923" ry="7.2625" stroke="#151515"/>
<ellipse cx="525" cy="349.407" rx="7.26923" ry="7.2625" stroke="#151515"/>
<rect x="328.73" y="330.039" width="21" height="20.9806" stroke="#151515"/>
<path d="M422.019 387.332L415.153 394.191C409.802 399.538 409.802 408.211 415.153 413.558V413.558C420.505 418.904 420.505 427.578 415.153 432.924V432.924C409.802 438.271 409.802 446.945 415.153 452.291V452.291C420.505 457.638 420.505 466.311 415.153 471.658L408.288 478.517C406.727 480.076 406.727 482.606 408.288 484.165V484.165" stroke="#151515"/>
<path d="M449.886 387.332L443.02 394.191C437.669 399.538 437.669 408.211 443.02 413.558V413.558C448.372 418.904 448.372 427.578 443.02 432.924V432.924C437.669 438.271 437.669 446.945 443.02 452.291V452.291C448.372 457.638 448.372 466.311 443.02 471.658L436.155 478.517C434.594 480.076 434.594 482.606 436.155 484.165V484.165" stroke="#151515"/>
<path d="M477.749 387.332L470.884 394.191C465.532 399.538 465.532 408.211 470.884 413.558V413.558C476.235 418.904 476.235 427.578 470.884 432.924V432.924C465.532 438.271 465.532 446.945 470.884 452.291V452.291C476.235 457.638 476.235 466.311 470.884 471.658L464.018 478.517C462.457 480.076 462.457 482.606 464.018 484.165V484.165" stroke="#151515"/>
<path d="M505.616 387.332L498.751 394.191C493.399 399.538 493.399 408.211 498.751 413.558V413.558C504.102 418.904 504.102 427.578 498.751 432.924V432.924C493.399 438.271 493.399 446.945 498.751 452.291V452.291C504.102 457.638 504.102 466.311 498.751 471.658L491.886 478.517C490.325 480.076 490.325 482.606 491.886 484.165V484.165" stroke="#151515"/>
<path d="M533.48 387.332L526.614 394.191C521.263 399.538 521.263 408.211 526.614 413.558V413.558C531.966 418.904 531.966 427.578 526.614 432.924V432.924C521.263 438.271 521.263 446.945 526.614 452.291V452.291C531.966 457.638 531.966 466.311 526.614 471.658L519.749 478.517C518.188 480.076 518.188 482.606 519.749 484.165V484.165" stroke="#151515"/>
<path d="M561.347 387.332L554.481 394.191C549.13 399.538 549.13 408.211 554.481 413.558V413.558C559.833 418.904 559.833 427.578 554.481 432.924V432.924C549.13 438.271 549.13 446.945 554.481 452.291V452.291C559.833 457.638 559.833 466.311 554.481 471.658L547.616 478.517C546.055 480.076 546.055 482.606 547.616 484.165V484.165" stroke="#151515"/>
<path d="M823.844 266.293C803.907 266.293 786.19 275.789 774.977 290.501H872.712C861.499 275.789 843.782 266.293 823.844 266.293Z" stroke="#151515"/>
<path d="M827.386 45.1903C827.386 54.7183 819.655 62.4431 810.117 62.4431C805.566 62.4431 801.427 60.6851 798.342 57.8111C794.961 54.661 792.848 50.1725 792.848 45.1903C792.848 35.6623 800.579 27.9375 810.117 27.9375C819.655 27.9375 827.386 35.6623 827.386 45.1903Z" stroke="#151515"/>
<path d="M877.46 45.1903C877.46 54.7183 869.729 62.4431 860.191 62.4431C850.653 62.4431 842.922 54.7183 842.922 45.1903C842.922 35.6623 850.653 27.9375 860.191 27.9375C869.729 27.9375 877.46 35.6623 877.46 45.1903Z" stroke="#151515"/>
<path d="M927.538 45.1903C927.538 54.7183 919.807 62.4431 910.269 62.4431C900.731 62.4431 893 54.7183 893 45.1903C893 35.6623 900.731 27.9375 910.269 27.9375C919.807 27.9375 927.538 35.6623 927.538 45.1903Z" stroke="#151515"/>
<path d="M908.638 259.014C910.952 257.023 914.198 251.659 908.665 246.131C906.368 248.14 903.147 253.529 908.638 259.014Z" stroke="#151515"/>
<path d="M921.563 259.014C923.878 257.023 927.124 251.659 921.59 246.131C919.294 248.14 916.073 253.529 921.563 259.014Z" stroke="#151515"/>
<path d="M895.716 259.014C898.03 257.023 901.276 251.659 895.743 246.131C893.446 248.14 890.225 253.529 895.716 259.014Z" stroke="#151515"/>
<path d="M94.92 71.12C96.5467 71.7333 97.7733 72.64 98.6 73.84C99.4267 75.0133 99.84 76.3733 99.84 77.92C99.84 80.4267 99.0133 82.4 97.36 83.84C95.7333 85.28 93.3867 86 90.32 86H77.48V57.52H89.76C92.64 57.52 94.84 58.2 96.36 59.56C97.9067 60.92 98.68 62.7067 98.68 64.92C98.68 67.6933 97.4267 69.76 94.92 71.12ZM89.48 61.2H81.76V69.72H89.48C92.8133 69.72 94.48 68.24 94.48 65.28C94.48 64 94.04 63 93.16 62.28C92.3067 61.56 91.08 61.2 89.48 61.2ZM81.76 82.32H90.08C91.84 82.32 93.1867 81.9333 94.12 81.16C95.0533 80.3867 95.52 79.28 95.52 77.84C95.52 74.8 93.7067 73.28 90.08 73.28H81.76V82.32ZM122.052 75.84V77H106.492C106.679 79.0267 107.279 80.56 108.292 81.6C109.305 82.6133 110.679 83.12 112.412 83.12C115.025 83.12 116.732 81.9733 117.532 79.68H121.572C121.012 81.7867 119.919 83.4533 118.292 84.68C116.692 85.88 114.705 86.48 112.332 86.48C109.372 86.48 106.985 85.4933 105.172 83.52C103.359 81.5467 102.452 78.9333 102.452 75.68C102.452 72.4267 103.359 69.8133 105.172 67.84C106.985 65.8667 109.345 64.88 112.252 64.88C115.292 64.88 117.692 65.9067 119.452 67.96C121.185 70.0133 122.052 72.64 122.052 75.84ZM112.252 68.24C110.679 68.24 109.385 68.72 108.372 69.68C107.385 70.64 106.772 72.0267 106.532 73.84H117.932C117.745 72.16 117.145 70.8133 116.132 69.8C115.145 68.76 113.852 68.24 112.252 68.24ZM133.122 86.52C127.389 86.52 124.376 84.16 124.082 79.44H128.082C128.242 80.88 128.709 81.8933 129.482 82.48C130.256 83.0667 131.482 83.36 133.162 83.36C136.202 83.36 137.722 82.4 137.722 80.48C137.722 79.6533 137.402 79.0133 136.762 78.56C136.122 78.1067 134.976 77.7333 133.322 77.44L131.202 77.04C126.829 76.24 124.642 74.1867 124.642 70.88C124.642 69.04 125.349 67.5867 126.762 66.52C128.176 65.4267 130.122 64.88 132.602 64.88C138.282 64.88 141.189 67.1867 141.322 71.8H137.442C137.362 70.4133 136.936 69.44 136.162 68.88C135.389 68.2933 134.202 68 132.602 68C131.322 68 130.336 68.24 129.642 68.72C128.949 69.2 128.602 69.88 128.602 70.76C128.602 71.56 128.909 72.1867 129.522 72.64C130.136 73.0667 131.109 73.4133 132.442 73.68L134.602 74.04C137.136 74.52 138.962 75.24 140.082 76.2C141.202 77.16 141.762 78.4933 141.762 80.2C141.762 82.2 141.002 83.76 139.482 84.88C137.962 85.9733 135.842 86.52 133.122 86.52ZM154.188 65.36V68.64H150.028V81.04C150.028 81.6533 150.202 82.1067 150.548 82.4C150.922 82.6667 151.535 82.8 152.388 82.8H154.188V86C153.308 86.08 152.495 86.12 151.748 86.12C149.802 86.12 148.362 85.7467 147.428 85C146.495 84.2533 146.028 83.0533 146.028 81.4V68.64H142.708V65.36H146.028V59.44H150.028V65.36H154.188ZM183.162 71.12C184.789 71.7333 186.016 72.64 186.842 73.84C187.669 75.0133 188.082 76.3733 188.082 77.92C188.082 80.4267 187.256 82.4 185.602 83.84C183.976 85.28 181.629 86 178.562 86H165.722V57.52H178.002C180.882 57.52 183.082 58.2 184.602 59.56C186.149 60.92 186.922 62.7067 186.922 64.92C186.922 67.6933 185.669 69.76 183.162 71.12ZM177.722 61.2H170.002V69.72H177.722C181.056 69.72 182.722 68.24 182.722 65.28C182.722 64 182.282 63 181.402 62.28C180.549 61.56 179.322 61.2 177.722 61.2ZM170.002 82.32H178.322C180.082 82.32 181.429 81.9333 182.362 81.16C183.296 80.3867 183.762 79.28 183.762 77.84C183.762 74.8 181.949 73.28 178.322 73.28H170.002V82.32ZM210.294 75.84V77H194.734C194.921 79.0267 195.521 80.56 196.534 81.6C197.547 82.6133 198.921 83.12 200.654 83.12C203.267 83.12 204.974 81.9733 205.774 79.68H209.814C209.254 81.7867 208.161 83.4533 206.534 84.68C204.934 85.88 202.947 86.48 200.574 86.48C197.614 86.48 195.227 85.4933 193.414 83.52C191.601 81.5467 190.694 78.9333 190.694 75.68C190.694 72.4267 191.601 69.8133 193.414 67.84C195.227 65.8667 197.587 64.88 200.494 64.88C203.534 64.88 205.934 65.9067 207.694 67.96C209.427 70.0133 210.294 72.64 210.294 75.84ZM200.494 68.24C198.921 68.24 197.627 68.72 196.614 69.68C195.627 70.64 195.014 72.0267 194.774 73.84H206.174C205.987 72.16 205.387 70.8133 204.374 69.8C203.387 68.76 202.094 68.24 200.494 68.24ZM231.406 82.92H232.526V86C231.94 86.08 231.286 86.12 230.566 86.12C229.286 86.12 228.326 85.8933 227.686 85.44C227.073 84.96 226.7 84.2133 226.566 83.2C225.18 85.3867 222.94 86.48 219.846 86.48C217.58 86.48 215.78 85.9467 214.446 84.88C213.14 83.7867 212.486 82.28 212.486 80.36C212.486 76.6267 215.073 74.4933 220.246 73.96L223.286 73.64C224.353 73.5067 225.126 73.24 225.606 72.84C226.113 72.4133 226.366 71.8133 226.366 71.04C226.366 70 226.033 69.2533 225.366 68.8C224.726 68.32 223.646 68.08 222.126 68.08C220.473 68.08 219.286 68.36 218.566 68.92C217.846 69.4533 217.433 70.4133 217.326 71.8H213.366C213.66 67.1867 216.58 64.88 222.126 64.88C227.566 64.88 230.286 66.9067 230.286 70.96V81.88C230.286 82.5733 230.66 82.92 231.406 82.92ZM220.446 83.36C222.153 83.36 223.566 82.88 224.686 81.92C225.806 80.96 226.366 79.6 226.366 77.84V75.68C225.86 76.1067 225.006 76.3867 223.806 76.52L220.926 76.84C219.38 77.0267 218.273 77.4 217.606 77.96C216.94 78.4933 216.606 79.2533 216.606 80.24C216.606 81.2267 216.926 82 217.566 82.56C218.233 83.0933 219.193 83.36 220.446 83.36ZM245.49 64.88C247.756 64.88 249.53 65.52 250.81 66.8C252.09 68.0533 252.73 69.84 252.73 72.16V86H248.73V72.72C248.73 69.84 247.276 68.4 244.37 68.4C243.036 68.4 241.836 68.9067 240.77 69.92C239.703 70.96 239.17 72.44 239.17 74.36V86H235.17V65.36H239.01V68.44C240.583 66.0667 242.743 64.88 245.49 64.88ZM283.006 71.12C284.633 71.7333 285.859 72.64 286.686 73.84C287.513 75.0133 287.926 76.3733 287.926 77.92C287.926 80.4267 287.099 82.4 285.446 83.84C283.819 85.28 281.473 86 278.406 86H265.566V57.52H277.846C280.726 57.52 282.926 58.2 284.446 59.56C285.993 60.92 286.766 62.7067 286.766 64.92C286.766 67.6933 285.513 69.76 283.006 71.12ZM277.566 61.2H269.846V69.72H277.566C280.899 69.72 282.566 68.24 282.566 65.28C282.566 64 282.126 63 281.246 62.28C280.393 61.56 279.166 61.2 277.566 61.2ZM269.846 82.32H278.166C279.926 82.32 281.273 81.9333 282.206 81.16C283.139 80.3867 283.606 79.28 283.606 77.84C283.606 74.8 281.793 73.28 278.166 73.28H269.846V82.32ZM310.138 75.84V77H294.578C294.764 79.0267 295.364 80.56 296.378 81.6C297.391 82.6133 298.764 83.12 300.498 83.12C303.111 83.12 304.818 81.9733 305.618 79.68H309.658C309.098 81.7867 308.004 83.4533 306.378 84.68C304.778 85.88 302.791 86.48 300.418 86.48C297.458 86.48 295.071 85.4933 293.258 83.52C291.444 81.5467 290.538 78.9333 290.538 75.68C290.538 72.4267 291.444 69.8133 293.258 67.84C295.071 65.8667 297.431 64.88 300.338 64.88C303.378 64.88 305.778 65.9067 307.538 67.96C309.271 70.0133 310.138 72.64 310.138 75.84ZM300.338 68.24C298.764 68.24 297.471 68.72 296.458 69.68C295.471 70.64 294.858 72.0267 294.618 73.84H306.018C305.831 72.16 305.231 70.8133 304.218 69.8C303.231 68.76 301.938 68.24 300.338 68.24ZM321.208 86.52C315.475 86.52 312.461 84.16 312.168 79.44H316.168C316.328 80.88 316.795 81.8933 317.568 82.48C318.341 83.0667 319.568 83.36 321.248 83.36C324.288 83.36 325.808 82.4 325.808 80.48C325.808 79.6533 325.488 79.0133 324.848 78.56C324.208 78.1067 323.061 77.7333 321.408 77.44L319.288 77.04C314.915 76.24 312.728 74.1867 312.728 70.88C312.728 69.04 313.435 67.5867 314.848 66.52C316.261 65.4267 318.208 64.88 320.688 64.88C326.368 64.88 329.275 67.1867 329.408 71.8H325.528C325.448 70.4133 325.021 69.44 324.248 68.88C323.475 68.2933 322.288 68 320.688 68C319.408 68 318.421 68.24 317.728 68.72C317.035 69.2 316.688 69.88 316.688 70.76C316.688 71.56 316.995 72.1867 317.608 72.64C318.221 73.0667 319.195 73.4133 320.528 73.68L322.688 74.04C325.221 74.52 327.048 75.24 328.168 76.2C329.288 77.16 329.848 78.4933 329.848 80.2C329.848 82.2 329.088 83.76 327.568 84.88C326.048 85.9733 323.928 86.52 321.208 86.52ZM342.274 65.36V68.64H338.114V81.04C338.114 81.6533 338.288 82.1067 338.634 82.4C339.008 82.6667 339.621 82.8 340.474 82.8H342.274V86C341.394 86.08 340.581 86.12 339.834 86.12C337.888 86.12 336.448 85.7467 335.514 85C334.581 84.2533 334.114 83.0533 334.114 81.4V68.64H330.794V65.36H334.114V59.44H338.114V65.36H342.274ZM366.048 86.64C362.075 86.64 358.848 85.2933 356.368 82.6C353.861 79.9333 352.608 76.32 352.608 71.76C352.608 67.2267 353.848 63.6133 356.328 60.92C358.808 58.2267 362.048 56.88 366.048 56.88C369.195 56.88 371.901 57.72 374.168 59.4C376.435 61.1067 377.888 63.6267 378.528 66.96H374.208C373.675 64.88 372.688 63.32 371.248 62.28C369.835 61.2133 368.101 60.68 366.048 60.68C363.301 60.68 361.115 61.68 359.488 63.68C357.861 65.6533 357.048 68.3467 357.048 71.76C357.048 75.1733 357.861 77.88 359.488 79.88C361.115 81.8533 363.301 82.84 366.048 82.84C368.101 82.84 369.941 82.2133 371.568 80.96C373.141 79.7067 374.088 77.88 374.408 75.48H378.688C378.341 79.0267 376.968 81.7733 374.568 83.72C372.195 85.6667 369.355 86.64 366.048 86.64ZM395.409 77V65.36H399.409V86H395.569V82.92C393.996 85.2933 391.836 86.48 389.089 86.48C386.823 86.48 385.049 85.84 383.769 84.56C382.489 83.28 381.849 81.4933 381.849 79.2V65.36H385.849V78.64C385.849 81.52 387.303 82.96 390.209 82.96C391.676 82.96 392.903 82.44 393.889 81.4C394.903 80.3333 395.409 78.8667 395.409 77ZM414.64 64.88C417.52 64.88 419.813 65.8533 421.52 67.8C423.226 69.7467 424.08 72.3733 424.08 75.68C424.08 78.96 423.226 81.5733 421.52 83.52C419.786 85.4933 417.493 86.48 414.64 86.48C411.706 86.48 409.466 85.36 407.92 83.12V93.84H403.92V65.36H407.76V68.48C409.306 66.08 411.6 64.88 414.64 64.88ZM409.48 81.08C410.546 82.3867 412.013 83.04 413.88 83.04C415.746 83.04 417.226 82.3733 418.32 81.04C419.386 79.7333 419.92 77.8933 419.92 75.52C419.92 73.2267 419.386 71.4533 418.32 70.2C417.253 68.9467 415.773 68.32 413.88 68.32C412.04 68.32 410.573 68.96 409.48 70.24C408.386 71.5733 407.84 73.3867 407.84 75.68C407.84 77.9733 408.386 79.7733 409.48 81.08ZM105.28 116.44L108.76 103.52H113.2L105.2 132H100.4L96.8 118.68C96.1067 116.093 95.28 112.8 94.32 108.8C93.36 112.8 92.5333 116.093 91.84 118.68L88.24 132H83.44L75.44 103.52H79.88L83.36 116.44C84.56 121.107 85.44 124.613 86 126.96C87.5467 120.613 88.4133 117.08 88.6 116.36L92.04 103.52H96.6L100.04 116.36C100.227 117.08 101.093 120.613 102.64 126.96C103.2 124.613 104.08 121.107 105.28 116.44ZM125.138 110.88C127.405 110.88 129.178 111.52 130.458 112.8C131.738 114.053 132.378 115.84 132.378 118.16V132H128.378V118.72C128.378 115.84 126.925 114.4 124.018 114.4C122.685 114.4 121.485 114.907 120.418 115.92C119.351 116.96 118.818 118.44 118.818 120.36V132H114.818V103.52H118.818V114.2C120.391 111.987 122.498 110.88 125.138 110.88ZM153.568 129.52C151.675 131.493 149.208 132.48 146.168 132.48C143.128 132.48 140.662 131.493 138.768 129.52C136.875 127.547 135.928 124.933 135.928 121.68C135.928 118.4 136.875 115.773 138.768 113.8C140.635 111.853 143.102 110.88 146.168 110.88C149.235 110.88 151.702 111.853 153.568 113.8C155.435 115.747 156.368 118.373 156.368 121.68C156.368 124.96 155.435 127.573 153.568 129.52ZM141.728 127.08C142.822 128.387 144.302 129.04 146.168 129.04C148.035 129.04 149.502 128.387 150.568 127.08C151.662 125.773 152.208 123.973 152.208 121.68C152.208 119.387 151.662 117.587 150.568 116.28C149.502 114.973 148.035 114.32 146.168 114.32C144.302 114.32 142.822 114.973 141.728 116.28C140.635 117.587 140.088 119.387 140.088 121.68C140.088 123.973 140.635 125.773 141.728 127.08ZM163.896 132H159.896V103.52H163.896V132ZM187.013 121.84V123H171.453C171.639 125.027 172.239 126.56 173.253 127.6C174.266 128.613 175.639 129.12 177.373 129.12C179.986 129.12 181.693 127.973 182.493 125.68H186.533C185.973 127.787 184.879 129.453 183.253 130.68C181.653 131.88 179.666 132.48 177.293 132.48C174.333 132.48 171.946 131.493 170.133 129.52C168.319 127.547 167.413 124.933 167.413 121.68C167.413 118.427 168.319 115.813 170.133 113.84C171.946 111.867 174.306 110.88 177.213 110.88C180.253 110.88 182.653 111.907 184.413 113.96C186.146 116.013 187.013 118.64 187.013 121.84ZM177.213 114.24C175.639 114.24 174.346 114.72 173.333 115.68C172.346 116.64 171.733 118.027 171.493 119.84H182.893C182.706 118.16 182.106 116.813 181.093 115.8C180.106 114.76 178.813 114.24 177.213 114.24ZM198.083 132.52C192.35 132.52 189.336 130.16 189.043 125.44H193.043C193.203 126.88 193.67 127.893 194.443 128.48C195.216 129.067 196.443 129.36 198.123 129.36C201.163 129.36 202.683 128.4 202.683 126.48C202.683 125.653 202.363 125.013 201.723 124.56C201.083 124.107 199.936 123.733 198.283 123.44L196.163 123.04C191.79 122.24 189.603 120.187 189.603 116.88C189.603 115.04 190.31 113.587 191.723 112.52C193.136 111.427 195.083 110.88 197.563 110.88C203.243 110.88 206.15 113.187 206.283 117.8H202.403C202.323 116.413 201.896 115.44 201.123 114.88C200.35 114.293 199.163 114 197.563 114C196.283 114 195.296 114.24 194.603 114.72C193.91 115.2 193.563 115.88 193.563 116.76C193.563 117.56 193.87 118.187 194.483 118.64C195.096 119.067 196.07 119.413 197.403 119.68L199.563 120.04C202.096 120.52 203.923 121.24 205.043 122.2C206.163 123.16 206.723 124.493 206.723 126.2C206.723 128.2 205.963 129.76 204.443 130.88C202.923 131.973 200.803 132.52 198.083 132.52ZM228.008 128.92H229.128V132C228.541 132.08 227.888 132.12 227.168 132.12C225.888 132.12 224.928 131.893 224.288 131.44C223.674 130.96 223.301 130.213 223.168 129.2C221.781 131.387 219.541 132.48 216.448 132.48C214.181 132.48 212.381 131.947 211.048 130.88C209.741 129.787 209.088 128.28 209.088 126.36C209.088 122.627 211.674 120.493 216.848 119.96L219.888 119.64C220.954 119.507 221.728 119.24 222.208 118.84C222.714 118.413 222.968 117.813 222.968 117.04C222.968 116 222.634 115.253 221.968 114.8C221.328 114.32 220.248 114.08 218.728 114.08C217.074 114.08 215.888 114.36 215.168 114.92C214.448 115.453 214.034 116.413 213.928 117.8H209.968C210.261 113.187 213.181 110.88 218.728 110.88C224.168 110.88 226.888 112.907 226.888 116.96V127.88C226.888 128.573 227.261 128.92 228.008 128.92ZM217.048 129.36C218.754 129.36 220.168 128.88 221.288 127.92C222.408 126.96 222.968 125.6 222.968 123.84V121.68C222.461 122.107 221.608 122.387 220.408 122.52L217.528 122.84C215.981 123.027 214.874 123.4 214.208 123.96C213.541 124.493 213.208 125.253 213.208 126.24C213.208 127.227 213.528 128 214.168 128.56C214.834 129.093 215.794 129.36 217.048 129.36ZM235.615 132H231.615V103.52H235.615V132ZM258.732 121.84V123H243.172C243.358 125.027 243.958 126.56 244.972 127.6C245.985 128.613 247.358 129.12 249.092 129.12C251.705 129.12 253.412 127.973 254.212 125.68H258.252C257.692 127.787 256.598 129.453 254.972 130.68C253.372 131.88 251.385 132.48 249.012 132.48C246.052 132.48 243.665 131.493 241.852 129.52C240.038 127.547 239.132 124.933 239.132 121.68C239.132 118.427 240.038 115.813 241.852 113.84C243.665 111.867 246.025 110.88 248.932 110.88C251.972 110.88 254.372 111.907 256.132 113.96C257.865 116.013 258.732 118.64 258.732 121.84ZM248.932 114.24C247.358 114.24 246.065 114.72 245.052 115.68C244.065 116.64 243.452 118.027 243.212 119.84H254.612C254.425 118.16 253.825 116.813 252.812 115.8C251.825 114.76 250.532 114.24 248.932 114.24Z" fill="black"/>
<g clip-path="url(#clip1_1035_2487)">
<rect x="172" y="467.613" width="138.745" height="138.745" rx="69.3724" fill="#F6F5EE" stroke="black"/>
<rect x="188.645" y="484.262" width="105.213" height="105.213" rx="52.6063" stroke="black"/>
<rect x="205.293" y="500.908" width="71.9175" height="71.9175" rx="35.9588" stroke="black"/>
<rect x="219.277" y="514.893" width="43.9496" height="43.9496" rx="21.9748" stroke="black"/>
</g>
<path d="M0 580.817L110.873 421L221.746 580.817H110.873H0Z" fill="#F6F5EE"/>
<path d="M110.873 421L0 580.817H110.873M110.873 421L221.746 580.817H110.873M110.873 421V580.817" stroke="black"/>
<path d="M153.16 580.817L208.43 500.908L263.7 580.817H208.43H153.16Z" fill="#F6F5EE"/>
<path d="M208.43 500.908L153.16 580.817H208.43M208.43 500.908L263.7 580.817H208.43M208.43 500.908V580.817" stroke="black"/>
<path d="M387.693 552.412H290.458M387.693 552.412V580.999H290.457L290.458 552.412M387.693 552.412V526.933M290.458 552.412V526.933M290.458 526.933H387.693M290.458 526.933V452.695M387.693 526.933V461.444M339.076 387.332H290.458V452.695M339.076 387.332H387.693V461.444M339.076 387.332V488.2M339.076 488.2H316.616M339.076 488.2H361.039M290.458 452.695L293.083 455.317C296.987 459.217 303.314 459.217 307.219 455.317L307.529 455.006C311.434 451.105 317.76 451.105 321.665 455.006L322.875 456.216C326.78 460.117 333.106 460.117 337.011 456.216L338.222 455.006C342.126 451.105 348.453 451.105 352.357 455.006L352.668 455.317C356.572 459.217 362.899 459.217 366.803 455.317L367.114 455.006C371.019 451.105 377.345 451.105 381.25 455.006L387.693 461.444" stroke="#151515"/>
</g>
<path d="M0 0V-1H-1V0H0ZM945 0H946V-1H945V0ZM945 581V582H946V581H945ZM0 581H-1V582H0V581ZM0 1H945V-1H0V1ZM944 0V581H946V0H944ZM945 580H0V582H945V580ZM1 581V0H-1V581H1Z" fill="#151515" mask="url(#path-1-inside-1_1035_2487)"/>
<defs>
<clipPath id="clip0_1035_2487">
<path d="M0 0H945V581H0V0Z" fill="white"/>
</clipPath>
<clipPath id="clip1_1035_2487">
<rect width="118.531" height="113.869" fill="white" transform="translate(172.469 466.281)"/>
</clipPath>
</defs>
</svg>
