<svg width="20" height="14" viewBox="0 0 20 14" fill="none" xmlns="http://www.w3.org/2000/svg">
<path fill-rule="evenodd" clip-rule="evenodd" d="M17.4617 0.55089C18.3042 0.778422 18.9664 1.44232 19.1903 2.28388C19.5975 3.81115 19.5975 6.99972 19.5975 6.99972C19.5975 6.99972 19.5975 10.1883 19.1903 11.7156C18.9633 12.5602 18.3011 13.2241 17.4617 13.4486C15.9383 13.8569 9.82612 13.8569 9.82612 13.8569C9.82612 13.8569 3.71703 13.8569 2.19054 13.4486C1.34801 13.221 0.685804 12.5571 0.46196 11.7156C0.0546875 10.1883 0.0546875 6.99972 0.0546875 6.99972C0.0546875 6.99972 0.0546875 3.81115 0.46196 2.28388C0.688913 1.4392 1.35112 0.775306 2.19054 0.55089C3.71703 0.142578 9.82612 0.142578 9.82612 0.142578C9.82612 0.142578 15.9383 0.142578 17.4617 0.55089ZM12.9506 6.99972L7.8737 9.93894V4.0605L12.9506 6.99972Z" fill="white"/>
</svg>
